<svg width="513" height="343" viewBox="0 0 513 343" fill="none" xmlns="http://www.w3.org/2000/svg">
<g clip-path="url(#clip0_4026_4428)">
<path d="M0 0.5H513V342.5H0V0.5Z" fill="white"/>
<path d="M0 0.5H513V114.5H0V0.5Z" fill="#009E49"/>
<path d="M0 228.5H513V342.5H0V228.5Z" fill="black"/>
<path d="M0 0.5H171V342.5H0V0.5Z" fill="#CE1126"/>
<g filter="url(#filter0_d_4026_4428)">
<rect x="24.5" y="262" width="56" height="56" rx="28" fill="white"/>
<path d="M41.786 281.788C41.8103 281.808 41.8412 281.818 41.8731 281.818C41.8976 281.819 41.9218 281.812 41.9428 281.8L51.0207 276.838C51.7702 276.427 53.3012 276.427 54.0516 276.838L63.1237 281.8C63.148 281.813 63.1762 281.82 63.2044 281.818C63.2327 281.815 63.2595 281.805 63.2813 281.788L66.5691 279.242C66.5865 279.229 66.6003 279.211 66.6091 279.191C66.618 279.172 66.6217 279.15 66.62 279.129C66.6178 279.108 66.6104 279.087 66.5984 279.069C66.5864 279.051 66.5702 279.036 66.5511 279.025L56.1745 273.355C55.1713 272.805 53.8759 272.5 52.5361 272.5C51.1964 272.5 49.9009 272.802 48.8961 273.355L38.5171 279.032C38.4974 279.042 38.4808 279.057 38.4688 279.075C38.4567 279.093 38.4496 279.114 38.4481 279.135C38.4465 279.156 38.4502 279.178 38.4589 279.197C38.4676 279.217 38.481 279.235 38.4982 279.248L41.786 281.788Z" fill="url(#paint0_linear_4026_4428)"/>
<path d="M57.6406 286.047C57.6719 286.047 57.7022 286.037 57.7268 286.018L60.7987 283.667C60.8159 283.654 60.8295 283.637 60.8382 283.618C60.8469 283.599 60.8506 283.578 60.8488 283.557C60.847 283.536 60.8399 283.516 60.828 283.499C60.8161 283.481 60.7998 283.467 60.7806 283.456L54.3724 279.992C53.3274 279.426 51.7455 279.425 50.693 279.992L44.2857 283.458C44.2668 283.468 44.2509 283.483 44.2392 283.5C44.2275 283.518 44.2203 283.538 44.2183 283.558C44.2163 283.579 44.2198 283.6 44.2286 283.619C44.2373 283.638 44.251 283.655 44.2684 283.668L47.342 286.016C47.3638 286.032 47.3903 286.042 47.4181 286.044C47.4459 286.046 47.4737 286.041 47.498 286.028C47.498 286.028 52.4235 283.368 52.4564 283.348C52.479 283.335 52.505 283.328 52.5315 283.328C52.558 283.328 52.584 283.335 52.6066 283.348C52.6312 283.364 57.5724 286.033 57.5724 286.033C57.5931 286.044 57.6167 286.05 57.6406 286.05" fill="url(#paint1_linear_4026_4428)"/>
<path d="M49.073 291.868L52.4848 293.734C52.5065 293.746 52.5311 293.752 52.5562 293.752C52.581 293.752 52.6055 293.746 52.6268 293.734L55.9926 291.894C56.014 291.881 56.0317 291.864 56.0441 291.844C56.0564 291.823 56.063 291.8 56.0632 291.776V288.098C56.0629 288.075 56.0562 288.052 56.0439 288.032C56.0315 288.011 56.0139 287.994 55.9926 287.982L52.6268 286.142C52.6051 286.131 52.5806 286.125 52.5558 286.125C52.5309 286.125 52.5065 286.131 52.4848 286.142L49.6862 287.675L49.1313 287.926C49.1069 287.937 49.0863 287.954 49.0718 287.975C49.0572 287.997 49.0494 288.021 49.0492 288.047V290.731L49.0016 291.747C49.0006 291.772 49.0067 291.796 49.0191 291.818C49.0316 291.839 49.0499 291.857 49.0722 291.87" fill="url(#paint2_linear_4026_4428)"/>
<path d="M49.5914 306.838C51.0887 307.582 53.4267 307.849 55.4668 306.838C55.9667 306.582 65.877 301.205 65.877 301.205C67.5952 300.177 69.5178 298.204 69.5178 295.243V283.881C69.5177 283.859 69.5119 283.838 69.501 283.819C69.4901 283.8 69.4745 283.784 69.4554 283.773C69.437 283.76 69.4157 283.753 69.3933 283.75C69.3709 283.748 69.3482 283.751 69.3274 283.759L65.359 285.186C65.3326 285.196 65.3099 285.212 65.2938 285.234C65.2777 285.256 65.2689 285.282 65.2687 285.308C65.2687 285.308 65.3212 295.137 65.2605 295.4C65.1702 296.234 64.451 297.344 63.7532 297.723L54.049 303.03C53.2987 303.441 51.7676 303.441 51.0181 303.03L41.3131 297.723C40.6153 297.341 39.897 296.234 39.8075 295.4C39.7468 295.137 39.7985 285.308 39.7985 285.308C39.7984 285.282 39.7898 285.256 39.7738 285.234C39.7579 285.212 39.7352 285.196 39.709 285.186L35.7406 283.759C35.7194 283.75 35.6963 283.747 35.6733 283.749C35.6504 283.751 35.6283 283.758 35.6091 283.77C35.5899 283.783 35.5742 283.799 35.5634 283.818C35.5525 283.837 35.5468 283.859 35.5469 283.881V295.245C35.5469 298.207 37.4695 300.179 39.1869 301.207C39.1869 301.207 49.0101 306.552 49.5881 306.838" fill="url(#paint3_linear_4026_4428)"/>
<path d="M50.7754 299.918C51.3182 300.185 51.9221 300.322 52.5339 300.317C53.1404 300.322 53.7393 300.189 54.28 299.928L60.8162 296.4C62.0969 295.721 62.6559 294.683 62.6559 293.425V286.482C62.656 286.462 62.6507 286.441 62.6404 286.423C62.6301 286.404 62.6151 286.388 62.5968 286.377C62.5785 286.365 62.5573 286.357 62.5351 286.354C62.513 286.352 62.4905 286.354 62.4696 286.362L58.7573 287.684C58.7315 287.693 58.7092 287.709 58.6934 287.731C58.6775 287.752 58.6689 287.777 58.6687 287.804V293.177C58.6696 293.199 58.664 293.221 58.6526 293.24C58.6411 293.259 58.6242 293.275 58.6038 293.285C58.5603 293.305 52.5757 296.498 52.5757 296.498C52.549 296.509 52.5201 296.515 52.4908 296.515C52.4615 296.515 52.4325 296.509 52.4058 296.498L46.4655 293.283C46.4448 293.273 46.4275 293.257 46.4159 293.238C46.4043 293.219 46.3987 293.197 46.3999 293.175V287.801C46.3998 287.775 46.3913 287.75 46.3756 287.728C46.36 287.707 46.3378 287.691 46.312 287.681L42.5989 286.36C42.5782 286.352 42.5558 286.349 42.5338 286.352C42.5117 286.355 42.4907 286.362 42.4725 286.374C42.454 286.386 42.4389 286.402 42.4284 286.42C42.4179 286.439 42.4125 286.459 42.4126 286.48V293.423C42.4126 294.681 42.9725 295.718 44.2523 296.397L50.7754 299.918Z" fill="url(#paint4_linear_4026_4428)"/>
</g>
</g>
<defs>
<filter id="filter0_d_4026_4428" x="20.5" y="262" width="64" height="64" filterUnits="userSpaceOnUse" color-interpolation-filters="sRGB">
<feFlood flood-opacity="0" result="BackgroundImageFix"/>
<feColorMatrix in="SourceAlpha" type="matrix" values="0 0 0 0 0 0 0 0 0 0 0 0 0 0 0 0 0 0 127 0" result="hardAlpha"/>
<feOffset dy="4"/>
<feGaussianBlur stdDeviation="2"/>
<feComposite in2="hardAlpha" operator="out"/>
<feColorMatrix type="matrix" values="0 0 0 0 0 0 0 0 0 0 0 0 0 0 0 0 0 0 0.25 0"/>
<feBlend mode="normal" in2="BackgroundImageFix" result="effect1_dropShadow_4026_4428"/>
<feBlend mode="normal" in="SourceGraphic" in2="effect1_dropShadow_4026_4428" result="shape"/>
</filter>
<linearGradient id="paint0_linear_4026_4428" x1="38.4481" y1="277.16" x2="66.62" y2="277.16" gradientUnits="userSpaceOnUse">
<stop stop-color="#6FBE44"/>
<stop offset="1" stop-color="#30B34A"/>
</linearGradient>
<linearGradient id="paint1_linear_4026_4428" x1="2665.67" y1="1300.35" x2="6035.03" y2="1300.35" gradientUnits="userSpaceOnUse">
<stop stop-color="#6FBE44"/>
<stop offset="1" stop-color="#30B34A"/>
</linearGradient>
<linearGradient id="paint2_linear_4026_4428" x1="1573.7" y1="2186.9" x2="2181.15" y2="2186.9" gradientUnits="userSpaceOnUse">
<stop stop-color="#6FBE44"/>
<stop offset="1" stop-color="#30B34A"/>
</linearGradient>
<linearGradient id="paint3_linear_4026_4428" x1="35.5502" y1="295.625" x2="69.5178" y2="295.625" gradientUnits="userSpaceOnUse">
<stop stop-color="#6F7073"/>
<stop offset="1" stop-color="#8C8F91"/>
</linearGradient>
<linearGradient id="paint4_linear_4026_4428" x1="2787.81" y1="4376.57" x2="7779.82" y2="4376.57" gradientUnits="userSpaceOnUse">
<stop stop-color="#6F7073"/>
<stop offset="1" stop-color="#8C8F91"/>
</linearGradient>
<clipPath id="clip0_4026_4428">
<rect width="513" height="342" fill="white" transform="translate(0 0.5)"/>
</clipPath>
</defs>
</svg>
