<svg width="513" height="343" viewBox="0 0 513 343" fill="none" xmlns="http://www.w3.org/2000/svg">
<g clip-path="url(#clip0_4026_4477)">
<path d="M0 0.5H513V342.5H0V0.5Z" fill="#3A7DCE"/>
<path d="M82.7417 86.6895L144.798 130.129L182.032 120.476L197.891 64.625L239.951 39.8024L303.387 49.4557L375.786 87.379L379.923 149.435L403.367 157.71V221.145L358.548 300.44L304.766 316.988L255.121 305.266L267.532 284.581L262.016 262.516L255.121 268.722L143.419 251.484L109.633 192.875L123.423 161.157L89.6369 118.407L82.7417 86.6895Z" fill="white"/>
<g filter="url(#filter0_d_4026_4477)">
<rect x="16.8931" y="273.204" width="52.4032" height="52.4032" rx="26.2016" fill="white"/>
<path d="M33.0687 291.721C33.0914 291.739 33.1203 291.749 33.1501 291.749C33.1731 291.749 33.1957 291.744 33.2154 291.732L41.7102 287.089C42.4116 286.704 43.8443 286.704 44.5464 287.089L53.0359 291.732C53.0586 291.744 53.085 291.75 53.1114 291.748C53.1378 291.746 53.163 291.737 53.1833 291.721L56.26 289.338C56.2763 289.326 56.2891 289.309 56.2974 289.291C56.3057 289.272 56.3092 289.252 56.3076 289.232C56.3055 289.212 56.2986 289.193 56.2874 289.177C56.2762 289.16 56.261 289.146 56.2431 289.135L46.533 283.83C45.5943 283.314 44.382 283.029 43.1283 283.029C41.8746 283.029 40.6624 283.312 39.7221 283.83L30.0097 289.141C29.9913 289.151 29.9758 289.165 29.9645 289.182C29.9532 289.199 29.9466 289.218 29.9452 289.238C29.9436 289.258 29.9471 289.278 29.9552 289.296C29.9634 289.315 29.976 289.331 29.992 289.344L33.0687 291.721Z" fill="url(#paint0_linear_4026_4477)"/>
<path d="M47.9049 295.706C47.9342 295.706 47.9626 295.697 47.9856 295.679L50.8602 293.479C50.8763 293.467 50.889 293.451 50.8972 293.433C50.9053 293.415 50.9087 293.396 50.9071 293.376C50.9054 293.357 50.8987 293.338 50.8876 293.321C50.8765 293.305 50.8613 293.291 50.8433 293.282L44.8467 290.04C43.8688 289.51 42.3884 289.509 41.4036 290.04L35.4078 293.283C35.3901 293.293 35.3752 293.307 35.3643 293.323C35.3533 293.339 35.3466 293.358 35.3448 293.377C35.3429 293.396 35.3462 293.416 35.3543 293.434C35.3625 293.452 35.3754 293.468 35.3916 293.48L38.2678 295.677C38.2882 295.692 38.313 295.702 38.339 295.704C38.365 295.706 38.391 295.7 38.4137 295.688C38.4137 295.688 43.023 293.199 43.0537 293.181C43.0748 293.168 43.0992 293.162 43.124 293.162C43.1488 293.162 43.1731 293.168 43.1943 293.181C43.2173 293.195 47.8411 295.693 47.8411 295.693C47.8605 295.704 47.8826 295.709 47.9049 295.708" fill="url(#paint1_linear_4026_4477)"/>
<path d="M39.8877 301.153L43.0804 302.899C43.1007 302.911 43.1238 302.916 43.1472 302.916C43.1705 302.917 43.1934 302.911 43.2133 302.899L46.3629 301.177C46.3829 301.166 46.3995 301.15 46.4111 301.13C46.4226 301.111 46.4288 301.089 46.429 301.067V297.626C46.4287 297.604 46.4224 297.582 46.4109 297.563C46.3993 297.544 46.3828 297.528 46.3629 297.517L43.2133 295.795C43.193 295.784 43.1701 295.779 43.1468 295.779C43.1236 295.779 43.1007 295.784 43.0804 295.795L40.4616 297.229L39.9423 297.464C39.9195 297.474 39.9002 297.49 39.8866 297.51C39.873 297.53 39.8657 297.554 39.8654 297.578V300.089L39.8209 301.04C39.82 301.063 39.8257 301.086 39.8373 301.106C39.849 301.126 39.8661 301.143 39.887 301.155" fill="url(#paint2_linear_4026_4477)"/>
<path d="M40.3729 315.162C41.7741 315.858 43.9619 316.108 45.8709 315.162C46.3388 314.922 55.6125 309.89 55.6125 309.89C57.2204 308.929 59.0195 307.083 59.0195 304.311V293.679C59.0194 293.659 59.014 293.639 59.0038 293.621C58.9936 293.604 58.9789 293.589 58.9611 293.578C58.9439 293.566 58.9239 293.559 58.903 293.557C58.882 293.554 58.8608 293.557 58.8413 293.565L55.1278 294.901C55.1031 294.909 55.0819 294.925 55.0668 294.945C55.0517 294.966 55.0435 294.99 55.0433 295.015C55.0433 295.015 55.0925 304.212 55.0356 304.458C54.9511 305.239 54.2782 306.277 53.6252 306.632L44.5442 311.598C43.8421 311.983 42.4094 311.983 41.708 311.598L32.6263 306.632C31.9734 306.275 31.3012 305.239 31.2174 304.458C31.1606 304.212 31.209 295.015 31.209 295.015C31.209 294.99 31.2009 294.966 31.186 294.945C31.171 294.925 31.1498 294.909 31.1253 294.901L27.4118 293.565C27.3919 293.557 27.3703 293.554 27.3488 293.556C27.3273 293.558 27.3067 293.564 27.2887 293.576C27.2708 293.587 27.2561 293.602 27.2459 293.62C27.2357 293.638 27.2304 293.659 27.2305 293.679V304.313C27.2305 307.085 29.0296 308.931 30.6367 309.893C30.6367 309.893 39.829 314.894 40.3698 315.162" fill="url(#paint3_linear_4026_4477)"/>
<path d="M41.481 308.686C41.9889 308.936 42.554 309.065 43.1265 309.059C43.6941 309.064 44.2545 308.939 44.7604 308.696L50.8769 305.394C52.0753 304.758 52.5984 303.788 52.5984 302.611V296.114C52.5985 296.094 52.5935 296.075 52.5839 296.057C52.5742 296.04 52.5602 296.025 52.5431 296.015C52.5259 296.003 52.5061 295.996 52.4854 295.994C52.4646 295.991 52.4436 295.994 52.424 296.001L48.9502 297.238C48.926 297.246 48.9052 297.262 48.8904 297.282C48.8755 297.302 48.8675 297.325 48.8672 297.35V302.378C48.8681 302.399 48.8629 302.419 48.8522 302.437C48.8415 302.455 48.8257 302.47 48.8066 302.48C48.7658 302.498 43.1656 305.485 43.1656 305.485C43.1407 305.496 43.1136 305.502 43.0861 305.502C43.0587 305.502 43.0316 305.496 43.0066 305.485L37.4479 302.477C37.4285 302.468 37.4124 302.453 37.4015 302.435C37.3906 302.417 37.3853 302.397 37.3864 302.376V297.348C37.3864 297.323 37.3785 297.299 37.3638 297.279C37.3491 297.259 37.3283 297.244 37.3042 297.236L33.8297 295.999C33.8103 295.992 33.7893 295.989 33.7687 295.992C33.7481 295.994 33.7284 296.001 33.7114 296.012C33.6941 296.023 33.6799 296.038 33.6701 296.055C33.6603 296.072 33.6552 296.092 33.6553 296.111V302.608C33.6553 303.786 34.1792 304.756 35.3768 305.391L41.481 308.686Z" fill="url(#paint4_linear_4026_4477)"/>
</g>
</g>
<defs>
<filter id="filter0_d_4026_4477" x="12.8931" y="273.204" width="60.4033" height="60.4032" filterUnits="userSpaceOnUse" color-interpolation-filters="sRGB">
<feFlood flood-opacity="0" result="BackgroundImageFix"/>
<feColorMatrix in="SourceAlpha" type="matrix" values="0 0 0 0 0 0 0 0 0 0 0 0 0 0 0 0 0 0 127 0" result="hardAlpha"/>
<feOffset dy="4"/>
<feGaussianBlur stdDeviation="2"/>
<feComposite in2="hardAlpha" operator="out"/>
<feColorMatrix type="matrix" values="0 0 0 0 0 0 0 0 0 0 0 0 0 0 0 0 0 0 0.25 0"/>
<feBlend mode="normal" in2="BackgroundImageFix" result="effect1_dropShadow_4026_4477"/>
<feBlend mode="normal" in="SourceGraphic" in2="effect1_dropShadow_4026_4477" result="shape"/>
</filter>
<linearGradient id="paint0_linear_4026_4477" x1="29.9452" y1="287.39" x2="56.3076" y2="287.39" gradientUnits="userSpaceOnUse">
<stop stop-color="#6FBE44"/>
<stop offset="1" stop-color="#30B34A"/>
</linearGradient>
<linearGradient id="paint1_linear_4026_4477" x1="2488.42" y1="1244.86" x2="5641.38" y2="1244.86" gradientUnits="userSpaceOnUse">
<stop stop-color="#6FBE44"/>
<stop offset="1" stop-color="#30B34A"/>
</linearGradient>
<linearGradient id="paint2_linear_4026_4477" x1="1466.59" y1="2074.47" x2="2035.03" y2="2074.47" gradientUnits="userSpaceOnUse">
<stop stop-color="#6FBE44"/>
<stop offset="1" stop-color="#30B34A"/>
</linearGradient>
<linearGradient id="paint3_linear_4026_4477" x1="27.2335" y1="304.669" x2="59.0195" y2="304.669" gradientUnits="userSpaceOnUse">
<stop stop-color="#6F7073"/>
<stop offset="1" stop-color="#8C8F91"/>
</linearGradient>
<linearGradient id="paint4_linear_4026_4477" x1="2602.72" y1="4123.51" x2="7274.1" y2="4123.51" gradientUnits="userSpaceOnUse">
<stop stop-color="#6F7073"/>
<stop offset="1" stop-color="#8C8F91"/>
</linearGradient>
<clipPath id="clip0_4026_4477">
<rect width="513" height="342" fill="white" transform="translate(0 0.5)"/>
</clipPath>
</defs>
</svg>
