<svg width="363" height="243" viewBox="0 0 363 243" fill="none" xmlns="http://www.w3.org/2000/svg">
<g clip-path="url(#clip0_4026_4518)">
<path d="M0 0.5H363V242.5H0V0.5Z" fill="#338AF3"/>
<path d="M57.0002 97.3999L14.7002 78.6999L57.0002 60.0999L75.6002 17.8999L94.2002 60.0999L136.5 78.6999L94.2002 97.3999L75.6002 139.6L57.0002 97.3999Z" fill="white"/>
<path d="M75.6 41.1001L87.1 67.2001L113.2 78.7001L87.1 90.2001L75.6 116.3L64.1 90.2001L38 78.7001L64.1 67.2001L75.6 41.1001Z" fill="#F30028"/>
<path d="M0 152.7H363V168.4H0V152.7ZM0 184.1H363V199.8H0V184.1Z" fill="#FFDA44"/>
<g filter="url(#filter0_d_4026_4518)">
<rect x="16.5" y="170" width="56" height="56" rx="28" fill="white"/>
<path d="M33.786 189.788C33.8103 189.808 33.8412 189.818 33.8731 189.818C33.8976 189.819 33.9218 189.812 33.9428 189.8L43.0207 184.838C43.7702 184.427 45.3012 184.427 46.0516 184.838L55.1237 189.8C55.148 189.813 55.1762 189.82 55.2044 189.818C55.2327 189.815 55.2595 189.805 55.2813 189.788L58.5691 187.242C58.5865 187.229 58.6003 187.211 58.6091 187.191C58.618 187.172 58.6217 187.15 58.62 187.129C58.6178 187.108 58.6104 187.087 58.5984 187.069C58.5864 187.051 58.5702 187.036 58.5511 187.025L48.1745 181.355C47.1713 180.805 45.8759 180.5 44.5361 180.5C43.1964 180.5 41.9009 180.802 40.8961 181.355L30.5171 187.032C30.4974 187.042 30.4808 187.057 30.4688 187.075C30.4567 187.093 30.4496 187.114 30.4481 187.135C30.4465 187.156 30.4502 187.178 30.4589 187.197C30.4676 187.217 30.481 187.235 30.4982 187.248L33.786 189.788Z" fill="url(#paint0_linear_4026_4518)"/>
<path d="M49.6406 194.047C49.6719 194.047 49.7022 194.037 49.7268 194.018L52.7987 191.667C52.8159 191.654 52.8295 191.637 52.8382 191.618C52.8469 191.599 52.8506 191.578 52.8488 191.557C52.847 191.536 52.8399 191.516 52.828 191.499C52.8161 191.481 52.7998 191.467 52.7806 191.456L46.3724 187.992C45.3274 187.426 43.7455 187.425 42.693 187.992L36.2857 191.458C36.2668 191.468 36.2509 191.483 36.2392 191.5C36.2275 191.518 36.2203 191.538 36.2183 191.558C36.2163 191.579 36.2198 191.6 36.2286 191.619C36.2373 191.638 36.251 191.655 36.2684 191.668L39.342 194.016C39.3638 194.032 39.3903 194.042 39.4181 194.044C39.4459 194.046 39.4737 194.041 39.498 194.028C39.498 194.028 44.4235 191.368 44.4564 191.348C44.479 191.335 44.505 191.328 44.5315 191.328C44.558 191.328 44.584 191.335 44.6066 191.348C44.6312 191.364 49.5724 194.033 49.5724 194.033C49.5931 194.044 49.6167 194.05 49.6406 194.05" fill="url(#paint1_linear_4026_4518)"/>
<path d="M41.073 199.868L44.4848 201.734C44.5065 201.746 44.5311 201.752 44.5562 201.752C44.581 201.752 44.6055 201.746 44.6268 201.734L47.9926 199.894C48.014 199.881 48.0317 199.864 48.0441 199.844C48.0564 199.823 48.063 199.8 48.0632 199.776V196.098C48.0629 196.075 48.0562 196.052 48.0439 196.032C48.0315 196.011 48.0139 195.994 47.9926 195.982L44.6268 194.142C44.6051 194.131 44.5806 194.125 44.5558 194.125C44.5309 194.125 44.5065 194.131 44.4848 194.142L41.6862 195.675L41.1313 195.926C41.1069 195.937 41.0863 195.954 41.0718 195.975C41.0572 195.997 41.0494 196.021 41.0492 196.047V198.731L41.0016 199.747C41.0006 199.772 41.0067 199.796 41.0191 199.818C41.0316 199.839 41.0499 199.857 41.0722 199.87" fill="url(#paint2_linear_4026_4518)"/>
<path d="M41.5914 214.838C43.0887 215.582 45.4267 215.849 47.4668 214.838C47.9667 214.582 57.877 209.205 57.877 209.205C59.5952 208.177 61.5178 206.204 61.5178 203.243V191.881C61.5177 191.859 61.5119 191.838 61.501 191.819C61.4901 191.8 61.4745 191.784 61.4554 191.773C61.437 191.76 61.4157 191.753 61.3933 191.75C61.3709 191.748 61.3482 191.751 61.3274 191.759L57.359 193.186C57.3326 193.196 57.3099 193.212 57.2938 193.234C57.2777 193.256 57.2689 193.282 57.2687 193.308C57.2687 193.308 57.3212 203.137 57.2605 203.4C57.1702 204.234 56.451 205.344 55.7532 205.723L46.049 211.03C45.2987 211.441 43.7676 211.441 43.0181 211.03L33.3131 205.723C32.6153 205.341 31.897 204.234 31.8075 203.4C31.7468 203.137 31.7985 193.308 31.7985 193.308C31.7984 193.282 31.7898 193.256 31.7738 193.234C31.7579 193.212 31.7352 193.196 31.709 193.186L27.7406 191.759C27.7194 191.75 27.6963 191.747 27.6733 191.749C27.6504 191.751 27.6283 191.758 27.6091 191.77C27.5899 191.783 27.5742 191.799 27.5634 191.818C27.5525 191.837 27.5468 191.859 27.5469 191.881V203.245C27.5469 206.207 29.4695 208.179 31.1869 209.207C31.1869 209.207 41.0101 214.552 41.5881 214.838" fill="url(#paint3_linear_4026_4518)"/>
<path d="M42.7754 207.918C43.3182 208.185 43.9221 208.322 44.5339 208.317C45.1404 208.322 45.7393 208.189 46.28 207.928L52.8162 204.4C54.0969 203.721 54.6559 202.683 54.6559 201.425V194.482C54.656 194.462 54.6507 194.441 54.6404 194.423C54.6301 194.404 54.6151 194.388 54.5968 194.377C54.5785 194.365 54.5573 194.357 54.5351 194.354C54.513 194.352 54.4905 194.354 54.4696 194.362L50.7573 195.684C50.7315 195.693 50.7092 195.709 50.6934 195.731C50.6775 195.752 50.6689 195.777 50.6687 195.804V201.177C50.6696 201.199 50.664 201.221 50.6526 201.24C50.6411 201.259 50.6242 201.275 50.6038 201.285C50.5603 201.305 44.5757 204.498 44.5757 204.498C44.549 204.509 44.5201 204.515 44.4908 204.515C44.4615 204.515 44.4325 204.509 44.4058 204.498L38.4655 201.283C38.4448 201.273 38.4275 201.257 38.4159 201.238C38.4043 201.219 38.3987 201.197 38.3999 201.175V195.801C38.3998 195.775 38.3913 195.75 38.3756 195.728C38.36 195.707 38.3378 195.691 38.312 195.681L34.5989 194.36C34.5782 194.352 34.5558 194.349 34.5338 194.352C34.5117 194.355 34.4907 194.362 34.4725 194.374C34.454 194.386 34.4389 194.402 34.4284 194.42C34.4179 194.439 34.4125 194.459 34.4126 194.48V201.423C34.4126 202.681 34.9725 203.718 36.2523 204.397L42.7754 207.918Z" fill="url(#paint4_linear_4026_4518)"/>
</g>
</g>
<defs>
<filter id="filter0_d_4026_4518" x="12.5" y="170" width="64" height="64" filterUnits="userSpaceOnUse" color-interpolation-filters="sRGB">
<feFlood flood-opacity="0" result="BackgroundImageFix"/>
<feColorMatrix in="SourceAlpha" type="matrix" values="0 0 0 0 0 0 0 0 0 0 0 0 0 0 0 0 0 0 127 0" result="hardAlpha"/>
<feOffset dy="4"/>
<feGaussianBlur stdDeviation="2"/>
<feComposite in2="hardAlpha" operator="out"/>
<feColorMatrix type="matrix" values="0 0 0 0 0 0 0 0 0 0 0 0 0 0 0 0 0 0 0.25 0"/>
<feBlend mode="normal" in2="BackgroundImageFix" result="effect1_dropShadow_4026_4518"/>
<feBlend mode="normal" in="SourceGraphic" in2="effect1_dropShadow_4026_4518" result="shape"/>
</filter>
<linearGradient id="paint0_linear_4026_4518" x1="30.4481" y1="185.16" x2="58.62" y2="185.16" gradientUnits="userSpaceOnUse">
<stop stop-color="#6FBE44"/>
<stop offset="1" stop-color="#30B34A"/>
</linearGradient>
<linearGradient id="paint1_linear_4026_4518" x1="2657.67" y1="1208.35" x2="6027.03" y2="1208.35" gradientUnits="userSpaceOnUse">
<stop stop-color="#6FBE44"/>
<stop offset="1" stop-color="#30B34A"/>
</linearGradient>
<linearGradient id="paint2_linear_4026_4518" x1="1565.7" y1="2094.9" x2="2173.15" y2="2094.9" gradientUnits="userSpaceOnUse">
<stop stop-color="#6FBE44"/>
<stop offset="1" stop-color="#30B34A"/>
</linearGradient>
<linearGradient id="paint3_linear_4026_4518" x1="27.5502" y1="203.625" x2="61.5178" y2="203.625" gradientUnits="userSpaceOnUse">
<stop stop-color="#6F7073"/>
<stop offset="1" stop-color="#8C8F91"/>
</linearGradient>
<linearGradient id="paint4_linear_4026_4518" x1="2779.81" y1="4284.57" x2="7771.82" y2="4284.57" gradientUnits="userSpaceOnUse">
<stop stop-color="#6F7073"/>
<stop offset="1" stop-color="#8C8F91"/>
</linearGradient>
<clipPath id="clip0_4026_4518">
<rect width="363" height="242" fill="white" transform="translate(0 0.5)"/>
</clipPath>
</defs>
</svg>
