<svg width="513" height="343" viewBox="0 0 513 343" fill="none" xmlns="http://www.w3.org/2000/svg">
<g clip-path="url(#clip0_4026_4573)">
<path d="M0 0.5H513V342.5H0V0.5Z" fill="white"/>
<path d="M157.31 200.26C157.31 200.26 148.27 244.19 138 240.65C127.38 237.11 120.47 221.89 120.47 221.89L105.95 243.13C105.95 243.13 144.13 251.61 146.96 248.6C148.18 247.46 155.17 233.5 157.3 222.55V200.26H157.31ZM101.18 260.83C101.18 260.83 98.6999 281.01 100.12 283.49C101.36 285.79 139.6 294.82 139.6 294.82C139.6 294.82 114.64 311.28 109.86 315.36L91.7999 285.44L91.0898 260.83H101.18ZM112.51 95.1396C112.51 95.1396 152.16 136.74 152.87 140.64C153.58 144.36 148.62 143.83 148.62 143.83C148.62 143.83 103.83 106.3 98.6998 102.76C93.3898 99.2097 112.51 95.1396 112.51 95.1396Z" fill="#E6BC00"/>
<path d="M99.4102 105.23C99.4102 105.23 116.4 104.52 116.05 93.7203C115.7 83.1003 104.9 78.8503 96.9302 81.3303C88.9602 83.6303 73.9202 94.7802 83.3002 116.38C92.6802 137.8 106.67 145.77 109.5 164.18C109.5 164.18 104.04 174.04 90.3801 164.53C73.4802 152.76 84.1802 126.29 79.9402 119.57C75.6902 112.49 38.9902 80.6503 38.9902 80.6503C38.9902 80.6503 8.75016 120.02 20.9902 155.57C37.9402 204.78 72.7302 187.55 85.6002 192.33C85.6002 192.33 43.4702 254.29 36.0302 259.42C36.0302 259.42 60.1102 267.74 83.8302 240.66C83.8302 240.66 89.6702 250.4 90.9102 260.84H101.18C105.96 234.64 152.69 196.58 151.1 178.52C149.33 157.27 101.89 129.13 99.4102 105.23Z" fill="#ADADAD"/>
<path d="M359.17 201.77C359.17 201.77 368.13 244.2 378.4 240.66C389.02 237.12 395.93 221.9 395.93 221.9L410.45 243.14C410.45 243.14 373.45 251.62 370.62 248.61C369.41 247.47 361.3 234.82 359.1 223.95L359.17 201.77ZM415.22 260.83C415.22 260.83 417.7 281.01 416.28 283.49C415.04 285.79 376.8 294.82 376.8 294.82C376.8 294.82 401.76 311.28 406.54 315.36L424.6 285.44L425.31 260.83H415.22ZM403.89 95.1396C403.89 95.1396 364.24 136.74 363.53 140.64C362.82 144.36 367.78 143.83 367.78 143.83C367.78 143.83 412.57 106.3 417.7 102.76C422.84 99.2097 403.89 95.1396 403.89 95.1396Z" fill="#E6BC00"/>
<path d="M157.31 87.5596H359.1V233.02C359.1 249.08 349.41 254.41 337.19 264.87L291.27 304.28C273.02 319.9 243.36 319.85 225.2 304.28L179.19 264.85C167.11 254.5 157.31 249.14 157.31 233.03V87.5596Z" fill="#125ECC"/>
<path d="M200.55 148.21C192.59 148.21 186.14 141.76 186.14 133.8C186.14 125.84 192.59 119.39 200.55 119.39C208.51 119.39 214.96 125.84 214.96 133.8C214.96 141.76 208.51 148.21 200.55 148.21ZM258.2 145.21C250.24 145.21 243.79 138.76 243.79 130.8C243.79 122.84 250.24 116.39 258.2 116.39C266.16 116.39 272.61 122.84 272.61 130.8C272.61 138.76 266.16 145.21 258.2 145.21ZM315.85 148.21C307.89 148.21 301.44 141.76 301.44 133.8C301.44 125.84 307.89 119.39 315.85 119.39C323.81 119.39 330.26 125.84 330.26 133.8C330.26 141.76 323.81 148.21 315.85 148.21ZM214.96 274.93C207 274.93 200.55 268.48 200.55 260.52C200.55 252.56 207 246.11 214.96 246.11C222.92 246.11 229.37 252.56 229.37 260.52C229.38 268.48 222.92 274.93 214.96 274.93ZM258.2 289.35C250.24 289.35 243.79 282.9 243.79 274.94C243.79 266.98 250.24 260.53 258.2 260.53C266.16 260.53 272.61 266.98 272.61 274.94C272.61 282.89 266.16 289.35 258.2 289.35ZM301.44 274.93C293.48 274.93 287.03 268.48 287.03 260.52C287.03 252.56 293.48 246.11 301.44 246.11C309.4 246.11 315.85 252.56 315.85 260.52C315.85 268.48 309.4 274.93 301.44 274.93Z" fill="#FFE600"/>
<path d="M157.31 175.86H359.1V233.51H157.31V175.86Z" fill="#D60537"/>
<path d="M142.9 44.3202C142.9 44.3202 200.55 29.9102 258.21 29.9102C315.87 29.9102 373.52 44.3202 373.52 44.3202L359.11 101.97C359.11 101.97 308.66 87.5602 258.22 87.5602C207.78 87.5602 157.33 101.97 157.33 101.97L142.9 44.3202Z" fill="#EACE00"/>
<path d="M258.2 73.1501C250.24 73.1501 243.79 66.7001 243.79 58.7401C243.79 50.7801 250.24 44.3301 258.2 44.3301C266.16 44.3301 272.61 50.7801 272.61 58.7401C272.61 66.7001 266.16 73.1501 258.2 73.1501ZM315.85 78.1501C307.89 78.1501 301.44 71.7001 301.44 63.7401C301.44 55.7801 307.89 49.3301 315.85 49.3301C323.81 49.3301 330.26 55.7801 330.26 63.7401C330.26 71.7001 323.81 78.1501 315.85 78.1501ZM200.55 78.1501C192.59 78.1501 186.14 71.7001 186.14 63.7401C186.14 55.7801 192.59 49.3301 200.55 49.3301C208.51 49.3301 214.96 55.7801 214.96 63.7401C214.96 71.7001 208.51 78.1501 200.55 78.1501Z" fill="#7A6920"/>
<path d="M365.08 178.52C363.49 196.58 410.22 234.64 415 260.84H425.27C426.51 250.4 432.35 240.66 432.35 240.66C456.07 267.75 480.15 259.42 480.15 259.42C472.71 254.29 430.58 192.33 430.58 192.33C443.46 187.55 478.25 204.78 495.19 155.57C507.43 120.02 477.19 80.6503 477.19 80.6503C477.19 80.6503 440.49 112.49 436.24 119.57C431.99 126.3 442.7 152.77 425.8 164.53C412.14 174.04 406.68 164.18 406.68 164.18C409.51 145.77 423.5 137.8 432.88 116.38C442.26 94.7802 427.22 83.6303 419.25 81.3303C411.28 78.8503 400.49 83.1003 400.13 93.7203C399.78 104.52 416.77 105.23 416.77 105.23C414.29 129.13 366.85 157.27 365.08 178.52Z" fill="#ADADAD"/>
<path d="M258.2 221.62C267.55 221.62 275.13 214.04 275.13 204.69C275.13 195.34 267.55 187.76 258.2 187.76C248.85 187.76 241.27 195.34 241.27 204.69C241.27 214.04 248.85 221.62 258.2 221.62Z" fill="white"/>
<g filter="url(#filter0_d_4026_4573)">
<rect x="24.5" y="262" width="56" height="56" rx="28" fill="white"/>
<path d="M41.786 281.788C41.8103 281.808 41.8412 281.818 41.8731 281.818C41.8976 281.819 41.9218 281.812 41.9428 281.8L51.0207 276.838C51.7702 276.427 53.3012 276.427 54.0516 276.838L63.1237 281.8C63.148 281.813 63.1762 281.82 63.2044 281.818C63.2327 281.815 63.2595 281.805 63.2813 281.788L66.5691 279.242C66.5865 279.229 66.6003 279.211 66.6091 279.191C66.618 279.172 66.6217 279.15 66.62 279.129C66.6178 279.108 66.6104 279.087 66.5984 279.069C66.5864 279.051 66.5702 279.036 66.5511 279.025L56.1745 273.355C55.1713 272.805 53.8759 272.5 52.5361 272.5C51.1964 272.5 49.9009 272.802 48.8961 273.355L38.5171 279.032C38.4974 279.042 38.4808 279.057 38.4688 279.075C38.4567 279.093 38.4496 279.114 38.4481 279.135C38.4465 279.156 38.4502 279.178 38.4589 279.197C38.4676 279.217 38.481 279.235 38.4982 279.248L41.786 281.788Z" fill="url(#paint0_linear_4026_4573)"/>
<path d="M57.6406 286.047C57.6719 286.047 57.7022 286.037 57.7268 286.019L60.7987 283.667C60.8159 283.654 60.8295 283.637 60.8382 283.618C60.8469 283.599 60.8506 283.578 60.8488 283.557C60.847 283.537 60.8399 283.517 60.828 283.499C60.8161 283.481 60.7998 283.467 60.7806 283.457L54.3724 279.993C53.3274 279.426 51.7455 279.425 50.693 279.993L44.2857 283.458C44.2668 283.469 44.2509 283.483 44.2392 283.501C44.2275 283.518 44.2203 283.538 44.2183 283.558C44.2163 283.579 44.2198 283.6 44.2286 283.619C44.2373 283.638 44.251 283.655 44.2684 283.668L47.342 286.016C47.3638 286.033 47.3903 286.043 47.4181 286.045C47.4459 286.047 47.4737 286.041 47.498 286.028C47.498 286.028 52.4235 283.368 52.4564 283.348C52.479 283.335 52.505 283.328 52.5315 283.328C52.558 283.328 52.584 283.335 52.6066 283.348C52.6312 283.364 57.5724 286.033 57.5724 286.033C57.5931 286.045 57.6167 286.05 57.6406 286.05" fill="url(#paint1_linear_4026_4573)"/>
<path d="M49.073 291.867L52.4848 293.734C52.5065 293.745 52.5311 293.752 52.5562 293.752C52.581 293.752 52.6055 293.746 52.6268 293.734L55.9926 291.893C56.014 291.881 56.0317 291.864 56.0441 291.843C56.0564 291.823 56.063 291.799 56.0632 291.776V288.098C56.0629 288.074 56.0562 288.051 56.0439 288.031C56.0315 288.011 56.0139 287.994 55.9926 287.982L52.6268 286.141C52.6051 286.13 52.5806 286.124 52.5558 286.124C52.5309 286.124 52.5065 286.13 52.4848 286.141L49.6862 287.674L49.1313 287.925C49.1069 287.936 49.0863 287.953 49.0718 287.975C49.0572 287.996 49.0494 288.021 49.0492 288.047V290.731L49.0016 291.747C49.0006 291.771 49.0067 291.796 49.0191 291.817C49.0316 291.839 49.0499 291.857 49.0722 291.869" fill="url(#paint2_linear_4026_4573)"/>
<path d="M49.5914 306.838C51.0887 307.581 53.4267 307.849 55.4668 306.838C55.9667 306.582 65.877 301.205 65.877 301.205C67.5952 300.177 69.5178 298.204 69.5178 295.242V283.88C69.5177 283.859 69.5119 283.838 69.501 283.819C69.4901 283.8 69.4745 283.784 69.4554 283.772C69.437 283.76 69.4157 283.752 69.3933 283.75C69.3709 283.747 69.3482 283.75 69.3274 283.758L65.359 285.186C65.3326 285.195 65.3099 285.212 65.2938 285.234C65.2777 285.256 65.2689 285.281 65.2687 285.308C65.2687 285.308 65.3212 295.137 65.2605 295.399C65.1702 296.234 64.451 297.343 63.7532 297.723L54.049 303.03C53.2987 303.441 51.7676 303.441 51.0181 303.03L41.3131 297.723C40.6153 297.341 39.897 296.234 39.8075 295.399C39.7468 295.137 39.7985 285.308 39.7985 285.308C39.7984 285.282 39.7898 285.256 39.7738 285.234C39.7579 285.212 39.7352 285.195 39.709 285.186L35.7406 283.758C35.7194 283.75 35.6963 283.747 35.6733 283.749C35.6504 283.751 35.6283 283.758 35.6091 283.77C35.5899 283.782 35.5742 283.799 35.5634 283.818C35.5525 283.837 35.5468 283.859 35.5469 283.88V295.245C35.5469 298.206 37.4695 300.179 39.1869 301.207C39.1869 301.207 49.0101 306.552 49.5881 306.838" fill="url(#paint3_linear_4026_4573)"/>
<path d="M50.7754 299.918C51.3182 300.185 51.9221 300.322 52.5339 300.316C53.1404 300.322 53.7393 300.188 54.28 299.928L60.8162 296.399C62.0969 295.72 62.6559 294.683 62.6559 293.425V286.482C62.656 286.461 62.6507 286.441 62.6404 286.422C62.6301 286.404 62.6151 286.388 62.5968 286.376C62.5785 286.364 62.5573 286.357 62.5351 286.354C62.513 286.351 62.4905 286.354 62.4696 286.361L58.7573 287.683C58.7315 287.692 58.7092 287.709 58.6934 287.73C58.6775 287.752 58.6689 287.777 58.6687 287.803V293.177C58.6696 293.199 58.664 293.221 58.6526 293.24C58.6411 293.259 58.6242 293.274 58.6038 293.285C58.5603 293.304 52.5757 296.497 52.5757 296.497C52.549 296.508 52.5201 296.514 52.4908 296.514C52.4615 296.514 52.4325 296.508 52.4058 296.497L46.4655 293.283C46.4448 293.272 46.4275 293.257 46.4159 293.238C46.4043 293.219 46.3987 293.197 46.3999 293.174V287.801C46.3998 287.775 46.3913 287.749 46.3756 287.728C46.36 287.706 46.3378 287.69 46.312 287.681L42.5989 286.359C42.5782 286.352 42.5558 286.349 42.5338 286.352C42.5117 286.354 42.4907 286.362 42.4725 286.374C42.454 286.385 42.4389 286.401 42.4284 286.42C42.4179 286.438 42.4125 286.459 42.4126 286.48V293.423C42.4126 294.681 42.9725 295.718 44.2523 296.397L50.7754 299.918Z" fill="url(#paint4_linear_4026_4573)"/>
</g>
</g>
<defs>
<filter id="filter0_d_4026_4573" x="20.5" y="262" width="64" height="64" filterUnits="userSpaceOnUse" color-interpolation-filters="sRGB">
<feFlood flood-opacity="0" result="BackgroundImageFix"/>
<feColorMatrix in="SourceAlpha" type="matrix" values="0 0 0 0 0 0 0 0 0 0 0 0 0 0 0 0 0 0 127 0" result="hardAlpha"/>
<feOffset dy="4"/>
<feGaussianBlur stdDeviation="2"/>
<feComposite in2="hardAlpha" operator="out"/>
<feColorMatrix type="matrix" values="0 0 0 0 0 0 0 0 0 0 0 0 0 0 0 0 0 0 0.25 0"/>
<feBlend mode="normal" in2="BackgroundImageFix" result="effect1_dropShadow_4026_4573"/>
<feBlend mode="normal" in="SourceGraphic" in2="effect1_dropShadow_4026_4573" result="shape"/>
</filter>
<linearGradient id="paint0_linear_4026_4573" x1="38.4481" y1="277.16" x2="66.62" y2="277.16" gradientUnits="userSpaceOnUse">
<stop stop-color="#6FBE44"/>
<stop offset="1" stop-color="#30B34A"/>
</linearGradient>
<linearGradient id="paint1_linear_4026_4573" x1="2665.67" y1="1300.35" x2="6035.03" y2="1300.35" gradientUnits="userSpaceOnUse">
<stop stop-color="#6FBE44"/>
<stop offset="1" stop-color="#30B34A"/>
</linearGradient>
<linearGradient id="paint2_linear_4026_4573" x1="1573.7" y1="2186.9" x2="2181.15" y2="2186.9" gradientUnits="userSpaceOnUse">
<stop stop-color="#6FBE44"/>
<stop offset="1" stop-color="#30B34A"/>
</linearGradient>
<linearGradient id="paint3_linear_4026_4573" x1="35.5502" y1="295.625" x2="69.5178" y2="295.625" gradientUnits="userSpaceOnUse">
<stop stop-color="#6F7073"/>
<stop offset="1" stop-color="#8C8F91"/>
</linearGradient>
<linearGradient id="paint4_linear_4026_4573" x1="2787.81" y1="4376.57" x2="7779.82" y2="4376.57" gradientUnits="userSpaceOnUse">
<stop stop-color="#6F7073"/>
<stop offset="1" stop-color="#8C8F91"/>
</linearGradient>
<clipPath id="clip0_4026_4573">
<rect width="513" height="342" fill="white" transform="translate(0 0.5)"/>
</clipPath>
</defs>
</svg>
