<svg width="513" height="343" viewBox="0 0 513 343" fill="none" xmlns="http://www.w3.org/2000/svg">
<g clip-path="url(#clip0_4026_4631)">
<path d="M0 -15.0449H513V358.046H0V-15.0449Z" fill="#EF2B2D"/>
<path d="M139.909 -15.0449H233.182V358.046H139.909V-15.0449Z" fill="white"/>
<path d="M0 124.864H513V218.137H0V124.864Z" fill="white"/>
<path d="M163.228 -15.0449H209.864V358.046H163.228V-15.0449Z" fill="#002868"/>
<path d="M0 148.182H513V194.818H0V148.182Z" fill="#002868"/>
<g filter="url(#filter0_d_4026_4631)">
<rect x="11.4258" y="278.686" width="52.2328" height="52.2327" rx="26.1164" fill="white"/>
<path d="M27.5488 297.143C27.5714 297.161 27.6002 297.171 27.6299 297.171C27.6529 297.171 27.6754 297.166 27.695 297.154L36.1622 292.526C36.8613 292.143 38.2893 292.143 38.9892 292.526L47.451 297.154C47.4737 297.166 47.5 297.172 47.5263 297.17C47.5526 297.168 47.5777 297.159 47.598 297.143L50.6646 294.768C50.6809 294.755 50.6937 294.739 50.7019 294.721C50.7102 294.702 50.7137 294.682 50.7121 294.662C50.71 294.643 50.7031 294.624 50.692 294.607C50.6808 294.59 50.6657 294.576 50.6478 294.566L40.9693 289.277C40.0336 288.764 38.8253 288.479 37.5757 288.479C36.326 288.479 35.1178 288.762 34.1805 289.277L24.4997 294.572C24.4814 294.581 24.4659 294.595 24.4547 294.612C24.4434 294.629 24.4368 294.648 24.4354 294.668C24.4339 294.688 24.4373 294.708 24.4454 294.726C24.4535 294.745 24.4661 294.761 24.4821 294.774L27.5488 297.143Z" fill="url(#paint0_linear_4026_4631)"/>
<path d="M42.3367 301.115C42.3659 301.115 42.3942 301.106 42.4171 301.089L45.2824 298.895C45.2984 298.883 45.3111 298.868 45.3192 298.85C45.3274 298.832 45.3308 298.812 45.3291 298.793C45.3274 298.773 45.3208 298.755 45.3097 298.738C45.2986 298.722 45.2834 298.708 45.2655 298.699L39.2884 295.468C38.3137 294.94 36.8382 294.938 35.8565 295.468L29.8802 298.7C29.8626 298.71 29.8478 298.724 29.8368 298.74C29.8259 298.756 29.8193 298.775 29.8174 298.794C29.8155 298.813 29.8188 298.833 29.827 298.851C29.8351 298.869 29.8479 298.884 29.8641 298.896L32.7309 301.086C32.7513 301.102 32.776 301.111 32.8019 301.113C32.8278 301.115 32.8538 301.109 32.8764 301.097C32.8764 301.097 37.4706 298.616 37.5013 298.598C37.5224 298.586 37.5466 298.579 37.5713 298.579C37.5961 298.579 37.6203 298.586 37.6414 298.598C37.6644 298.613 42.2731 301.102 42.2731 301.102C42.2925 301.113 42.3144 301.118 42.3367 301.118" fill="url(#paint1_linear_4026_4631)"/>
<path d="M34.3455 306.545L37.5278 308.285C37.548 308.296 37.571 308.302 37.5944 308.302C37.6176 308.302 37.6404 308.296 37.6602 308.285L40.7996 306.568C40.8196 306.557 40.8361 306.541 40.8476 306.522C40.8592 306.503 40.8653 306.481 40.8655 306.459V303.029C40.8652 303.007 40.859 302.985 40.8475 302.966C40.8359 302.947 40.8195 302.932 40.7996 302.92L37.6602 301.204C37.64 301.193 37.6172 301.188 37.594 301.188C37.5708 301.188 37.548 301.193 37.5278 301.204L34.9175 302.633L34.3999 302.868C34.3772 302.878 34.3579 302.894 34.3444 302.914C34.3308 302.934 34.3235 302.957 34.3233 302.981V305.484L34.2789 306.432C34.278 306.455 34.2837 306.478 34.2953 306.498C34.3069 306.518 34.324 306.534 34.3447 306.546" fill="url(#paint2_linear_4026_4631)"/>
<path d="M34.8292 320.507C36.2258 321.201 38.4065 321.45 40.3093 320.507C40.7756 320.268 50.0192 315.253 50.0192 315.253C51.6218 314.294 53.4151 312.454 53.4151 309.692V299.094C53.415 299.074 53.4096 299.054 53.3995 299.037C53.3893 299.019 53.3747 299.004 53.3569 298.993C53.3398 298.982 53.3199 298.975 53.299 298.972C53.2781 298.97 53.2569 298.973 53.2375 298.98L49.5361 300.312C49.5115 300.321 49.4903 300.336 49.4753 300.356C49.4602 300.377 49.452 300.401 49.4518 300.426C49.4518 300.426 49.5008 309.593 49.4442 309.838C49.36 310.616 48.6892 311.651 48.0383 312.005L38.9869 316.955C38.2871 317.339 36.8591 317.339 36.16 316.955L27.1078 312.005C26.457 311.649 25.787 310.616 25.7035 309.838C25.6468 309.593 25.6951 300.426 25.6951 300.426C25.695 300.401 25.687 300.377 25.6721 300.357C25.6572 300.336 25.6361 300.321 25.6116 300.312L21.9102 298.98C21.8904 298.972 21.8688 298.969 21.8474 298.971C21.826 298.973 21.8055 298.98 21.7876 298.991C21.7697 299.003 21.755 299.018 21.7449 299.036C21.7347 299.054 21.7295 299.074 21.7295 299.094V309.694C21.7295 312.456 23.5228 314.296 25.1246 315.255C25.1246 315.255 34.2871 320.241 34.8261 320.507" fill="url(#paint3_linear_4026_4631)"/>
<path d="M35.9335 314.053C36.4398 314.302 37.003 314.43 37.5737 314.425C38.1394 314.43 38.6981 314.305 39.2023 314.062L45.2989 310.771C46.4934 310.138 47.0148 309.17 47.0148 307.997V301.521C47.0149 301.502 47.0099 301.482 47.0003 301.465C46.9907 301.448 46.9767 301.433 46.9597 301.422C46.9426 301.411 46.9228 301.404 46.9021 301.402C46.8815 301.399 46.8605 301.402 46.841 301.409L43.3785 302.642C43.3544 302.65 43.3336 302.665 43.3188 302.685C43.3041 302.705 43.296 302.729 43.2958 302.753V307.765C43.2967 307.786 43.2915 307.806 43.2808 307.824C43.2701 307.842 43.2543 307.857 43.2353 307.866C43.1947 307.884 37.6127 310.862 37.6127 310.862C37.5878 310.873 37.5608 310.879 37.5335 310.879C37.5061 310.879 37.4791 310.873 37.4542 310.862L31.9136 307.864C31.8942 307.855 31.8782 307.84 31.8673 307.822C31.8564 307.804 31.8512 307.784 31.8523 307.763V302.751C31.8523 302.727 31.8444 302.703 31.8297 302.683C31.8151 302.663 31.7944 302.648 31.7704 302.639L28.3071 301.406C28.2878 301.399 28.2669 301.397 28.2463 301.399C28.2258 301.402 28.2062 301.409 28.1892 301.42C28.172 301.431 28.1578 301.446 28.1481 301.463C28.1383 301.48 28.1332 301.499 28.1333 301.519V307.995C28.1333 309.168 28.6555 310.136 29.8492 310.769L35.9335 314.053Z" fill="url(#paint4_linear_4026_4631)"/>
</g>
</g>
<defs>
<filter id="filter0_d_4026_4631" x="7.42578" y="278.686" width="60.2329" height="60.2324" filterUnits="userSpaceOnUse" color-interpolation-filters="sRGB">
<feFlood flood-opacity="0" result="BackgroundImageFix"/>
<feColorMatrix in="SourceAlpha" type="matrix" values="0 0 0 0 0 0 0 0 0 0 0 0 0 0 0 0 0 0 127 0" result="hardAlpha"/>
<feOffset dy="4"/>
<feGaussianBlur stdDeviation="2"/>
<feComposite in2="hardAlpha" operator="out"/>
<feColorMatrix type="matrix" values="0 0 0 0 0 0 0 0 0 0 0 0 0 0 0 0 0 0 0.25 0"/>
<feBlend mode="normal" in2="BackgroundImageFix" result="effect1_dropShadow_4026_4631"/>
<feBlend mode="normal" in="SourceGraphic" in2="effect1_dropShadow_4026_4631" result="shape"/>
</filter>
<linearGradient id="paint0_linear_4026_4631" x1="24.4354" y1="292.826" x2="50.7121" y2="292.826" gradientUnits="userSpaceOnUse">
<stop stop-color="#6FBE44"/>
<stop offset="1" stop-color="#30B34A"/>
</linearGradient>
<linearGradient id="paint1_linear_4026_4631" x1="2474.92" y1="1247.19" x2="5617.62" y2="1247.19" gradientUnits="userSpaceOnUse">
<stop stop-color="#6FBE44"/>
<stop offset="1" stop-color="#30B34A"/>
</linearGradient>
<linearGradient id="paint2_linear_4026_4631" x1="1456.41" y1="2074.09" x2="2023" y2="2074.09" gradientUnits="userSpaceOnUse">
<stop stop-color="#6FBE44"/>
<stop offset="1" stop-color="#30B34A"/>
</linearGradient>
<linearGradient id="paint3_linear_4026_4631" x1="21.7326" y1="310.049" x2="53.4151" y2="310.049" gradientUnits="userSpaceOnUse">
<stop stop-color="#6F7073"/>
<stop offset="1" stop-color="#8C8F91"/>
</linearGradient>
<linearGradient id="paint4_linear_4026_4631" x1="2588.84" y1="4116.46" x2="7245.03" y2="4116.46" gradientUnits="userSpaceOnUse">
<stop stop-color="#6F7073"/>
<stop offset="1" stop-color="#8C8F91"/>
</linearGradient>
<clipPath id="clip0_4026_4631">
<rect width="513" height="342" fill="white" transform="translate(0 0.5)"/>
</clipPath>
</defs>
</svg>
