<svg width="513" height="343" viewBox="0 0 513 343" fill="none" xmlns="http://www.w3.org/2000/svg">
<g clip-path="url(#clip0_4026_4637)">
<path d="M0 0.5H513V342.5H0V0.5Z" fill="#007C30"/>
<path d="M0 230.5H513V0.5H0" fill="#CE1720"/>
<path d="M100 230.5V0.5H0V342.5H513H100V230.5Z" fill="white"/>
<path d="M28.0001 160.1L8.6001 128.7L28.0001 97.9004L47.3001 128.7L28.0001 160.1ZM72.6001 160.1L53.3001 128.7L72.6001 97.9004L92.0001 128.7L72.6001 160.1ZM28.0001 241.7L8.6001 210.3L28.0001 179.5L47.3001 210.3L28.0001 241.7ZM72.6001 241.7L53.3001 210.3L72.6001 179.5L92.0001 210.3L72.6001 241.7Z" fill="#CE1720"/>
<path d="M27.9999 74.3002L11.8999 48.3002L27.9999 22.7002L43.9999 48.3002L27.9999 74.3002ZM72.5999 74.3002L56.5999 48.3002L72.5999 22.7002L88.6999 48.3002L72.5999 74.3002ZM27.9999 318.5L11.8999 292.4L27.9999 266.8L43.9999 292.4L27.9999 318.5ZM72.5999 318.5L56.5999 292.4L72.5999 266.8L88.6999 292.4L72.5999 318.5Z" stroke="#CE1720" stroke-width="7"/>
<g filter="url(#filter0_d_4026_4637)">
<rect x="24.5" y="261.667" width="56" height="56" rx="28" fill="white"/>
<path d="M41.786 281.455C41.8103 281.475 41.8412 281.485 41.8731 281.485C41.8976 281.486 41.9218 281.479 41.9428 281.467L51.0207 276.505C51.7702 276.094 53.3012 276.094 54.0516 276.505L63.1237 281.467C63.148 281.48 63.1762 281.487 63.2044 281.485C63.2327 281.482 63.2595 281.472 63.2813 281.455L66.5691 278.909C66.5865 278.896 66.6003 278.878 66.6091 278.858C66.618 278.839 66.6217 278.817 66.62 278.796C66.6178 278.775 66.6104 278.754 66.5984 278.736C66.5864 278.718 66.5702 278.703 66.5511 278.692L56.1745 273.022C55.1713 272.472 53.8759 272.167 52.5361 272.167C51.1964 272.167 49.9009 272.469 48.8961 273.022L38.5171 278.699C38.4974 278.709 38.4808 278.724 38.4688 278.742C38.4567 278.76 38.4496 278.781 38.4481 278.802C38.4465 278.823 38.4502 278.845 38.4589 278.864C38.4676 278.884 38.481 278.902 38.4982 278.915L41.786 281.455Z" fill="url(#paint0_linear_4026_4637)"/>
<path d="M57.6406 285.714C57.6719 285.714 57.7022 285.704 57.7268 285.686L60.7987 283.334C60.8159 283.321 60.8295 283.304 60.8382 283.285C60.8469 283.266 60.8506 283.245 60.8488 283.224C60.847 283.204 60.8399 283.184 60.828 283.166C60.8161 283.148 60.7998 283.134 60.7806 283.124L54.3724 279.66C53.3274 279.093 51.7455 279.092 50.693 279.66L44.2857 283.125C44.2668 283.136 44.2509 283.15 44.2392 283.168C44.2275 283.185 44.2203 283.205 44.2183 283.225C44.2163 283.246 44.2198 283.267 44.2286 283.286C44.2373 283.305 44.251 283.322 44.2684 283.335L47.342 285.683C47.3638 285.7 47.3903 285.71 47.4181 285.712C47.4459 285.714 47.4737 285.708 47.498 285.695C47.498 285.695 52.4235 283.035 52.4564 283.015C52.479 283.002 52.505 282.995 52.5315 282.995C52.558 282.995 52.584 283.002 52.6066 283.015C52.6312 283.031 57.5724 285.7 57.5724 285.7C57.5931 285.712 57.6167 285.717 57.6406 285.717" fill="url(#paint1_linear_4026_4637)"/>
<path d="M49.073 291.534L52.4848 293.401C52.5065 293.412 52.5311 293.419 52.5562 293.418C52.581 293.419 52.6055 293.413 52.6268 293.401L55.9926 291.56C56.014 291.548 56.0317 291.531 56.0441 291.51C56.0564 291.49 56.063 291.466 56.0632 291.443V287.765C56.0629 287.741 56.0562 287.718 56.0439 287.698C56.0315 287.678 56.0139 287.661 55.9926 287.649L52.6268 285.808C52.6051 285.797 52.5806 285.791 52.5558 285.791C52.5309 285.791 52.5065 285.797 52.4848 285.808L49.6862 287.341L49.1313 287.592C49.1069 287.603 49.0863 287.62 49.0718 287.642C49.0572 287.663 49.0494 287.688 49.0492 287.713V290.398L49.0016 291.414C49.0006 291.438 49.0067 291.463 49.0191 291.484C49.0316 291.506 49.0499 291.524 49.0722 291.536" fill="url(#paint2_linear_4026_4637)"/>
<path d="M49.5914 306.505C51.0887 307.248 53.4267 307.516 55.4668 306.505C55.9667 306.249 65.877 300.872 65.877 300.872C67.5952 299.844 69.5178 297.871 69.5178 294.909V283.547C69.5177 283.526 69.5119 283.505 69.501 283.486C69.4901 283.467 69.4745 283.451 69.4554 283.439C69.437 283.427 69.4157 283.419 69.3933 283.417C69.3709 283.414 69.3482 283.417 69.3274 283.425L65.359 284.853C65.3326 284.862 65.3099 284.879 65.2938 284.901C65.2777 284.923 65.2689 284.948 65.2687 284.975C65.2687 284.975 65.3212 294.804 65.2605 295.066C65.1702 295.901 64.451 297.01 63.7532 297.39L54.049 302.697C53.2987 303.108 51.7676 303.108 51.0181 302.697L41.3131 297.39C40.6153 297.008 39.897 295.901 39.8075 295.066C39.7468 294.804 39.7985 284.975 39.7985 284.975C39.7984 284.949 39.7898 284.923 39.7738 284.901C39.7579 284.879 39.7352 284.862 39.709 284.853L35.7406 283.425C35.7194 283.417 35.6963 283.414 35.6733 283.416C35.6504 283.418 35.6283 283.425 35.6091 283.437C35.5899 283.449 35.5742 283.466 35.5634 283.485C35.5525 283.504 35.5468 283.526 35.5469 283.547V294.912C35.5469 297.873 37.4695 299.846 39.1869 300.874C39.1869 300.874 49.0101 306.219 49.5881 306.505" fill="url(#paint3_linear_4026_4637)"/>
<path d="M50.7754 299.585C51.3182 299.852 51.9221 299.989 52.5339 299.983C53.1404 299.989 53.7393 299.855 54.28 299.595L60.8162 296.066C62.0969 295.387 62.6559 294.35 62.6559 293.092V286.149C62.656 286.128 62.6507 286.108 62.6404 286.089C62.6301 286.071 62.6151 286.055 62.5968 286.043C62.5785 286.031 62.5573 286.024 62.5351 286.021C62.513 286.018 62.4905 286.021 62.4696 286.028L58.7573 287.35C58.7315 287.359 58.7092 287.376 58.6934 287.397C58.6775 287.419 58.6689 287.444 58.6687 287.47V292.844C58.6696 292.866 58.664 292.888 58.6526 292.907C58.6411 292.926 58.6242 292.941 58.6038 292.952C58.5603 292.971 52.5757 296.164 52.5757 296.164C52.549 296.175 52.5201 296.181 52.4908 296.181C52.4615 296.181 52.4325 296.175 52.4058 296.164L46.4655 292.95C46.4448 292.939 46.4275 292.924 46.4159 292.905C46.4043 292.886 46.3987 292.864 46.3999 292.841V287.468C46.3998 287.442 46.3913 287.416 46.3756 287.395C46.36 287.373 46.3378 287.357 46.312 287.348L42.5989 286.026C42.5782 286.019 42.5558 286.016 42.5338 286.019C42.5117 286.021 42.4907 286.029 42.4725 286.041C42.454 286.052 42.4389 286.068 42.4284 286.087C42.4179 286.105 42.4125 286.126 42.4126 286.147V293.09C42.4126 294.348 42.9725 295.385 44.2523 296.064L50.7754 299.585Z" fill="url(#paint4_linear_4026_4637)"/>
</g>
</g>
<defs>
<filter id="filter0_d_4026_4637" x="20.5" y="261.667" width="64" height="64" filterUnits="userSpaceOnUse" color-interpolation-filters="sRGB">
<feFlood flood-opacity="0" result="BackgroundImageFix"/>
<feColorMatrix in="SourceAlpha" type="matrix" values="0 0 0 0 0 0 0 0 0 0 0 0 0 0 0 0 0 0 127 0" result="hardAlpha"/>
<feOffset dy="4"/>
<feGaussianBlur stdDeviation="2"/>
<feComposite in2="hardAlpha" operator="out"/>
<feColorMatrix type="matrix" values="0 0 0 0 0 0 0 0 0 0 0 0 0 0 0 0 0 0 0.25 0"/>
<feBlend mode="normal" in2="BackgroundImageFix" result="effect1_dropShadow_4026_4637"/>
<feBlend mode="normal" in="SourceGraphic" in2="effect1_dropShadow_4026_4637" result="shape"/>
</filter>
<linearGradient id="paint0_linear_4026_4637" x1="38.4481" y1="276.827" x2="66.62" y2="276.827" gradientUnits="userSpaceOnUse">
<stop stop-color="#6FBE44"/>
<stop offset="1" stop-color="#30B34A"/>
</linearGradient>
<linearGradient id="paint1_linear_4026_4637" x1="2665.67" y1="1300.02" x2="6035.03" y2="1300.02" gradientUnits="userSpaceOnUse">
<stop stop-color="#6FBE44"/>
<stop offset="1" stop-color="#30B34A"/>
</linearGradient>
<linearGradient id="paint2_linear_4026_4637" x1="1573.7" y1="2186.56" x2="2181.15" y2="2186.56" gradientUnits="userSpaceOnUse">
<stop stop-color="#6FBE44"/>
<stop offset="1" stop-color="#30B34A"/>
</linearGradient>
<linearGradient id="paint3_linear_4026_4637" x1="35.5502" y1="295.292" x2="69.5178" y2="295.292" gradientUnits="userSpaceOnUse">
<stop stop-color="#6F7073"/>
<stop offset="1" stop-color="#8C8F91"/>
</linearGradient>
<linearGradient id="paint4_linear_4026_4637" x1="2787.81" y1="4376.24" x2="7779.82" y2="4376.24" gradientUnits="userSpaceOnUse">
<stop stop-color="#6F7073"/>
<stop offset="1" stop-color="#8C8F91"/>
</linearGradient>
<clipPath id="clip0_4026_4637">
<rect width="513" height="342" fill="white" transform="translate(0 0.5)"/>
</clipPath>
</defs>
</svg>
