<svg width="513" height="343" viewBox="0 0 513 343" fill="none" xmlns="http://www.w3.org/2000/svg">
<g clip-path="url(#clip0_4026_4650)">
<path d="M0 0.5H513V342.5H0V0.5Z" fill="#003E87"/>
<path d="M260.9 290.3C326.567 290.3 379.8 237.067 379.8 171.4C379.8 105.733 326.567 52.5 260.9 52.5C195.233 52.5 142 105.733 142 171.4C142 237.067 195.233 290.3 260.9 290.3Z" fill="white"/>
<path d="M261.9 268.1C314.091 268.1 356.4 225.791 356.4 173.6C356.4 121.409 314.091 79.0996 261.9 79.0996C209.709 79.0996 167.4 121.409 167.4 173.6C167.4 225.791 209.709 268.1 261.9 268.1Z" stroke="#6DA544" stroke-width="18" stroke-miterlimit="10"/>
<path d="M261.9 152L211.3 175.4V195.4C211.3 207.2 217.4 218.2 227.5 224.3L262 239.5L296.5 224.3C306.5 218.1 312.7 207.2 312.7 195.4V175.4L261.9 152Z" fill="#003E87" stroke="black"/>
<path d="M211.3 128.6H312.6V175.3H211.3V128.6Z" fill="#FFDA44" stroke="black"/>
<path d="M0 0.5H513V35.5H0V0.5ZM0 306.5H513V341.5H0V306.5Z" fill="#CE1127"/>
<g filter="url(#filter0_d_4026_4650)">
<rect x="24.5" y="261.668" width="56" height="56" rx="28" fill="white"/>
<path d="M41.786 281.456C41.8103 281.476 41.8412 281.486 41.8731 281.486C41.8976 281.487 41.9218 281.48 41.9428 281.468L51.0207 276.506C51.7702 276.095 53.3012 276.095 54.0516 276.506L63.1237 281.468C63.148 281.481 63.1762 281.488 63.2044 281.486C63.2327 281.483 63.2595 281.473 63.2813 281.456L66.5691 278.91C66.5865 278.897 66.6003 278.879 66.6091 278.859C66.618 278.84 66.6217 278.818 66.62 278.797C66.6178 278.776 66.6104 278.755 66.5984 278.737C66.5864 278.719 66.5702 278.704 66.5511 278.693L56.1745 273.023C55.1713 272.473 53.8759 272.168 52.5361 272.168C51.1964 272.168 49.9009 272.47 48.8961 273.023L38.5171 278.7C38.4974 278.71 38.4808 278.725 38.4688 278.743C38.4567 278.761 38.4496 278.782 38.4481 278.803C38.4465 278.824 38.4502 278.846 38.4589 278.865C38.4676 278.885 38.481 278.903 38.4982 278.916L41.786 281.456Z" fill="url(#paint0_linear_4026_4650)"/>
<path d="M57.6406 285.715C57.6719 285.715 57.7022 285.705 57.7268 285.687L60.7987 283.335C60.8159 283.322 60.8295 283.305 60.8382 283.286C60.8469 283.267 60.8506 283.246 60.8488 283.225C60.847 283.205 60.8399 283.184 60.828 283.167C60.8161 283.149 60.7998 283.135 60.7806 283.125L54.3724 279.66C53.3274 279.094 51.7455 279.093 50.693 279.66L44.2857 283.126C44.2668 283.137 44.2509 283.151 44.2392 283.169C44.2275 283.186 44.2203 283.206 44.2183 283.226C44.2163 283.247 44.2198 283.268 44.2286 283.287C44.2373 283.306 44.251 283.323 44.2684 283.336L47.342 285.684C47.3638 285.701 47.3903 285.711 47.4181 285.713C47.4459 285.715 47.4737 285.709 47.498 285.696C47.498 285.696 52.4235 283.036 52.4564 283.016C52.479 283.003 52.505 282.996 52.5315 282.996C52.558 282.996 52.584 283.003 52.6066 283.016C52.6312 283.032 57.5724 285.701 57.5724 285.701C57.5931 285.713 57.6167 285.718 57.6406 285.718" fill="url(#paint1_linear_4026_4650)"/>
<path d="M49.073 291.535L52.4848 293.402C52.5065 293.413 52.5311 293.42 52.5562 293.419C52.581 293.42 52.6055 293.414 52.6268 293.402L55.9926 291.561C56.014 291.549 56.0317 291.532 56.0441 291.511C56.0564 291.491 56.063 291.467 56.0632 291.444V287.766C56.0629 287.742 56.0562 287.719 56.0439 287.699C56.0315 287.679 56.0139 287.662 55.9926 287.65L52.6268 285.809C52.6051 285.798 52.5806 285.792 52.5558 285.792C52.5309 285.792 52.5065 285.798 52.4848 285.809L49.6862 287.342L49.1313 287.593C49.1069 287.604 49.0863 287.621 49.0718 287.643C49.0572 287.664 49.0494 287.689 49.0492 287.714V290.399L49.0016 291.415C49.0006 291.439 49.0067 291.464 49.0191 291.485C49.0316 291.507 49.0499 291.525 49.0722 291.537" fill="url(#paint2_linear_4026_4650)"/>
<path d="M49.5914 306.506C51.0887 307.249 53.4267 307.517 55.4668 306.506C55.9667 306.249 65.877 300.873 65.877 300.873C67.5952 299.845 69.5178 297.872 69.5178 294.91V283.548C69.5177 283.527 69.5119 283.506 69.501 283.487C69.4901 283.468 69.4745 283.452 69.4554 283.44C69.437 283.428 69.4157 283.42 69.3933 283.418C69.3709 283.415 69.3482 283.418 69.3274 283.426L65.359 284.854C65.3326 284.863 65.3099 284.88 65.2938 284.902C65.2777 284.924 65.2689 284.949 65.2687 284.976C65.2687 284.976 65.3212 294.805 65.2605 295.067C65.1702 295.902 64.451 297.011 63.7532 297.391L54.049 302.698C53.2987 303.109 51.7676 303.109 51.0181 302.698L41.3131 297.391C40.6153 297.009 39.897 295.902 39.8075 295.067C39.7468 294.805 39.7985 284.976 39.7985 284.976C39.7984 284.95 39.7898 284.924 39.7738 284.902C39.7579 284.88 39.7352 284.863 39.709 284.854L35.7406 283.426C35.7194 283.418 35.6963 283.415 35.6733 283.417C35.6504 283.419 35.6283 283.426 35.6091 283.438C35.5899 283.45 35.5742 283.467 35.5634 283.486C35.5525 283.505 35.5468 283.527 35.5469 283.548V294.913C35.5469 297.874 37.4695 299.847 39.1869 300.875C39.1869 300.875 49.0101 306.22 49.5881 306.506" fill="url(#paint3_linear_4026_4650)"/>
<path d="M50.7754 299.586C51.3182 299.853 51.9221 299.99 52.5339 299.984C53.1404 299.99 53.7393 299.856 54.28 299.596L60.8162 296.067C62.0969 295.388 62.6559 294.351 62.6559 293.093V286.15C62.656 286.129 62.6507 286.108 62.6404 286.09C62.6301 286.072 62.6151 286.056 62.5968 286.044C62.5785 286.032 62.5573 286.025 62.5351 286.022C62.513 286.019 62.4905 286.022 62.4696 286.029L58.7573 287.351C58.7315 287.36 58.7092 287.377 58.6934 287.398C58.6775 287.419 58.6689 287.445 58.6687 287.471V292.845C58.6696 292.867 58.664 292.889 58.6526 292.908C58.6411 292.927 58.6242 292.942 58.6038 292.953C58.5603 292.972 52.5757 296.165 52.5757 296.165C52.549 296.176 52.5201 296.182 52.4908 296.182C52.4615 296.182 52.4325 296.176 52.4058 296.165L46.4655 292.951C46.4448 292.94 46.4275 292.925 46.4159 292.906C46.4043 292.886 46.3987 292.865 46.3999 292.842V287.469C46.3998 287.443 46.3913 287.417 46.3756 287.396C46.36 287.374 46.3378 287.358 46.312 287.349L42.5989 286.027C42.5782 286.02 42.5558 286.017 42.5338 286.02C42.5117 286.022 42.4907 286.03 42.4725 286.042C42.454 286.053 42.4389 286.069 42.4284 286.088C42.4179 286.106 42.4125 286.127 42.4126 286.148V293.09C42.4126 294.349 42.9725 295.386 44.2523 296.065L50.7754 299.586Z" fill="url(#paint4_linear_4026_4650)"/>
</g>
</g>
<defs>
<filter id="filter0_d_4026_4650" x="20.5" y="261.668" width="64" height="64" filterUnits="userSpaceOnUse" color-interpolation-filters="sRGB">
<feFlood flood-opacity="0" result="BackgroundImageFix"/>
<feColorMatrix in="SourceAlpha" type="matrix" values="0 0 0 0 0 0 0 0 0 0 0 0 0 0 0 0 0 0 127 0" result="hardAlpha"/>
<feOffset dy="4"/>
<feGaussianBlur stdDeviation="2"/>
<feComposite in2="hardAlpha" operator="out"/>
<feColorMatrix type="matrix" values="0 0 0 0 0 0 0 0 0 0 0 0 0 0 0 0 0 0 0.25 0"/>
<feBlend mode="normal" in2="BackgroundImageFix" result="effect1_dropShadow_4026_4650"/>
<feBlend mode="normal" in="SourceGraphic" in2="effect1_dropShadow_4026_4650" result="shape"/>
</filter>
<linearGradient id="paint0_linear_4026_4650" x1="38.4481" y1="276.828" x2="66.62" y2="276.828" gradientUnits="userSpaceOnUse">
<stop stop-color="#6FBE44"/>
<stop offset="1" stop-color="#30B34A"/>
</linearGradient>
<linearGradient id="paint1_linear_4026_4650" x1="2665.67" y1="1300.02" x2="6035.03" y2="1300.02" gradientUnits="userSpaceOnUse">
<stop stop-color="#6FBE44"/>
<stop offset="1" stop-color="#30B34A"/>
</linearGradient>
<linearGradient id="paint2_linear_4026_4650" x1="1573.7" y1="2186.56" x2="2181.15" y2="2186.56" gradientUnits="userSpaceOnUse">
<stop stop-color="#6FBE44"/>
<stop offset="1" stop-color="#30B34A"/>
</linearGradient>
<linearGradient id="paint3_linear_4026_4650" x1="35.5502" y1="295.293" x2="69.5178" y2="295.293" gradientUnits="userSpaceOnUse">
<stop stop-color="#6F7073"/>
<stop offset="1" stop-color="#8C8F91"/>
</linearGradient>
<linearGradient id="paint4_linear_4026_4650" x1="2787.81" y1="4376.24" x2="7779.82" y2="4376.24" gradientUnits="userSpaceOnUse">
<stop stop-color="#6F7073"/>
<stop offset="1" stop-color="#8C8F91"/>
</linearGradient>
<clipPath id="clip0_4026_4650">
<rect width="513" height="342" fill="white" transform="translate(0 0.5)"/>
</clipPath>
</defs>
</svg>
