<svg width="513" height="343" viewBox="0 0 513 343" fill="none" xmlns="http://www.w3.org/2000/svg">
<g clip-path="url(#clip0_4026_4667)">
<path d="M0 0.5H513V342.5H0V0.5Z" fill="#D21034"/>
<path d="M0 171.5H211.5V256.8H0V171.5ZM300.5 171.5H512V256.8H300.5V171.5Z" fill="#3A9927"/>
<path d="M0 0.5V85.8H211.5V0.5H300.5V85.8H513V0.5H0Z" fill="#003082"/>
<path d="M300.5 85.8008H512V171.101H300.5V85.8008ZM0 85.8008H211.5V171.101H0V85.8008Z" fill="white"/>
<path d="M300.5 342.5H211.5V256.5H0V342.5H513V256.5H300.5V342.5ZM105.7 9.09961L114.3 35.2996H141.8L119.5 51.4996L128.1 77.6996L105.7 61.4996L83.4 77.6996L91.9 51.4996L69.6 35.2996H97.2L105.7 9.09961Z" fill="#FFCE00"/>
<g filter="url(#filter0_d_4026_4667)">
<rect x="24.5" y="270.668" width="56" height="56" rx="28" fill="white"/>
<path d="M41.786 290.456C41.8103 290.476 41.8412 290.486 41.8731 290.486C41.8976 290.487 41.9218 290.48 41.9428 290.468L51.0207 285.506C51.7702 285.095 53.3012 285.095 54.0516 285.506L63.1237 290.468C63.148 290.481 63.1762 290.488 63.2044 290.486C63.2327 290.483 63.2595 290.473 63.2813 290.456L66.5691 287.91C66.5865 287.897 66.6003 287.879 66.6091 287.859C66.618 287.84 66.6217 287.818 66.62 287.797C66.6178 287.776 66.6104 287.755 66.5984 287.737C66.5864 287.719 66.5702 287.704 66.5511 287.693L56.1745 282.023C55.1713 281.473 53.8759 281.168 52.5361 281.168C51.1964 281.168 49.9009 281.47 48.8961 282.023L38.5171 287.7C38.4974 287.71 38.4808 287.725 38.4688 287.743C38.4567 287.761 38.4496 287.782 38.4481 287.803C38.4465 287.824 38.4502 287.846 38.4589 287.865C38.4676 287.885 38.481 287.903 38.4982 287.916L41.786 290.456Z" fill="url(#paint0_linear_4026_4667)"/>
<path d="M57.6406 294.714C57.6719 294.714 57.7022 294.704 57.7268 294.686L60.7987 292.334C60.8159 292.321 60.8295 292.304 60.8382 292.285C60.8469 292.266 60.8506 292.245 60.8488 292.224C60.847 292.204 60.8399 292.184 60.828 292.166C60.8161 292.148 60.7998 292.134 60.7806 292.124L54.3724 288.66C53.3274 288.093 51.7455 288.092 50.693 288.66L44.2857 292.125C44.2668 292.136 44.2509 292.15 44.2392 292.168C44.2275 292.185 44.2203 292.205 44.2183 292.225C44.2163 292.246 44.2198 292.267 44.2286 292.286C44.2373 292.305 44.251 292.322 44.2684 292.335L47.342 294.683C47.3638 294.7 47.3903 294.71 47.4181 294.712C47.4459 294.714 47.4737 294.708 47.498 294.695C47.498 294.695 52.4235 292.035 52.4564 292.015C52.479 292.002 52.505 291.995 52.5315 291.995C52.558 291.995 52.584 292.002 52.6066 292.015C52.6312 292.031 57.5724 294.7 57.5724 294.7C57.5931 294.712 57.6167 294.717 57.6406 294.717" fill="url(#paint1_linear_4026_4667)"/>
<path d="M49.073 300.536L52.4848 302.403C52.5065 302.414 52.5311 302.421 52.5562 302.42C52.581 302.421 52.6055 302.415 52.6268 302.403L55.9926 300.562C56.014 300.55 56.0317 300.533 56.0441 300.512C56.0564 300.492 56.063 300.468 56.0632 300.445V296.767C56.0629 296.743 56.0562 296.72 56.0439 296.7C56.0315 296.68 56.0139 296.663 55.9926 296.651L52.6268 294.81C52.6051 294.799 52.5806 294.793 52.5558 294.793C52.5309 294.793 52.5065 294.799 52.4848 294.81L49.6862 296.343L49.1313 296.594C49.1069 296.605 49.0863 296.622 49.0718 296.644C49.0572 296.665 49.0494 296.69 49.0492 296.715V299.4L49.0016 300.416C49.0006 300.44 49.0067 300.465 49.0191 300.486C49.0316 300.508 49.0499 300.526 49.0722 300.538" fill="url(#paint2_linear_4026_4667)"/>
<path d="M49.5914 315.506C51.0887 316.249 53.4267 316.517 55.4668 315.506C55.9667 315.249 65.877 309.873 65.877 309.873C67.5952 308.845 69.5178 306.872 69.5178 303.91V292.548C69.5177 292.527 69.5119 292.506 69.501 292.487C69.4901 292.468 69.4745 292.452 69.4554 292.44C69.437 292.428 69.4157 292.42 69.3933 292.418C69.3709 292.415 69.3482 292.418 69.3274 292.426L65.359 293.854C65.3326 293.863 65.3099 293.88 65.2938 293.902C65.2777 293.924 65.2689 293.949 65.2687 293.976C65.2687 293.976 65.3212 303.805 65.2605 304.067C65.1702 304.902 64.451 306.011 63.7532 306.391L54.049 311.698C53.2987 312.109 51.7676 312.109 51.0181 311.698L41.3131 306.391C40.6153 306.009 39.897 304.902 39.8075 304.067C39.7468 303.805 39.7985 293.976 39.7985 293.976C39.7984 293.95 39.7898 293.924 39.7738 293.902C39.7579 293.88 39.7352 293.863 39.709 293.854L35.7406 292.426C35.7194 292.418 35.6963 292.415 35.6733 292.417C35.6504 292.419 35.6283 292.426 35.6091 292.438C35.5899 292.45 35.5742 292.467 35.5634 292.486C35.5525 292.505 35.5468 292.527 35.5469 292.548V303.913C35.5469 306.874 37.4695 308.847 39.1869 309.875C39.1869 309.875 49.0101 315.22 49.5881 315.506" fill="url(#paint3_linear_4026_4667)"/>
<path d="M50.7754 308.586C51.3182 308.854 51.9221 308.991 52.5339 308.985C53.1404 308.99 53.7393 308.857 54.28 308.597L60.8162 305.068C62.0969 304.389 62.6559 303.352 62.6559 302.094V295.151C62.656 295.13 62.6507 295.109 62.6404 295.091C62.6301 295.073 62.6151 295.057 62.5968 295.045C62.5785 295.033 62.5573 295.026 62.5351 295.023C62.513 295.02 62.4905 295.023 62.4696 295.03L58.7573 296.352C58.7315 296.361 58.7092 296.378 58.6934 296.399C58.6775 296.42 58.6689 296.446 58.6687 296.472V301.846C58.6696 301.868 58.664 301.889 58.6526 301.909C58.6411 301.928 58.6242 301.943 58.6038 301.954C58.5603 301.973 52.5757 305.166 52.5757 305.166C52.549 305.177 52.5201 305.183 52.4908 305.183C52.4615 305.183 52.4325 305.177 52.4058 305.166L46.4655 301.952C46.4448 301.941 46.4275 301.926 46.4159 301.907C46.4043 301.887 46.3987 301.866 46.3999 301.843V296.47C46.3998 296.444 46.3913 296.418 46.3756 296.397C46.36 296.375 46.3378 296.359 46.312 296.35L42.5989 295.028C42.5782 295.021 42.5558 295.018 42.5338 295.02C42.5117 295.023 42.4907 295.031 42.4725 295.043C42.454 295.054 42.4389 295.07 42.4284 295.089C42.4179 295.107 42.4125 295.128 42.4126 295.149V302.091C42.4126 303.35 42.9725 304.387 44.2523 305.066L50.7754 308.586Z" fill="url(#paint4_linear_4026_4667)"/>
</g>
</g>
<defs>
<filter id="filter0_d_4026_4667" x="20.5" y="270.668" width="64" height="64" filterUnits="userSpaceOnUse" color-interpolation-filters="sRGB">
<feFlood flood-opacity="0" result="BackgroundImageFix"/>
<feColorMatrix in="SourceAlpha" type="matrix" values="0 0 0 0 0 0 0 0 0 0 0 0 0 0 0 0 0 0 127 0" result="hardAlpha"/>
<feOffset dy="4"/>
<feGaussianBlur stdDeviation="2"/>
<feComposite in2="hardAlpha" operator="out"/>
<feColorMatrix type="matrix" values="0 0 0 0 0 0 0 0 0 0 0 0 0 0 0 0 0 0 0.25 0"/>
<feBlend mode="normal" in2="BackgroundImageFix" result="effect1_dropShadow_4026_4667"/>
<feBlend mode="normal" in="SourceGraphic" in2="effect1_dropShadow_4026_4667" result="shape"/>
</filter>
<linearGradient id="paint0_linear_4026_4667" x1="38.4481" y1="285.828" x2="66.62" y2="285.828" gradientUnits="userSpaceOnUse">
<stop stop-color="#6FBE44"/>
<stop offset="1" stop-color="#30B34A"/>
</linearGradient>
<linearGradient id="paint1_linear_4026_4667" x1="2665.67" y1="1309.02" x2="6035.03" y2="1309.02" gradientUnits="userSpaceOnUse">
<stop stop-color="#6FBE44"/>
<stop offset="1" stop-color="#30B34A"/>
</linearGradient>
<linearGradient id="paint2_linear_4026_4667" x1="1573.7" y1="2195.57" x2="2181.15" y2="2195.57" gradientUnits="userSpaceOnUse">
<stop stop-color="#6FBE44"/>
<stop offset="1" stop-color="#30B34A"/>
</linearGradient>
<linearGradient id="paint3_linear_4026_4667" x1="35.5502" y1="304.293" x2="69.5178" y2="304.293" gradientUnits="userSpaceOnUse">
<stop stop-color="#6F7073"/>
<stop offset="1" stop-color="#8C8F91"/>
</linearGradient>
<linearGradient id="paint4_linear_4026_4667" x1="2787.81" y1="4385.24" x2="7779.82" y2="4385.24" gradientUnits="userSpaceOnUse">
<stop stop-color="#6F7073"/>
<stop offset="1" stop-color="#8C8F91"/>
</linearGradient>
<clipPath id="clip0_4026_4667">
<rect width="513" height="342" fill="white" transform="translate(0 0.5)"/>
</clipPath>
</defs>
</svg>
