<svg width="513" height="343" viewBox="0 0 513 343" fill="none" xmlns="http://www.w3.org/2000/svg">
<g clip-path="url(#clip0_4026_4753)">
<path d="M0 0.5H513V342.5H0V0.5Z" fill="#003893"/>
<path d="M0 182.699H513V224.099H0V182.699Z" fill="#CF2027"/>
<path d="M0 141.301H513V182.701H0V141.301ZM0 224.101H513V265.501H0V224.101Z" fill="white"/>
<path d="M150.4 70.5L157.3 91.6H179.5L161.5 104.7L168.4 125.8L150.4 112.7L132.5 125.8L139.3 104.7L121.4 91.6H143.6L150.4 70.5ZM150.4 280.2L157.3 301.3H179.5L161.5 314.3L168.4 335.5L150.4 322.4L132.5 335.5L139.3 314.3L121.4 301.3H143.6L150.4 280.2ZM52.7998 209.3L59.6998 230.4H81.8998L63.8998 243.4L70.7998 264.6L52.7998 251.5L34.8998 264.6L41.6998 243.4L23.7998 230.4H45.9998L52.7998 209.3ZM90.0998 91.5L96.9998 112.6H119.2L101.2 125.6L108.1 146.8L90.0998 133.7L72.1998 146.8L78.9998 125.6L60.9998 112.6H83.2998L90.0998 91.5ZM23.7998 162.5H45.9998L52.7998 141.4L59.6998 162.5H81.8998L63.8998 175.6L70.7998 196.7L52.7998 183.7L34.8998 196.7L41.6998 175.6L23.7998 162.5ZM72.1998 311.4L78.9998 290.3L60.9998 277.3H83.2998L90.0998 256.1L96.9998 277.3H119.2L101.2 290.3L108.1 311.4L90.0998 298.4L72.1998 311.4ZM248 209.3L241.1 230.4H218.9L236.9 243.4L230 264.6L248 251.5L266 264.6L259.1 243.4L277.1 230.4H254.9L248 209.3ZM210.7 91.5L203.9 112.6H181.7L199.6 125.6L192.8 146.8L210.7 133.7L228.7 146.8L221.8 125.6L239.8 112.6H217.6L210.7 91.5ZM277.1 162.5H254.9L248 141.4L241.1 162.5H218.9L236.9 175.6L230 196.7L248 183.7L266 196.7L259.1 175.6L277.1 162.5ZM228.7 311.4L221.8 290.3L239.8 277.3H217.6L210.7 256.1L203.9 277.3H181.7L199.6 290.3L192.8 311.4L210.7 298.4L228.7 311.4Z" fill="#F7D116" stroke="black"/>
<g filter="url(#filter0_d_4026_4753)">
<rect x="24.5" y="261.668" width="56" height="56" rx="28" fill="white"/>
<path d="M41.786 281.456C41.8103 281.476 41.8412 281.486 41.8731 281.486C41.8976 281.487 41.9218 281.48 41.9428 281.468L51.0207 276.506C51.7702 276.095 53.3012 276.095 54.0516 276.506L63.1237 281.468C63.148 281.481 63.1762 281.488 63.2044 281.486C63.2327 281.483 63.2595 281.473 63.2813 281.456L66.5691 278.91C66.5865 278.897 66.6003 278.879 66.6091 278.859C66.618 278.84 66.6217 278.818 66.62 278.797C66.6178 278.776 66.6104 278.755 66.5984 278.737C66.5864 278.719 66.5702 278.704 66.5511 278.693L56.1745 273.023C55.1713 272.473 53.8759 272.168 52.5361 272.168C51.1964 272.168 49.9009 272.47 48.8961 273.023L38.5171 278.7C38.4974 278.71 38.4808 278.725 38.4688 278.743C38.4567 278.761 38.4496 278.782 38.4481 278.803C38.4465 278.824 38.4502 278.846 38.4589 278.865C38.4676 278.885 38.481 278.903 38.4982 278.916L41.786 281.456Z" fill="url(#paint0_linear_4026_4753)"/>
<path d="M57.6406 285.714C57.6719 285.714 57.7022 285.704 57.7268 285.686L60.7987 283.334C60.8159 283.321 60.8295 283.304 60.8382 283.285C60.8469 283.266 60.8506 283.245 60.8488 283.224C60.847 283.204 60.8399 283.184 60.828 283.166C60.8161 283.148 60.7998 283.134 60.7806 283.124L54.3724 279.66C53.3274 279.093 51.7455 279.092 50.693 279.66L44.2857 283.125C44.2668 283.136 44.2509 283.15 44.2392 283.168C44.2275 283.185 44.2203 283.205 44.2183 283.225C44.2163 283.246 44.2198 283.267 44.2286 283.286C44.2373 283.305 44.251 283.322 44.2684 283.335L47.342 285.683C47.3638 285.7 47.3903 285.71 47.4181 285.712C47.4459 285.714 47.4737 285.708 47.498 285.695C47.498 285.695 52.4235 283.035 52.4564 283.015C52.479 283.002 52.505 282.995 52.5315 282.995C52.558 282.995 52.584 283.002 52.6066 283.015C52.6312 283.031 57.5724 285.7 57.5724 285.7C57.5931 285.712 57.6167 285.717 57.6406 285.717" fill="url(#paint1_linear_4026_4753)"/>
<path d="M49.073 291.536L52.4848 293.403C52.5065 293.414 52.5311 293.421 52.5562 293.42C52.581 293.421 52.6055 293.415 52.6268 293.403L55.9926 291.562C56.014 291.55 56.0317 291.533 56.0441 291.512C56.0564 291.492 56.063 291.468 56.0632 291.445V287.767C56.0629 287.743 56.0562 287.72 56.0439 287.7C56.0315 287.68 56.0139 287.663 55.9926 287.651L52.6268 285.81C52.6051 285.799 52.5806 285.793 52.5558 285.793C52.5309 285.793 52.5065 285.799 52.4848 285.81L49.6862 287.343L49.1313 287.594C49.1069 287.605 49.0863 287.622 49.0718 287.644C49.0572 287.665 49.0494 287.69 49.0492 287.715V290.4L49.0016 291.416C49.0006 291.44 49.0067 291.465 49.0191 291.486C49.0316 291.508 49.0499 291.526 49.0722 291.538" fill="url(#paint2_linear_4026_4753)"/>
<path d="M49.5914 306.506C51.0887 307.249 53.4267 307.517 55.4668 306.506C55.9667 306.249 65.877 300.873 65.877 300.873C67.5952 299.845 69.5178 297.872 69.5178 294.91V283.548C69.5177 283.527 69.5119 283.506 69.501 283.487C69.4901 283.468 69.4745 283.452 69.4554 283.44C69.437 283.428 69.4157 283.42 69.3933 283.418C69.3709 283.415 69.3482 283.418 69.3274 283.426L65.359 284.854C65.3326 284.863 65.3099 284.88 65.2938 284.902C65.2777 284.924 65.2689 284.949 65.2687 284.976C65.2687 284.976 65.3212 294.805 65.2605 295.067C65.1702 295.902 64.451 297.011 63.7532 297.391L54.049 302.698C53.2987 303.109 51.7676 303.109 51.0181 302.698L41.3131 297.391C40.6153 297.009 39.897 295.902 39.8075 295.067C39.7468 294.805 39.7985 284.976 39.7985 284.976C39.7984 284.95 39.7898 284.924 39.7738 284.902C39.7579 284.88 39.7352 284.863 39.709 284.854L35.7406 283.426C35.7194 283.418 35.6963 283.415 35.6733 283.417C35.6504 283.419 35.6283 283.426 35.6091 283.438C35.5899 283.45 35.5742 283.467 35.5634 283.486C35.5525 283.505 35.5468 283.527 35.5469 283.548V294.913C35.5469 297.874 37.4695 299.847 39.1869 300.875C39.1869 300.875 49.0101 306.22 49.5881 306.506" fill="url(#paint3_linear_4026_4753)"/>
<path d="M50.7754 299.586C51.3182 299.854 51.9221 299.991 52.5339 299.985C53.1404 299.99 53.7393 299.857 54.28 299.597L60.8162 296.068C62.0969 295.389 62.6559 294.352 62.6559 293.094V286.151C62.656 286.13 62.6507 286.109 62.6404 286.091C62.6301 286.073 62.6151 286.057 62.5968 286.045C62.5785 286.033 62.5573 286.026 62.5351 286.023C62.513 286.02 62.4905 286.023 62.4696 286.03L58.7573 287.352C58.7315 287.361 58.7092 287.378 58.6934 287.399C58.6775 287.42 58.6689 287.446 58.6687 287.472V292.846C58.6696 292.868 58.664 292.889 58.6526 292.909C58.6411 292.928 58.6242 292.943 58.6038 292.954C58.5603 292.973 52.5757 296.166 52.5757 296.166C52.549 296.177 52.5201 296.183 52.4908 296.183C52.4615 296.183 52.4325 296.177 52.4058 296.166L46.4655 292.952C46.4448 292.941 46.4275 292.926 46.4159 292.907C46.4043 292.887 46.3987 292.866 46.3999 292.843V287.47C46.3998 287.444 46.3913 287.418 46.3756 287.397C46.36 287.375 46.3378 287.359 46.312 287.35L42.5989 286.028C42.5782 286.021 42.5558 286.018 42.5338 286.02C42.5117 286.023 42.4907 286.031 42.4725 286.043C42.454 286.054 42.4389 286.07 42.4284 286.089C42.4179 286.107 42.4125 286.128 42.4126 286.149V293.091C42.4126 294.35 42.9725 295.387 44.2523 296.066L50.7754 299.586Z" fill="url(#paint4_linear_4026_4753)"/>
</g>
</g>
<defs>
<filter id="filter0_d_4026_4753" x="20.5" y="261.668" width="64" height="64" filterUnits="userSpaceOnUse" color-interpolation-filters="sRGB">
<feFlood flood-opacity="0" result="BackgroundImageFix"/>
<feColorMatrix in="SourceAlpha" type="matrix" values="0 0 0 0 0 0 0 0 0 0 0 0 0 0 0 0 0 0 127 0" result="hardAlpha"/>
<feOffset dy="4"/>
<feGaussianBlur stdDeviation="2"/>
<feComposite in2="hardAlpha" operator="out"/>
<feColorMatrix type="matrix" values="0 0 0 0 0 0 0 0 0 0 0 0 0 0 0 0 0 0 0.25 0"/>
<feBlend mode="normal" in2="BackgroundImageFix" result="effect1_dropShadow_4026_4753"/>
<feBlend mode="normal" in="SourceGraphic" in2="effect1_dropShadow_4026_4753" result="shape"/>
</filter>
<linearGradient id="paint0_linear_4026_4753" x1="38.4481" y1="276.828" x2="66.62" y2="276.828" gradientUnits="userSpaceOnUse">
<stop stop-color="#6FBE44"/>
<stop offset="1" stop-color="#30B34A"/>
</linearGradient>
<linearGradient id="paint1_linear_4026_4753" x1="2665.67" y1="1300.02" x2="6035.03" y2="1300.02" gradientUnits="userSpaceOnUse">
<stop stop-color="#6FBE44"/>
<stop offset="1" stop-color="#30B34A"/>
</linearGradient>
<linearGradient id="paint2_linear_4026_4753" x1="1573.7" y1="2186.57" x2="2181.15" y2="2186.57" gradientUnits="userSpaceOnUse">
<stop stop-color="#6FBE44"/>
<stop offset="1" stop-color="#30B34A"/>
</linearGradient>
<linearGradient id="paint3_linear_4026_4753" x1="35.5502" y1="295.293" x2="69.5178" y2="295.293" gradientUnits="userSpaceOnUse">
<stop stop-color="#6F7073"/>
<stop offset="1" stop-color="#8C8F91"/>
</linearGradient>
<linearGradient id="paint4_linear_4026_4753" x1="2787.81" y1="4376.24" x2="7779.82" y2="4376.24" gradientUnits="userSpaceOnUse">
<stop stop-color="#6F7073"/>
<stop offset="1" stop-color="#8C8F91"/>
</linearGradient>
<clipPath id="clip0_4026_4753">
<rect width="513" height="342" fill="white" transform="translate(0 0.5)"/>
</clipPath>
</defs>
</svg>
