<svg width="513" height="343" viewBox="0 0 513 343" fill="none" xmlns="http://www.w3.org/2000/svg">
<g clip-path="url(#clip0_4026_5046)">
<path fill-rule="evenodd" clip-rule="evenodd" d="M0 -11.7148H513V354.714H0V-11.7148Z" fill="white"/>
<path fill-rule="evenodd" clip-rule="evenodd" d="M0 -11.7148H513V354.714H0V-11.7148Z" fill="#EE1C25"/>
<path fill-rule="evenodd" clip-rule="evenodd" d="M293.143 163.925C273.649 151.71 268.714 173.916 268.714 163.925C268.714 143.698 290.578 127.282 317.571 127.282C344.565 127.282 366.428 143.698 366.428 163.925C343.246 163.925 340.925 176.139 329.786 176.139C316.106 176.139 312.637 176.139 293.143 163.925ZM323.678 159.283C325.298 159.283 326.852 158.64 327.997 157.495C329.142 156.349 329.786 154.796 329.786 153.176C329.786 151.556 329.142 150.003 327.997 148.858C326.852 147.712 325.298 147.069 323.678 147.069C322.059 147.069 320.505 147.712 319.36 148.858C318.215 150.003 317.571 151.556 317.571 153.176C317.571 154.796 318.215 156.349 319.36 157.495C320.505 158.64 322.059 159.283 323.678 159.283ZM279.463 207.212C285.032 184.909 262.412 187.083 271.89 184.005C291.14 177.727 313.492 193.459 321.846 219.133C330.176 244.783 321.333 270.678 302.084 276.931C294.926 254.872 282.59 256.46 279.145 245.858C274.919 232.838 273.869 229.54 279.463 207.212ZM293.289 234.816C293.536 235.58 293.931 236.287 294.452 236.898C294.972 237.509 295.608 238.011 296.322 238.377C297.037 238.742 297.816 238.963 298.616 239.027C299.416 239.091 300.221 238.996 300.984 238.749C301.748 238.502 302.455 238.107 303.066 237.587C303.677 237.067 304.179 236.431 304.544 235.716C304.91 235.002 305.131 234.222 305.195 233.423C305.259 232.623 305.164 231.818 304.917 231.054C304.418 229.512 303.327 228.232 301.884 227.494C300.441 226.757 298.764 226.623 297.222 227.121C295.68 227.62 294.4 228.711 293.662 230.154C292.925 231.597 292.79 233.274 293.289 234.816ZM234.026 207.579C256.988 205.991 247.95 185.129 253.813 193.215C265.685 209.582 257.648 235.72 235.809 251.574C213.97 267.453 186.634 267.013 174.737 250.646C193.499 237.015 188.173 225.778 197.212 219.231C208.278 211.17 211.087 209.142 234.026 207.579ZM212.064 229.271C211.415 229.743 210.864 230.338 210.445 231.022C210.025 231.706 209.744 232.466 209.618 233.259C209.492 234.052 209.524 234.862 209.711 235.643C209.898 236.423 210.237 237.159 210.708 237.809C211.18 238.459 211.775 239.009 212.459 239.429C213.144 239.848 213.904 240.129 214.697 240.255C215.489 240.381 216.299 240.349 217.08 240.162C217.861 239.975 218.597 239.636 219.246 239.165C220.558 238.212 221.438 236.778 221.692 235.177C221.947 233.575 221.554 231.939 220.602 230.627C219.65 229.315 218.215 228.435 216.614 228.181C215.013 227.927 213.376 228.319 212.064 229.271ZM219.686 164.487C228.26 185.837 245.312 170.789 239.449 178.851C227.552 195.218 200.216 195.633 178.377 179.779C156.538 163.9 148.501 137.786 160.398 121.395C179.135 135.05 188.198 126.525 197.212 133.071C208.278 141.133 211.087 143.16 219.686 164.487ZM192.228 150.318C191.585 149.788 190.84 149.396 190.039 149.165C189.238 148.934 188.398 148.87 187.572 148.976C186.745 149.081 185.949 149.355 185.232 149.781C184.515 150.206 183.893 150.773 183.403 151.448C182.914 152.123 182.568 152.89 182.387 153.704C182.205 154.517 182.192 155.359 182.348 156.178C182.504 156.997 182.827 157.775 183.295 158.464C183.763 159.154 184.367 159.74 185.071 160.187C186.383 161.021 187.964 161.324 189.492 161.032C191.019 160.741 192.378 159.878 193.291 158.619C194.204 157.36 194.602 155.8 194.405 154.258C194.207 152.715 193.429 151.306 192.228 150.318ZM256.207 137.517C238.569 152.297 258.161 163.851 248.658 160.749C229.409 154.495 220.565 128.625 228.896 102.975C237.25 77.3254 259.602 61.569 278.852 67.8227C271.694 89.8817 282.59 95.8423 279.145 106.444C274.919 119.465 273.844 122.763 256.207 137.517ZM261.215 107.055C261.498 106.284 261.624 105.464 261.583 104.644C261.543 103.824 261.338 103.02 260.979 102.281C260.621 101.542 260.118 100.883 259.499 100.343C258.88 99.8031 258.159 99.3935 257.378 99.1387C256.597 98.8839 255.773 98.7893 254.955 98.8603C254.137 98.9314 253.342 99.1667 252.617 99.5523C251.891 99.9378 251.252 100.466 250.735 101.104C250.219 101.743 249.836 102.479 249.611 103.269C249.177 104.788 249.35 106.416 250.091 107.812C250.833 109.207 252.087 110.26 253.589 110.75C255.091 111.241 256.725 111.129 258.147 110.44C259.569 109.751 260.669 108.538 261.215 107.055Z" fill="white"/>
<g filter="url(#filter0_d_4026_5046)">
<rect x="24" y="261.668" width="56" height="56" rx="28" fill="white"/>
<path d="M41.286 281.456C41.3103 281.476 41.3412 281.486 41.3731 281.486C41.3976 281.487 41.4218 281.48 41.4428 281.468L50.5207 276.506C51.2702 276.095 52.8012 276.095 53.5516 276.506L62.6237 281.468C62.648 281.481 62.6762 281.488 62.7044 281.486C62.7327 281.483 62.7595 281.473 62.7813 281.456L66.0691 278.91C66.0865 278.897 66.1003 278.879 66.1091 278.859C66.118 278.84 66.1217 278.818 66.12 278.797C66.1178 278.776 66.1104 278.755 66.0984 278.737C66.0864 278.719 66.0702 278.704 66.0511 278.693L55.6745 273.023C54.6713 272.473 53.3759 272.168 52.0361 272.168C50.6964 272.168 49.4009 272.47 48.3961 273.023L38.0171 278.7C37.9974 278.71 37.9808 278.725 37.9688 278.743C37.9567 278.761 37.9496 278.782 37.9481 278.803C37.9465 278.824 37.9502 278.846 37.9589 278.865C37.9676 278.885 37.981 278.903 37.9982 278.916L41.286 281.456Z" fill="url(#paint0_linear_4026_5046)"/>
<path d="M57.1406 285.714C57.1719 285.714 57.2022 285.704 57.2268 285.686L60.2987 283.334C60.3159 283.321 60.3295 283.304 60.3382 283.285C60.3469 283.266 60.3506 283.245 60.3488 283.224C60.347 283.204 60.3399 283.184 60.328 283.166C60.3161 283.148 60.2998 283.134 60.2806 283.124L53.8724 279.66C52.8274 279.093 51.2455 279.092 50.193 279.66L43.7857 283.125C43.7668 283.136 43.7509 283.15 43.7392 283.168C43.7275 283.185 43.7203 283.205 43.7183 283.225C43.7163 283.246 43.7198 283.267 43.7286 283.286C43.7373 283.305 43.751 283.322 43.7684 283.335L46.842 285.683C46.8638 285.7 46.8903 285.71 46.9181 285.712C46.9459 285.714 46.9737 285.708 46.998 285.695C46.998 285.695 51.9235 283.035 51.9564 283.015C51.979 283.002 52.005 282.995 52.0315 282.995C52.058 282.995 52.084 283.002 52.1066 283.015C52.1312 283.031 57.0724 285.7 57.0724 285.7C57.0931 285.712 57.1167 285.717 57.1406 285.717" fill="url(#paint1_linear_4026_5046)"/>
<path d="M48.573 291.536L51.9848 293.403C52.0065 293.414 52.0311 293.421 52.0562 293.42C52.081 293.421 52.1055 293.415 52.1268 293.403L55.4926 291.562C55.514 291.55 55.5317 291.533 55.5441 291.512C55.5564 291.492 55.563 291.468 55.5632 291.445V287.767C55.5629 287.743 55.5562 287.72 55.5439 287.7C55.5315 287.68 55.5139 287.663 55.4926 287.651L52.1268 285.81C52.1051 285.799 52.0806 285.793 52.0558 285.793C52.0309 285.793 52.0065 285.799 51.9848 285.81L49.1862 287.343L48.6313 287.594C48.6069 287.605 48.5863 287.622 48.5718 287.644C48.5572 287.665 48.5494 287.69 48.5492 287.715V290.4L48.5016 291.416C48.5006 291.44 48.5067 291.465 48.5191 291.486C48.5316 291.508 48.5499 291.526 48.5722 291.538" fill="url(#paint2_linear_4026_5046)"/>
<path d="M49.0914 306.508C50.5887 307.251 52.9267 307.519 54.9668 306.508C55.4667 306.251 65.377 300.875 65.377 300.875C67.0952 299.847 69.0178 297.874 69.0178 294.912V283.55C69.0177 283.529 69.0119 283.508 69.001 283.489C68.9901 283.47 68.9745 283.454 68.9554 283.442C68.937 283.43 68.9157 283.422 68.8933 283.42C68.8709 283.417 68.8482 283.42 68.8274 283.428L64.859 284.856C64.8326 284.865 64.8099 284.882 64.7938 284.904C64.7777 284.925 64.7689 284.951 64.7687 284.978C64.7687 284.978 64.8212 294.806 64.7605 295.069C64.6702 295.904 63.951 297.013 63.2532 297.393L53.549 302.7C52.7987 303.111 51.2676 303.111 50.5181 302.7L40.8131 297.393C40.1153 297.011 39.397 295.904 39.3075 295.069C39.2468 294.806 39.2985 284.978 39.2985 284.978C39.2984 284.951 39.2898 284.926 39.2738 284.904C39.2579 284.882 39.2352 284.865 39.209 284.856L35.2406 283.428C35.2194 283.42 35.1963 283.417 35.1733 283.419C35.1504 283.421 35.1283 283.428 35.1091 283.44C35.0899 283.452 35.0742 283.469 35.0634 283.488C35.0525 283.507 35.0468 283.529 35.0469 283.55V294.915C35.0469 297.876 36.9695 299.849 38.6869 300.877C38.6869 300.877 48.5101 306.222 49.0881 306.508" fill="url(#paint3_linear_4026_5046)"/>
<path d="M50.2754 299.586C50.8182 299.854 51.4221 299.991 52.0339 299.985C52.6404 299.99 53.2393 299.857 53.78 299.597L60.3162 296.068C61.5969 295.389 62.1559 294.352 62.1559 293.094V286.151C62.156 286.13 62.1507 286.109 62.1404 286.091C62.1301 286.073 62.1151 286.057 62.0968 286.045C62.0785 286.033 62.0573 286.026 62.0351 286.023C62.013 286.02 61.9905 286.023 61.9696 286.03L58.2573 287.352C58.2315 287.361 58.2092 287.378 58.1934 287.399C58.1775 287.42 58.1689 287.446 58.1687 287.472V292.846C58.1696 292.868 58.164 292.889 58.1526 292.909C58.1411 292.928 58.1242 292.943 58.1038 292.954C58.0603 292.973 52.0757 296.166 52.0757 296.166C52.049 296.177 52.0201 296.183 51.9908 296.183C51.9615 296.183 51.9325 296.177 51.9058 296.166L45.9655 292.952C45.9448 292.941 45.9275 292.926 45.9159 292.907C45.9043 292.887 45.8987 292.866 45.8999 292.843V287.47C45.8998 287.444 45.8913 287.418 45.8756 287.397C45.86 287.375 45.8378 287.359 45.812 287.35L42.0989 286.028C42.0782 286.021 42.0558 286.018 42.0338 286.02C42.0117 286.023 41.9907 286.031 41.9725 286.043C41.954 286.054 41.9389 286.07 41.9284 286.089C41.9179 286.107 41.9125 286.128 41.9126 286.149V293.091C41.9126 294.35 42.4725 295.387 43.7523 296.066L50.2754 299.586Z" fill="url(#paint4_linear_4026_5046)"/>
</g>
</g>
<defs>
<filter id="filter0_d_4026_5046" x="20" y="261.668" width="64" height="64" filterUnits="userSpaceOnUse" color-interpolation-filters="sRGB">
<feFlood flood-opacity="0" result="BackgroundImageFix"/>
<feColorMatrix in="SourceAlpha" type="matrix" values="0 0 0 0 0 0 0 0 0 0 0 0 0 0 0 0 0 0 127 0" result="hardAlpha"/>
<feOffset dy="4"/>
<feGaussianBlur stdDeviation="2"/>
<feComposite in2="hardAlpha" operator="out"/>
<feColorMatrix type="matrix" values="0 0 0 0 0 0 0 0 0 0 0 0 0 0 0 0 0 0 0.25 0"/>
<feBlend mode="normal" in2="BackgroundImageFix" result="effect1_dropShadow_4026_5046"/>
<feBlend mode="normal" in="SourceGraphic" in2="effect1_dropShadow_4026_5046" result="shape"/>
</filter>
<linearGradient id="paint0_linear_4026_5046" x1="37.9481" y1="276.828" x2="66.12" y2="276.828" gradientUnits="userSpaceOnUse">
<stop stop-color="#6FBE44"/>
<stop offset="1" stop-color="#30B34A"/>
</linearGradient>
<linearGradient id="paint1_linear_4026_5046" x1="2665.17" y1="1300.02" x2="6034.53" y2="1300.02" gradientUnits="userSpaceOnUse">
<stop stop-color="#6FBE44"/>
<stop offset="1" stop-color="#30B34A"/>
</linearGradient>
<linearGradient id="paint2_linear_4026_5046" x1="1573.2" y1="2186.57" x2="2180.65" y2="2186.57" gradientUnits="userSpaceOnUse">
<stop stop-color="#6FBE44"/>
<stop offset="1" stop-color="#30B34A"/>
</linearGradient>
<linearGradient id="paint3_linear_4026_5046" x1="35.0502" y1="295.295" x2="69.0178" y2="295.295" gradientUnits="userSpaceOnUse">
<stop stop-color="#6F7073"/>
<stop offset="1" stop-color="#8C8F91"/>
</linearGradient>
<linearGradient id="paint4_linear_4026_5046" x1="2787.31" y1="4376.24" x2="7779.32" y2="4376.24" gradientUnits="userSpaceOnUse">
<stop stop-color="#6F7073"/>
<stop offset="1" stop-color="#8C8F91"/>
</linearGradient>
<clipPath id="clip0_4026_5046">
<rect width="513" height="342" fill="white" transform="translate(0 0.5)"/>
</clipPath>
</defs>
</svg>
