<svg width="513" height="343" viewBox="0 0 513 343" fill="none" xmlns="http://www.w3.org/2000/svg">
<g clip-path="url(#clip0_4026_5120)">
<path d="M0 0.199219H513V342.499H0V0.199219Z" fill="white"/>
<path d="M462.9 198.599C458.9 198.599 448.9 193.599 441.9 189.599C430.9 183.599 420.9 177.599 410.8 177.599C400.7 177.599 390.8 183.599 379.7 189.599C372.7 193.599 363.7 198.599 359.7 198.599C355.7 198.599 345.7 193.599 339.7 189.599C328.7 183.599 317.7 177.599 307.6 177.599C298.6 177.599 287.6 183.599 276.5 189.599C269.5 193.599 260.5 198.599 256.5 198.599C252.5 198.599 243.5 193.599 236.5 189.599C225.5 183.599 214.5 177.599 205.4 177.599C195.4 177.599 184.4 183.599 173.3 189.599C167.3 193.599 157.3 198.599 153.3 198.599C149.3 198.599 140.3 193.599 133.3 189.599C122.3 183.599 112.3 177.599 102.2 177.599C92.1 177.599 82.2 183.599 71.1 189.599C64.1 193.599 54.1 198.599 50.1 198.599C46.1 198.599 37.1 193.599 30.1 189.599C20.1 183.599 10.1 177.599 0 177.599V199.599L19 209.599C30 215.599 40 221.599 50.1 221.599C60.2 221.599 71.1 215.599 82.2 209.599C88.2 205.599 98.2 199.599 102.2 199.599C106.2 199.599 115.2 205.599 122.2 209.599C133.2 215.599 143.2 221.599 153.3 221.599C163.4 221.599 173.3 215.599 184.4 209.599C191.4 205.599 201.4 199.599 205.4 199.599C209.4 199.599 218.4 205.599 225.4 209.599C236.4 215.599 246.4 221.599 256.5 221.599C266.6 221.599 276.5 215.599 287.6 209.599C294.6 205.599 303.6 199.599 307.6 199.599C311.6 199.599 321.6 205.599 328.6 209.599C339.6 215.599 349.6 221.599 359.7 221.599C369.8 221.599 379.7 215.599 390.8 209.599C397.8 205.599 406.8 199.599 410.8 199.599C414.8 199.599 424.8 205.599 430.8 209.599C441.8 215.599 452.8 221.599 462.9 221.599C473 221.599 482.9 215.599 494 209.599L513 199.599V177.599C503 177.599 493 183.599 482.9 189.599C475.9 193.599 466.9 198.599 462.9 198.599ZM0 32.1992L19 42.1992C30 48.1992 40 54.1992 50.1 54.1992C60.2 54.1992 71.1 48.1992 82.2 42.1992C88.2 38.1992 98.2 32.1992 102.2 32.1992C106.2 32.1992 115.2 38.1992 122.2 42.1992C133.2 48.1992 143.2 54.1992 153.3 54.1992C163.4 54.1992 173.3 48.1992 184.4 42.1992C191.4 38.1992 201.4 32.1992 205.4 32.1992C209.4 32.1992 218.4 38.1992 225.4 42.1992C236.4 48.1992 246.4 54.1992 256.5 54.1992C266.6 54.1992 276.5 48.1992 287.6 42.1992C294.6 38.1992 303.6 32.1992 307.6 32.1992C311.6 32.1992 321.6 38.1992 328.6 42.1992C339.6 48.1992 349.6 54.1992 359.7 54.1992C369.8 54.1992 379.7 48.1992 390.8 42.1992C397.8 38.1992 406.8 32.1992 410.8 32.1992C414.8 32.1992 424.8 38.1992 430.8 42.1992C441.8 48.1992 452.8 54.1992 462.9 54.1992C473 54.1992 482.9 48.1992 494 42.1992L513 32.1992V10.1992C503 11.1992 493 16.1992 482.9 22.1992C475.9 26.1992 466.9 31.1992 462.9 31.1992C458.9 31.1992 448.9 26.1992 441.9 22.1992C430.9 16.1992 420.9 10.1992 410.8 10.1992C400.7 10.1992 390.8 16.1992 379.7 22.1992C372.7 26.1992 363.7 31.1992 359.7 31.1992C355.7 31.1992 345.7 26.1992 339.7 22.1992C328.7 16.1992 317.7 10.1992 307.6 10.1992C297.5 10.1992 287.6 16.1992 276.5 22.1992C269.5 26.1992 260.5 31.1992 256.5 31.1992C252.5 31.1992 243.5 26.1992 236.5 22.1992C225.5 16.1992 214.5 10.1992 205.4 10.1992C196.3 10.1992 184.4 16.1992 173.3 22.1992C167.3 26.1992 157.3 31.1992 153.3 31.1992C149.3 31.1992 140.3 26.1992 133.3 22.1992C122.3 16.1992 112.3 10.1992 102.2 10.1992C92.1 10.1992 82.2 16.1992 71.1 22.1992C64.1 26.1992 54.1 31.1992 50.1 31.1992C46.1 31.1992 37.1 26.1992 30.1 22.1992C20.1 16.1992 10.1 11.1992 0 10.1992L0 32.1992ZM462.9 87.3992C458.9 87.3992 448.9 82.3992 441.9 78.3992C430.9 72.3992 420.9 66.3992 410.8 66.3992C400.7 66.3992 390.8 72.3992 379.7 78.3992C372.7 82.3992 363.7 87.3992 359.7 87.3992C355.7 87.3992 345.7 82.3992 339.7 78.3992C328.7 72.3992 317.7 66.3992 307.6 66.3992C298.6 66.3992 287.6 72.3992 276.5 78.3992C269.5 82.3992 260.5 87.3992 256.5 87.3992C252.5 87.3992 243.5 82.3992 236.5 78.3992C225.5 72.3992 214.5 66.3992 205.4 66.3992C195.4 66.3992 184.4 72.3992 173.3 78.3992C167.3 82.3992 157.3 87.3992 153.3 87.3992C149.3 87.3992 140.3 82.3992 133.3 78.3992C122.3 72.3992 112.3 66.3992 102.2 66.3992C92.1 66.3992 82.2 72.3992 71.1 78.3992C64.1 82.3992 54.1 87.3992 50.1 87.3992C46.1 87.3992 37.1 82.3992 30.1 78.3992C20.1 72.3992 10.1 66.3992 0 66.3992V88.3992L19 97.3992C30 103.399 40 109.399 50.1 109.399C60.2 109.399 71.1 103.399 82.2 97.3992C88.2 93.3992 98.2 88.3992 102.2 88.3992C106.2 88.3992 115.2 93.3992 122.2 97.3992C133.2 103.399 143.2 109.399 153.3 109.399C163.4 109.399 173.3 103.399 184.4 97.3992C191.4 93.3992 201.4 88.3992 205.4 88.3992C209.4 88.3992 218.4 93.3992 225.4 97.3992C236.4 103.399 246.4 109.399 256.5 109.399C266.6 109.399 276.5 103.399 287.6 97.3992C294.6 93.3992 303.6 88.3992 307.6 88.3992C311.6 88.3992 321.6 93.3992 328.6 97.3992C339.6 103.399 349.6 109.399 359.7 109.399C369.8 109.399 379.7 103.399 390.8 97.3992C397.8 93.3992 406.8 88.3992 410.8 88.3992C414.8 88.3992 424.8 93.3992 430.8 97.3992C441.8 103.399 452.8 109.399 462.9 109.399C473 109.399 482.9 103.399 494 97.3992L513 88.3992V66.3992C503 66.3992 493 72.3992 482.9 78.3992C475.9 82.2992 466.9 87.3992 462.9 87.3992ZM513 121.399C503 122.399 493 127.399 482.9 133.399C475.9 137.399 466.9 143.399 462.9 143.399C458.9 143.399 448.9 137.399 441.9 133.399C430.9 127.399 420.9 121.399 410.8 121.399C400.7 121.399 390.8 127.399 379.7 133.399C372.7 137.399 363.7 143.399 359.7 143.399C355.7 143.399 345.7 137.399 339.7 133.399C328.7 127.399 317.7 121.399 307.6 121.399C297.5 121.399 287.6 127.399 276.5 133.399C269.5 137.399 260.5 143.399 256.5 143.399C252.5 143.399 243.5 137.399 236.5 133.399C225.5 127.399 214.5 121.399 205.4 121.399C196.3 121.399 184.4 127.399 173.3 133.399C167.3 137.399 157.3 143.399 153.3 143.399C149.3 143.399 140.3 137.399 133.3 133.399C122.3 127.399 112.3 121.399 102.2 121.399C92.1 121.399 82.2 127.399 71.1 133.399C64.1 137.399 54.1 143.399 50.1 143.399C46.1 143.399 37.1 137.399 30.1 133.399C20.1 127.399 10.1 122.399 0 121.399V144.399C4 145.399 13 149.399 19 153.399C30 159.399 40 165.399 50.1 165.399C60.2 165.399 71.1 159.399 82.2 153.399C88.2 149.399 98.2 144.399 102.2 144.399C106.2 144.399 115.2 149.399 122.2 153.399C133.2 159.399 143.2 165.399 153.3 165.399C163.4 165.399 173.3 159.399 184.4 153.399C191.4 149.399 201.4 144.399 205.4 144.399C209.4 144.399 218.4 149.399 225.4 153.399C236.4 159.399 246.4 165.399 256.5 165.399C266.6 165.399 276.5 159.399 287.6 153.399C294.6 149.399 303.6 144.399 307.6 144.399C311.6 144.399 321.6 149.399 328.6 153.399C339.6 159.399 349.6 165.399 359.7 165.399C369.8 165.399 379.7 159.399 390.8 153.399C397.8 149.399 406.8 144.399 410.8 144.399C414.8 144.399 424.8 149.399 430.8 153.399C441.8 159.399 452.8 165.399 462.9 165.399C473 165.399 482.9 159.399 494 153.399C500 149.399 509 145.399 513 144.399V121.399ZM462.9 254.699C458.9 254.699 448.9 249.699 441.9 245.699C430.9 239.699 420.9 233.699 410.8 233.699C400.7 233.699 390.8 239.699 379.7 245.699C372.7 249.699 363.7 254.699 359.7 254.699C355.7 254.699 345.7 249.699 339.7 245.699C328.7 239.699 317.7 233.699 307.6 233.699C298.6 233.699 287.6 239.699 276.5 245.699C269.5 249.699 260.5 254.699 256.5 254.699C252.5 254.699 243.5 249.699 236.5 245.699C225.5 239.699 214.5 233.699 205.4 233.699C195.4 233.699 184.4 239.699 173.3 245.699C167.3 249.699 157.3 254.699 153.3 254.699C149.3 254.699 140.3 249.699 133.3 245.699C122.3 239.699 112.3 233.699 102.2 233.699C92.1 233.699 82.2 239.699 71.1 245.699C64.1 249.699 54.1 254.699 50.1 254.699C46.1 254.699 37.1 249.699 30.1 245.699C20.1 239.699 10.1 233.699 0 233.699V255.699L19 264.699C30 270.699 40 276.699 50.1 276.699C60.2 276.699 71.1 270.699 82.2 264.699C88.2 260.699 98.2 255.699 102.2 255.699C106.2 255.699 115.2 260.699 122.2 264.699C133.2 270.699 143.2 276.699 153.3 276.699C163.4 276.699 173.3 270.699 184.4 264.699C191.4 260.699 201.4 255.699 205.4 255.699C209.4 255.699 218.4 260.699 225.4 264.699C236.4 270.699 246.4 276.699 256.5 276.699C266.6 276.699 276.5 270.699 287.6 264.699C294.6 260.699 303.6 255.699 307.6 255.699C311.6 255.699 321.6 260.699 328.6 264.699C339.6 270.699 349.6 276.699 359.7 276.699C369.8 276.699 379.7 270.699 390.8 264.699C397.8 260.699 406.8 255.699 410.8 255.699C414.8 255.699 424.8 260.699 430.8 264.699C441.8 270.699 452.8 276.699 462.9 276.699C473 276.699 482.9 270.699 494 264.699L513 255.699V233.699C503 233.699 493 239.699 482.9 245.699C475.9 249.699 466.9 254.699 462.9 254.699ZM513 288.699C503 289.699 493 294.699 482.9 300.699C475.9 304.699 466.9 310.699 462.9 310.699C458.9 310.699 448.9 304.699 441.9 300.699C430.9 294.699 420.9 288.699 410.8 288.699C400.7 288.699 390.8 294.699 379.7 300.699C372.7 304.699 363.7 310.699 359.7 310.699C355.7 310.699 345.7 304.699 339.7 300.699C328.7 294.699 317.7 288.699 307.6 288.699C297.5 288.699 287.6 294.699 276.5 300.699C269.5 304.699 260.5 310.699 256.5 310.699C252.5 310.699 243.5 304.699 236.5 300.699C225.5 294.699 214.5 288.699 205.4 288.699C196.3 288.699 184.4 294.699 173.3 300.699C167.3 304.699 157.3 310.699 153.3 310.699C149.3 310.699 140.3 304.699 133.3 300.699C122.3 294.699 112.3 288.699 102.2 288.699C92.1 288.699 82.2 294.699 71.1 300.699C64.1 304.699 54.1 310.699 50.1 310.699C46.1 310.699 37.1 304.699 30.1 300.699C20.1 294.699 10.1 289.699 0 288.699V311.699C4 311.699 13 316.699 19 320.699C30 326.699 40 332.699 50.1 332.699C60.2 332.699 71.1 326.699 82.2 320.699C88.2 316.699 98.2 311.699 102.2 311.699C106.2 311.699 115.2 316.699 122.2 320.699C133.2 326.699 143.2 332.699 153.3 332.699C163.4 332.699 173.3 326.699 184.4 320.699C191.4 316.699 201.4 311.699 205.4 311.699C209.4 311.699 218.4 316.699 225.4 320.699C236.4 326.699 246.4 332.699 256.5 332.699C266.6 332.699 276.5 326.699 287.6 320.699C294.6 316.699 303.6 311.699 307.6 311.699C311.6 311.699 321.6 316.699 328.6 320.699C339.6 326.699 349.6 332.699 359.7 332.699C369.8 332.699 379.7 326.699 390.8 320.699C397.8 316.699 406.8 311.699 410.8 311.699C414.8 311.699 424.8 316.699 430.8 320.699C441.8 326.699 452.8 332.699 462.9 332.699C473 332.699 482.9 326.699 494 320.699C500 316.699 509 311.699 513 311.699V288.699Z" fill="#0052B4"/>
<path d="M0 0.199219H256V171.199H0V0.199219Z" fill="white"/>
<path d="M389.8 120.398H408V199.198H389.7L389.8 120.398ZM389.8 238.198H408V313.298H389.7L389.8 238.198Z" fill="#A2001D"/>
<path d="M144 0.199219H112V70.1992H0V102.199H112V171.199H144V102.199H256V70.1992H144V0.199219Z" fill="#D80027"/>
<path d="M0 0.199219V15.1992L57 54.1992H80L0 0.199219ZM256 0.199219V15.1992L199 54.1992H176L256 0.199219Z" fill="#D80027"/>
<path d="M0 0.199219V15.1992L57 54.1992H80L0 0.199219ZM256 0.199219V15.1992L199 54.1992H176L256 0.199219ZM0 171.199V156.199L57 118.199H80L0 171.199ZM256 171.199V156.199L199 118.199H176L256 171.199Z" fill="#D80027"/>
<path d="M0 23.1992V54.1992H46L0 23.1992ZM96 0.199219V49.1992L23 0.199219H96ZM256 23.1992V54.1992H210L256 23.1992ZM160 0.199219V49.1992L233 0.199219H160Z" fill="#2E52B2"/>
<path d="M0 23.1992V54.1992H46L0 23.1992ZM96 0.199219V49.1992L23 0.199219H96ZM256 23.1992V54.1992H210L256 23.1992ZM160 0.199219V49.1992L233 0.199219H160ZM0 148.199V118.199H46L0 148.199ZM96 171.199V122.199L23 171.199H96ZM256 148.199V118.199H210L256 148.199ZM160 171.199V122.199L233 171.199H160Z" fill="#2E52B2"/>
<path d="M462.8 92.0016H433.7L459.4 66.3016C463.9 61.9016 463.9 54.9016 459.4 50.5016L456 47.1016C451.6 42.7016 444.6 42.7016 440.2 47.1016L414.3 73.0016V37.9016C414.3 31.7016 409.2 26.6016 403 26.6016H398.3C392.1 26.6016 387 31.7016 387 37.9016V69.6016L363.5 45.8016C358.8 41.1016 351.3 41.1016 346.6 45.8016L343 49.4016C338.3 54.1016 338.3 61.8016 343 66.6016L368 92.0016H337.4C331.4 92.0016 326.5 96.9016 326.5 102.902V107.502C326.5 113.502 331.4 118.402 337.4 118.402H369L348.3 139.102C343.9 143.502 343.9 150.502 348.3 154.902L351.7 158.302C356.1 162.702 363.1 162.702 367.5 158.302L387.1 138.702V167.502C387.1 173.602 392.2 178.602 398.4 178.802H403.1C409.3 178.802 414.4 173.702 414.4 167.502V139.202L436.6 161.802C441.3 166.502 449 166.502 453.7 161.802L457.3 158.202C462 153.502 462 145.802 457.3 141.002L435.2 118.502H462.8C468.7 118.502 473.5 113.602 473.7 107.602V103.002C473.7 96.9016 468.8 92.0016 462.8 92.0016Z" fill="#5DA51E" stroke="#45602C" stroke-width="4" stroke-miterlimit="10"/>
<path d="M439.2 249.598H359.4C359.4 249.598 358.5 236.198 353.4 227.798C347.2 217.398 339.5 199.698 352 191.098C367.9 180.198 385.7 191.898 400.2 191.898C412 191.998 427.1 177.898 445.2 191.098C457.4 199.998 449.1 219.298 443.9 227.798C436.9 239.298 439.2 249.598 439.2 249.598Z" fill="#E2DD24" stroke="#525625" stroke-width="4" stroke-miterlimit="10"/>
<g filter="url(#filter0_d_4026_5120)">
<rect x="24" y="261.668" width="56" height="56" rx="28" fill="white"/>
<path d="M41.286 281.456C41.3103 281.476 41.3412 281.486 41.3731 281.486C41.3976 281.487 41.4218 281.48 41.4428 281.468L50.5207 276.506C51.2702 276.095 52.8012 276.095 53.5516 276.506L62.6237 281.468C62.648 281.481 62.6762 281.488 62.7044 281.486C62.7327 281.483 62.7595 281.473 62.7813 281.456L66.0691 278.91C66.0865 278.897 66.1003 278.879 66.1091 278.859C66.118 278.84 66.1217 278.818 66.12 278.797C66.1178 278.776 66.1104 278.755 66.0984 278.737C66.0864 278.719 66.0702 278.704 66.0511 278.693L55.6745 273.023C54.6713 272.473 53.3759 272.168 52.0361 272.168C50.6964 272.168 49.4009 272.47 48.3961 273.023L38.0171 278.7C37.9974 278.71 37.9808 278.725 37.9688 278.743C37.9567 278.761 37.9496 278.782 37.9481 278.803C37.9465 278.824 37.9502 278.846 37.9589 278.865C37.9676 278.885 37.981 278.903 37.9982 278.916L41.286 281.456Z" fill="url(#paint0_linear_4026_5120)"/>
<path d="M57.1406 285.714C57.1719 285.714 57.2022 285.704 57.2268 285.686L60.2987 283.334C60.3159 283.321 60.3295 283.304 60.3382 283.285C60.3469 283.266 60.3506 283.245 60.3488 283.224C60.347 283.204 60.3399 283.184 60.328 283.166C60.3161 283.148 60.2998 283.134 60.2806 283.124L53.8724 279.66C52.8274 279.093 51.2455 279.092 50.193 279.66L43.7857 283.125C43.7668 283.136 43.7509 283.15 43.7392 283.168C43.7275 283.185 43.7203 283.205 43.7183 283.225C43.7163 283.246 43.7198 283.267 43.7286 283.286C43.7373 283.305 43.751 283.322 43.7684 283.335L46.842 285.683C46.8638 285.7 46.8903 285.71 46.9181 285.712C46.9459 285.714 46.9737 285.708 46.998 285.695C46.998 285.695 51.9235 283.035 51.9564 283.015C51.979 283.002 52.005 282.995 52.0315 282.995C52.058 282.995 52.084 283.002 52.1066 283.015C52.1312 283.031 57.0724 285.7 57.0724 285.7C57.0931 285.712 57.1167 285.717 57.1406 285.717" fill="url(#paint1_linear_4026_5120)"/>
<path d="M48.573 291.536L51.9848 293.403C52.0065 293.414 52.0311 293.421 52.0562 293.42C52.081 293.421 52.1055 293.415 52.1268 293.403L55.4926 291.562C55.514 291.55 55.5317 291.533 55.5441 291.512C55.5564 291.492 55.563 291.468 55.5632 291.445V287.767C55.5629 287.743 55.5562 287.72 55.5439 287.7C55.5315 287.68 55.5139 287.663 55.4926 287.651L52.1268 285.81C52.1051 285.799 52.0806 285.793 52.0558 285.793C52.0309 285.793 52.0065 285.799 51.9848 285.81L49.1862 287.343L48.6313 287.594C48.6069 287.605 48.5863 287.622 48.5718 287.644C48.5572 287.665 48.5494 287.69 48.5492 287.715V290.4L48.5016 291.416C48.5006 291.44 48.5067 291.465 48.5191 291.486C48.5316 291.508 48.5499 291.526 48.5722 291.538" fill="url(#paint2_linear_4026_5120)"/>
<path d="M49.0914 306.508C50.5887 307.251 52.9267 307.519 54.9668 306.508C55.4667 306.251 65.377 300.875 65.377 300.875C67.0952 299.847 69.0178 297.874 69.0178 294.912V283.55C69.0177 283.529 69.0119 283.508 69.001 283.489C68.9901 283.47 68.9745 283.454 68.9554 283.442C68.937 283.43 68.9157 283.422 68.8933 283.42C68.8709 283.417 68.8482 283.42 68.8274 283.428L64.859 284.856C64.8326 284.865 64.8099 284.882 64.7938 284.904C64.7777 284.925 64.7689 284.951 64.7687 284.978C64.7687 284.978 64.8212 294.806 64.7605 295.069C64.6702 295.904 63.951 297.013 63.2532 297.393L53.549 302.7C52.7987 303.111 51.2676 303.111 50.5181 302.7L40.8131 297.393C40.1153 297.011 39.397 295.904 39.3075 295.069C39.2468 294.806 39.2985 284.978 39.2985 284.978C39.2984 284.951 39.2898 284.926 39.2738 284.904C39.2579 284.882 39.2352 284.865 39.209 284.856L35.2406 283.428C35.2194 283.42 35.1963 283.417 35.1733 283.419C35.1504 283.421 35.1283 283.428 35.1091 283.44C35.0899 283.452 35.0742 283.469 35.0634 283.488C35.0525 283.507 35.0468 283.529 35.0469 283.55V294.915C35.0469 297.876 36.9695 299.849 38.6869 300.877C38.6869 300.877 48.5101 306.222 49.0881 306.508" fill="url(#paint3_linear_4026_5120)"/>
<path d="M50.2754 299.586C50.8182 299.854 51.4221 299.991 52.0339 299.985C52.6404 299.99 53.2393 299.857 53.78 299.597L60.3162 296.068C61.5969 295.389 62.1559 294.352 62.1559 293.094V286.151C62.156 286.13 62.1507 286.109 62.1404 286.091C62.1301 286.073 62.1151 286.057 62.0968 286.045C62.0785 286.033 62.0573 286.026 62.0351 286.023C62.013 286.02 61.9905 286.023 61.9696 286.03L58.2573 287.352C58.2315 287.361 58.2092 287.378 58.1934 287.399C58.1775 287.42 58.1689 287.446 58.1687 287.472V292.846C58.1696 292.868 58.164 292.889 58.1526 292.909C58.1411 292.928 58.1242 292.943 58.1038 292.954C58.0603 292.973 52.0757 296.166 52.0757 296.166C52.049 296.177 52.0201 296.183 51.9908 296.183C51.9615 296.183 51.9325 296.177 51.9058 296.166L45.9655 292.952C45.9448 292.941 45.9275 292.926 45.9159 292.907C45.9043 292.887 45.8987 292.866 45.8999 292.843V287.47C45.8998 287.444 45.8913 287.418 45.8756 287.397C45.86 287.375 45.8378 287.359 45.812 287.35L42.0989 286.028C42.0782 286.021 42.0558 286.018 42.0338 286.02C42.0117 286.023 41.9907 286.031 41.9725 286.043C41.954 286.054 41.9389 286.07 41.9284 286.089C41.9179 286.107 41.9125 286.128 41.9126 286.149V293.091C41.9126 294.35 42.4725 295.387 43.7523 296.066L50.2754 299.586Z" fill="url(#paint4_linear_4026_5120)"/>
</g>
</g>
<defs>
<filter id="filter0_d_4026_5120" x="20" y="261.668" width="64" height="64" filterUnits="userSpaceOnUse" color-interpolation-filters="sRGB">
<feFlood flood-opacity="0" result="BackgroundImageFix"/>
<feColorMatrix in="SourceAlpha" type="matrix" values="0 0 0 0 0 0 0 0 0 0 0 0 0 0 0 0 0 0 127 0" result="hardAlpha"/>
<feOffset dy="4"/>
<feGaussianBlur stdDeviation="2"/>
<feComposite in2="hardAlpha" operator="out"/>
<feColorMatrix type="matrix" values="0 0 0 0 0 0 0 0 0 0 0 0 0 0 0 0 0 0 0.25 0"/>
<feBlend mode="normal" in2="BackgroundImageFix" result="effect1_dropShadow_4026_5120"/>
<feBlend mode="normal" in="SourceGraphic" in2="effect1_dropShadow_4026_5120" result="shape"/>
</filter>
<linearGradient id="paint0_linear_4026_5120" x1="37.9481" y1="276.828" x2="66.12" y2="276.828" gradientUnits="userSpaceOnUse">
<stop stop-color="#6FBE44"/>
<stop offset="1" stop-color="#30B34A"/>
</linearGradient>
<linearGradient id="paint1_linear_4026_5120" x1="2665.17" y1="1300.02" x2="6034.53" y2="1300.02" gradientUnits="userSpaceOnUse">
<stop stop-color="#6FBE44"/>
<stop offset="1" stop-color="#30B34A"/>
</linearGradient>
<linearGradient id="paint2_linear_4026_5120" x1="1573.2" y1="2186.57" x2="2180.65" y2="2186.57" gradientUnits="userSpaceOnUse">
<stop stop-color="#6FBE44"/>
<stop offset="1" stop-color="#30B34A"/>
</linearGradient>
<linearGradient id="paint3_linear_4026_5120" x1="35.0502" y1="295.295" x2="69.0178" y2="295.295" gradientUnits="userSpaceOnUse">
<stop stop-color="#6F7073"/>
<stop offset="1" stop-color="#8C8F91"/>
</linearGradient>
<linearGradient id="paint4_linear_4026_5120" x1="2787.31" y1="4376.24" x2="7779.32" y2="4376.24" gradientUnits="userSpaceOnUse">
<stop stop-color="#6F7073"/>
<stop offset="1" stop-color="#8C8F91"/>
</linearGradient>
<clipPath id="clip0_4026_5120">
<rect width="513" height="342" fill="white" transform="translate(0 0.5)"/>
</clipPath>
</defs>
</svg>
