<svg width="513" height="343" viewBox="0 0 513 343" fill="none" xmlns="http://www.w3.org/2000/svg">
<g clip-path="url(#clip0_4026_5193)">
<path d="M0 0.5H513V342.5H0V0.5Z" fill="#D80027"/>
<path d="M0 0.5H513V114.5H0V0.5ZM0 228.5H513V342.5H0V228.5Z" fill="#0052B4"/>
<path d="M303.5 197.1V179.3H291.6V155.6L279.7 143.7L267.9 155.6V131.8L256 120L244.1 131.8V155.6L232.3 143.7L220.4 155.6V179.3H208.5V197.1H196.6V214.9H315.4V197.1H303.5Z" fill="white"/>
<g filter="url(#filter0_d_4026_5193)">
<rect x="24" y="261.672" width="56" height="56" rx="28" fill="white"/>
<path d="M41.286 281.46C41.3103 281.479 41.3412 281.49 41.3731 281.49C41.3976 281.491 41.4218 281.484 41.4428 281.472L50.5207 276.51C51.2702 276.099 52.8012 276.099 53.5516 276.51L62.6237 281.472C62.648 281.485 62.6762 281.492 62.7044 281.489C62.7327 281.487 62.7595 281.477 62.7813 281.46L66.0691 278.914C66.0865 278.9 66.1003 278.883 66.1091 278.863C66.118 278.843 66.1217 278.822 66.12 278.801C66.1178 278.779 66.1104 278.759 66.0984 278.741C66.0864 278.723 66.0702 278.708 66.0511 278.697L55.6745 273.027C54.6713 272.477 53.3759 272.172 52.0361 272.172C50.6964 272.172 49.4009 272.474 48.3961 273.027L38.0171 278.703C37.9974 278.714 37.9808 278.729 37.9688 278.747C37.9567 278.765 37.9496 278.786 37.9481 278.807C37.9465 278.828 37.9502 278.85 37.9589 278.869C37.9676 278.889 37.981 278.907 37.9982 278.92L41.286 281.46Z" fill="url(#paint0_linear_4026_5193)"/>
<path d="M57.1406 285.718C57.1719 285.718 57.2022 285.708 57.2268 285.69L60.2987 283.338C60.3159 283.325 60.3295 283.308 60.3382 283.289C60.3469 283.27 60.3506 283.249 60.3488 283.228C60.347 283.207 60.3399 283.187 60.328 283.17C60.3161 283.152 60.2998 283.138 60.2806 283.127L53.8724 279.663C52.8274 279.097 51.2455 279.096 50.193 279.663L43.7857 283.129C43.7668 283.139 43.7509 283.154 43.7392 283.171C43.7275 283.189 43.7203 283.209 43.7183 283.229C43.7163 283.25 43.7198 283.271 43.7286 283.29C43.7373 283.309 43.751 283.326 43.7684 283.339L46.842 285.687C46.8638 285.704 46.8903 285.713 46.9181 285.716C46.9459 285.718 46.9737 285.712 46.998 285.699C46.998 285.699 51.9235 283.039 51.9564 283.019C51.979 283.006 52.005 282.999 52.0315 282.999C52.058 282.999 52.084 283.006 52.1066 283.019C52.1312 283.035 57.0724 285.704 57.0724 285.704C57.0931 285.716 57.1167 285.721 57.1406 285.721" fill="url(#paint1_linear_4026_5193)"/>
<path d="M48.573 291.54L51.9848 293.406C52.0065 293.418 52.0311 293.424 52.0562 293.424C52.081 293.425 52.1055 293.419 52.1268 293.406L55.4926 291.566C55.514 291.554 55.5317 291.537 55.5441 291.516C55.5564 291.495 55.563 291.472 55.5632 291.449V287.771C55.5629 287.747 55.5562 287.724 55.5439 287.704C55.5315 287.684 55.5139 287.667 55.4926 287.655L52.1268 285.814C52.1051 285.803 52.0806 285.797 52.0558 285.797C52.0309 285.797 52.0065 285.803 51.9848 285.814L49.1862 287.347L48.6313 287.598C48.6069 287.609 48.5863 287.626 48.5718 287.647C48.5572 287.669 48.5494 287.694 48.5492 287.719V290.404L48.5016 291.42C48.5006 291.444 48.5067 291.469 48.5191 291.49C48.5316 291.512 48.5499 291.529 48.5722 291.542" fill="url(#paint2_linear_4026_5193)"/>
<path d="M49.0914 306.512C50.5887 307.255 52.9267 307.523 54.9668 306.512C55.4667 306.255 65.377 300.878 65.377 300.878C67.0952 299.851 69.0178 297.878 69.0178 294.916V283.554C69.0177 283.533 69.0119 283.512 69.001 283.493C68.9901 283.474 68.9745 283.458 68.9554 283.446C68.937 283.434 68.9157 283.426 68.8933 283.424C68.8709 283.421 68.8482 283.424 68.8274 283.432L64.859 284.86C64.8326 284.869 64.8099 284.886 64.7938 284.908C64.7777 284.929 64.7689 284.955 64.7687 284.982C64.7687 284.982 64.8212 294.81 64.7605 295.073C64.6702 295.908 63.951 297.017 63.2532 297.397L53.549 302.703C52.7987 303.115 51.2676 303.115 50.5181 302.703L40.8131 297.397C40.1153 297.015 39.397 295.908 39.3075 295.073C39.2468 294.81 39.2985 284.982 39.2985 284.982C39.2984 284.955 39.2898 284.929 39.2738 284.908C39.2579 284.886 39.2352 284.869 39.209 284.86L35.2406 283.432C35.2194 283.424 35.1963 283.42 35.1733 283.422C35.1504 283.425 35.1283 283.432 35.1091 283.444C35.0899 283.456 35.0742 283.472 35.0634 283.492C35.0525 283.511 35.0468 283.532 35.0469 283.554V294.918C35.0469 297.88 36.9695 299.853 38.6869 300.881C38.6869 300.881 48.5101 306.226 49.0881 306.512" fill="url(#paint3_linear_4026_5193)"/>
<path d="M50.2754 299.59C50.8182 299.858 51.4221 299.995 52.0339 299.989C52.6404 299.994 53.2393 299.861 53.78 299.6L60.3162 296.072C61.5969 295.393 62.1559 294.356 62.1559 293.098V286.155C62.156 286.134 62.1507 286.113 62.1404 286.095C62.1301 286.076 62.1151 286.061 62.0968 286.049C62.0785 286.037 62.0573 286.029 62.0351 286.027C62.013 286.024 61.9905 286.027 61.9696 286.034L58.2573 287.356C58.2315 287.365 58.2092 287.382 58.1934 287.403C58.1775 287.424 58.1689 287.45 58.1687 287.476V292.85C58.1696 292.872 58.164 292.893 58.1526 292.913C58.1411 292.932 58.1242 292.947 58.1038 292.958C58.0603 292.977 52.0757 296.17 52.0757 296.17C52.049 296.181 52.0201 296.187 51.9908 296.187C51.9615 296.187 51.9325 296.181 51.9058 296.17L45.9655 292.955C45.9448 292.945 45.9275 292.93 45.9159 292.911C45.9043 292.891 45.8987 292.869 45.8999 292.847V287.474C45.8998 287.448 45.8913 287.422 45.8756 287.401C45.86 287.379 45.8378 287.363 45.812 287.354L42.0989 286.032C42.0782 286.024 42.0558 286.022 42.0338 286.024C42.0117 286.027 41.9907 286.035 41.9725 286.047C41.954 286.058 41.9389 286.074 41.9284 286.092C41.9179 286.111 41.9125 286.132 41.9126 286.152V293.095C41.9126 294.353 42.4725 295.391 43.7523 296.07L50.2754 299.59Z" fill="url(#paint4_linear_4026_5193)"/>
</g>
</g>
<defs>
<filter id="filter0_d_4026_5193" x="20" y="261.672" width="64" height="64" filterUnits="userSpaceOnUse" color-interpolation-filters="sRGB">
<feFlood flood-opacity="0" result="BackgroundImageFix"/>
<feColorMatrix in="SourceAlpha" type="matrix" values="0 0 0 0 0 0 0 0 0 0 0 0 0 0 0 0 0 0 127 0" result="hardAlpha"/>
<feOffset dy="4"/>
<feGaussianBlur stdDeviation="2"/>
<feComposite in2="hardAlpha" operator="out"/>
<feColorMatrix type="matrix" values="0 0 0 0 0 0 0 0 0 0 0 0 0 0 0 0 0 0 0.25 0"/>
<feBlend mode="normal" in2="BackgroundImageFix" result="effect1_dropShadow_4026_5193"/>
<feBlend mode="normal" in="SourceGraphic" in2="effect1_dropShadow_4026_5193" result="shape"/>
</filter>
<linearGradient id="paint0_linear_4026_5193" x1="37.9481" y1="276.832" x2="66.12" y2="276.832" gradientUnits="userSpaceOnUse">
<stop stop-color="#6FBE44"/>
<stop offset="1" stop-color="#30B34A"/>
</linearGradient>
<linearGradient id="paint1_linear_4026_5193" x1="2665.17" y1="1300.02" x2="6034.53" y2="1300.02" gradientUnits="userSpaceOnUse">
<stop stop-color="#6FBE44"/>
<stop offset="1" stop-color="#30B34A"/>
</linearGradient>
<linearGradient id="paint2_linear_4026_5193" x1="1573.2" y1="2186.57" x2="2180.65" y2="2186.57" gradientUnits="userSpaceOnUse">
<stop stop-color="#6FBE44"/>
<stop offset="1" stop-color="#30B34A"/>
</linearGradient>
<linearGradient id="paint3_linear_4026_5193" x1="35.0502" y1="295.299" x2="69.0178" y2="295.299" gradientUnits="userSpaceOnUse">
<stop stop-color="#6F7073"/>
<stop offset="1" stop-color="#8C8F91"/>
</linearGradient>
<linearGradient id="paint4_linear_4026_5193" x1="2787.31" y1="4376.25" x2="7779.32" y2="4376.25" gradientUnits="userSpaceOnUse">
<stop stop-color="#6F7073"/>
<stop offset="1" stop-color="#8C8F91"/>
</linearGradient>
<clipPath id="clip0_4026_5193">
<rect width="513" height="342" fill="white" transform="translate(0 0.5)"/>
</clipPath>
</defs>
</svg>
