<svg width="513" height="343" viewBox="0 0 513 343" fill="none" xmlns="http://www.w3.org/2000/svg">
<g clip-path="url(#clip0_4026_5198)">
<path d="M0 0.5H513V342.5H0V0.5Z" fill="#CE1126"/>
<path d="M259.464 248.335C294.848 248.335 323.532 219.651 323.532 184.267C323.532 148.883 294.848 120.199 259.464 120.199C224.08 120.199 195.396 148.883 195.396 184.267C195.396 219.651 224.08 248.335 259.464 248.335Z" fill="#FCD116"/>
<path d="M289.674 84.1758L262.656 113.816L295.26 121.226L289.674 84.1758ZM230.964 84.4038L225.492 122.138L257.982 113.018L230.964 84.4038ZM338.466 114.842L298.908 124.532L321.822 151.55L338.466 114.842ZM180.804 112.79L198.474 150.068L221.502 124.19L180.804 112.79ZM362.064 164.432L322.848 153.146L329.232 186.776L362.064 164.432ZM154.584 161.468L190.95 184.04L196.878 152.462L154.584 161.468Z" fill="#FCD116"/>
<path d="M0 200H513V342.5H0V200Z" fill="#003F87"/>
<path d="M0 304.878C17.1 304.878 34.2 319.698 51.3 319.698C68.4 319.698 85.5 304.878 102.6 304.878C119.7 304.878 136.8 319.698 153.9 319.698C171 319.698 188.1 304.878 205.2 304.878C222.3 304.878 239.4 319.698 256.5 319.698C273.6 319.698 290.7 304.878 307.8 304.878C324.9 304.878 342 319.698 359.1 319.698C376.2 319.698 393.3 304.878 410.4 304.878C427.5 304.878 444.6 319.698 461.7 319.698C478.8 319.698 495.9 304.878 513 304.878V280.938C495.9 280.938 478.8 295.758 461.7 295.758C444.6 295.758 427.5 280.938 410.4 280.938C393.3 280.938 376.2 295.758 359.1 295.758C342 295.758 324.9 280.938 307.8 280.938C290.7 280.938 273.6 295.758 256.5 295.758C239.4 295.758 222.3 280.938 205.2 280.938C188.1 280.938 171 295.758 153.9 295.758C136.8 295.758 119.7 280.938 102.6 280.938C85.5 280.938 68.4 295.758 51.3 295.758C34.2 295.758 17.1 280.938 0 280.938V304.878ZM0 255.858C17.1 255.858 34.2 270.678 51.3 270.678C68.4 270.678 85.5 255.858 102.6 255.858C119.7 255.858 136.8 270.678 153.9 270.678C171 270.678 188.1 255.858 205.2 255.858C222.3 255.858 239.4 270.678 256.5 270.678C273.6 270.678 290.7 255.858 307.8 255.858C324.9 255.858 342 270.678 359.1 270.678C376.2 270.678 393.3 255.858 410.4 255.858C427.5 255.858 444.6 270.678 461.7 270.678C478.8 270.678 495.9 255.858 513 255.858V231.918C495.9 231.918 478.8 246.738 461.7 246.738C444.6 246.738 427.5 231.918 410.4 231.918C393.3 231.918 376.2 246.738 359.1 246.738C342 246.738 324.9 231.918 307.8 231.918C290.7 231.918 273.6 246.738 256.5 246.738C239.4 246.738 222.3 231.918 205.2 231.918C188.1 231.918 171 246.738 153.9 246.738C136.8 246.738 119.7 231.918 102.6 231.918C85.5 231.918 68.4 246.738 51.3 246.738C34.2 246.738 17.1 231.918 0 231.918V255.858ZM0 206.838C17.1 206.838 34.2 221.658 51.3 221.658C68.4 221.658 85.5 206.838 102.6 206.838C119.7 206.838 136.8 221.658 153.9 221.658C171 221.658 188.1 206.838 205.2 206.838C222.3 206.838 239.4 221.658 256.5 221.658C273.6 221.658 290.7 206.838 307.8 206.838C324.9 206.838 342 221.658 359.1 221.658C376.2 221.658 393.3 206.838 410.4 206.838C427.5 206.838 444.6 221.658 461.7 221.658C478.8 221.658 495.9 206.838 513 206.838V182.898C495.9 182.898 478.8 197.718 461.7 197.718C444.6 197.718 427.5 182.898 410.4 182.898C393.3 182.898 376.2 197.718 359.1 197.718C342 197.718 324.9 182.898 307.8 182.898C290.7 182.898 273.6 197.718 256.5 197.718C239.4 197.718 222.3 182.898 205.2 182.898C188.1 182.898 171 197.718 153.9 197.718C136.8 197.718 119.7 182.898 102.6 182.898C85.5 182.898 68.4 197.718 51.3 197.718C34.2 197.718 17.1 182.898 0 182.898V206.838Z" fill="white"/>
<path fill-rule="evenodd" clip-rule="evenodd" d="M208.848 55.5613L207.594 49.5193L233.13 45.3013C233.13 45.3013 198.816 37.2073 187.53 33.1033C171.228 27.2893 168.948 19.3093 168.948 19.3093C168.948 19.3093 219.906 31.8493 242.82 31.8493C247.722 31.8493 257.412 44.0473 257.412 44.0473C257.412 44.0473 274.284 27.0613 282.378 26.4913C318.972 23.8693 358.302 19.1953 358.302 19.1953C358.302 19.1953 346.902 26.8333 340.062 28.8853C321.594 34.4713 282.378 42.2233 282.378 42.2233L276.906 50.7733H315.78L299.364 55.6753L307.8 63.5413C307.8 63.5413 298.908 58.8673 287.166 61.1473C279.072 62.6293 269.61 67.9873 261.06 70.2673C239.742 75.7393 226.974 55.6753 226.974 55.6753L208.848 55.5613Z" fill="#FCD116"/>
<g filter="url(#filter0_d_4026_5198)">
<rect x="24.5" y="262" width="56" height="56" rx="28" fill="white"/>
<path d="M41.786 281.788C41.8103 281.808 41.8412 281.818 41.8731 281.818C41.8976 281.819 41.9218 281.812 41.9428 281.8L51.0207 276.838C51.7702 276.427 53.3012 276.427 54.0516 276.838L63.1237 281.8C63.148 281.813 63.1762 281.82 63.2044 281.818C63.2327 281.815 63.2595 281.805 63.2813 281.788L66.5691 279.242C66.5865 279.229 66.6003 279.211 66.6091 279.191C66.618 279.172 66.6217 279.15 66.62 279.129C66.6178 279.108 66.6104 279.087 66.5984 279.069C66.5864 279.051 66.5702 279.036 66.5511 279.025L56.1745 273.355C55.1713 272.805 53.8759 272.5 52.5361 272.5C51.1964 272.5 49.9009 272.802 48.8961 273.355L38.5171 279.032C38.4974 279.042 38.4808 279.057 38.4688 279.075C38.4567 279.093 38.4496 279.114 38.4481 279.135C38.4465 279.156 38.4502 279.178 38.4589 279.197C38.4676 279.217 38.481 279.235 38.4982 279.248L41.786 281.788Z" fill="url(#paint0_linear_4026_5198)"/>
<path d="M57.6406 286.046C57.6719 286.046 57.7022 286.036 57.7268 286.018L60.7987 283.666C60.8159 283.653 60.8295 283.636 60.8382 283.617C60.8469 283.598 60.8506 283.577 60.8488 283.556C60.847 283.536 60.8399 283.516 60.828 283.498C60.8161 283.48 60.7998 283.466 60.7806 283.456L54.3724 279.992C53.3274 279.425 51.7455 279.424 50.693 279.992L44.2857 283.457C44.2668 283.468 44.2509 283.482 44.2392 283.5C44.2275 283.517 44.2203 283.537 44.2183 283.557C44.2163 283.578 44.2198 283.599 44.2286 283.618C44.2373 283.638 44.251 283.654 44.2684 283.667L47.342 286.015C47.3638 286.032 47.3903 286.042 47.4181 286.044C47.4459 286.046 47.4737 286.04 47.498 286.027C47.498 286.027 52.4235 283.367 52.4564 283.348C52.479 283.334 52.505 283.327 52.5315 283.327C52.558 283.327 52.584 283.334 52.6066 283.348C52.6312 283.363 57.5724 286.032 57.5724 286.032C57.5931 286.044 57.6167 286.049 57.6406 286.049" fill="url(#paint1_linear_4026_5198)"/>
<path d="M49.073 291.868L52.4848 293.735C52.5065 293.746 52.5311 293.753 52.5562 293.752C52.581 293.753 52.6055 293.747 52.6268 293.735L55.9926 291.894C56.014 291.882 56.0317 291.865 56.0441 291.844C56.0564 291.824 56.063 291.8 56.0632 291.777V288.099C56.0629 288.075 56.0562 288.052 56.0439 288.032C56.0315 288.012 56.0139 287.995 55.9926 287.983L52.6268 286.142C52.6051 286.131 52.5806 286.125 52.5558 286.125C52.5309 286.125 52.5065 286.131 52.4848 286.142L49.6862 287.675L49.1313 287.926C49.1069 287.937 49.0863 287.954 49.0718 287.976C49.0572 287.997 49.0494 288.022 49.0492 288.047V290.732L49.0016 291.748C49.0006 291.772 49.0067 291.797 49.0191 291.818C49.0316 291.84 49.0499 291.858 49.0722 291.87" fill="url(#paint2_linear_4026_5198)"/>
<path d="M49.5914 306.84C51.0887 307.583 53.4267 307.851 55.4668 306.84C55.9667 306.583 65.877 301.207 65.877 301.207C67.5952 300.179 69.5178 298.206 69.5178 295.244V283.882C69.5177 283.861 69.5119 283.84 69.501 283.821C69.4901 283.802 69.4745 283.786 69.4554 283.774C69.437 283.762 69.4157 283.754 69.3933 283.752C69.3709 283.749 69.3482 283.752 69.3274 283.76L65.359 285.188C65.3326 285.197 65.3099 285.214 65.2938 285.236C65.2777 285.258 65.2689 285.283 65.2687 285.31C65.2687 285.31 65.3212 295.138 65.2605 295.401C65.1702 296.236 64.451 297.345 63.7532 297.725L54.049 303.032C53.2987 303.443 51.7676 303.443 51.0181 303.032L41.3131 297.725C40.6153 297.343 39.897 296.236 39.8075 295.401C39.7468 295.138 39.7985 285.31 39.7985 285.31C39.7984 285.284 39.7898 285.258 39.7738 285.236C39.7579 285.214 39.7352 285.197 39.709 285.188L35.7406 283.76C35.7194 283.752 35.6963 283.749 35.6733 283.751C35.6504 283.753 35.6283 283.76 35.6091 283.772C35.5899 283.784 35.5742 283.801 35.5634 283.82C35.5525 283.839 35.5468 283.861 35.5469 283.882V295.247C35.5469 298.208 37.4695 300.181 39.1869 301.209C39.1869 301.209 49.0101 306.554 49.5881 306.84" fill="url(#paint3_linear_4026_5198)"/>
<path d="M50.7754 299.919C51.3182 300.186 51.9221 300.323 52.5339 300.317C53.1404 300.323 53.7393 300.189 54.28 299.929L60.8162 296.4C62.0969 295.721 62.6559 294.684 62.6559 293.426V286.483C62.656 286.462 62.6507 286.442 62.6404 286.423C62.6301 286.405 62.6151 286.389 62.5968 286.377C62.5785 286.365 62.5573 286.358 62.5351 286.355C62.513 286.352 62.4905 286.355 62.4696 286.362L58.7573 287.684C58.7315 287.693 58.7092 287.71 58.6934 287.731C58.6775 287.752 58.6689 287.778 58.6687 287.804V293.178C58.6696 293.2 58.664 293.222 58.6526 293.241C58.6411 293.26 58.6242 293.275 58.6038 293.286C58.5603 293.305 52.5757 296.498 52.5757 296.498C52.549 296.509 52.5201 296.515 52.4908 296.515C52.4615 296.515 52.4325 296.509 52.4058 296.498L46.4655 293.284C46.4448 293.273 46.4275 293.258 46.4159 293.239C46.4043 293.219 46.3987 293.198 46.3999 293.175V287.802C46.3998 287.776 46.3913 287.75 46.3756 287.729C46.36 287.707 46.3378 287.691 46.312 287.682L42.5989 286.36C42.5782 286.353 42.5558 286.35 42.5338 286.353C42.5117 286.355 42.4907 286.363 42.4725 286.375C42.454 286.386 42.4389 286.402 42.4284 286.421C42.4179 286.439 42.4125 286.46 42.4126 286.481V293.424C42.4126 294.682 42.9725 295.719 44.2523 296.398L50.7754 299.919Z" fill="url(#paint4_linear_4026_5198)"/>
</g>
</g>
<defs>
<filter id="filter0_d_4026_5198" x="20.5" y="262" width="64" height="64" filterUnits="userSpaceOnUse" color-interpolation-filters="sRGB">
<feFlood flood-opacity="0" result="BackgroundImageFix"/>
<feColorMatrix in="SourceAlpha" type="matrix" values="0 0 0 0 0 0 0 0 0 0 0 0 0 0 0 0 0 0 127 0" result="hardAlpha"/>
<feOffset dy="4"/>
<feGaussianBlur stdDeviation="2"/>
<feComposite in2="hardAlpha" operator="out"/>
<feColorMatrix type="matrix" values="0 0 0 0 0 0 0 0 0 0 0 0 0 0 0 0 0 0 0.25 0"/>
<feBlend mode="normal" in2="BackgroundImageFix" result="effect1_dropShadow_4026_5198"/>
<feBlend mode="normal" in="SourceGraphic" in2="effect1_dropShadow_4026_5198" result="shape"/>
</filter>
<linearGradient id="paint0_linear_4026_5198" x1="38.4481" y1="277.16" x2="66.62" y2="277.16" gradientUnits="userSpaceOnUse">
<stop stop-color="#6FBE44"/>
<stop offset="1" stop-color="#30B34A"/>
</linearGradient>
<linearGradient id="paint1_linear_4026_5198" x1="2665.67" y1="1300.35" x2="6035.03" y2="1300.35" gradientUnits="userSpaceOnUse">
<stop stop-color="#6FBE44"/>
<stop offset="1" stop-color="#30B34A"/>
</linearGradient>
<linearGradient id="paint2_linear_4026_5198" x1="1573.7" y1="2186.9" x2="2181.15" y2="2186.9" gradientUnits="userSpaceOnUse">
<stop stop-color="#6FBE44"/>
<stop offset="1" stop-color="#30B34A"/>
</linearGradient>
<linearGradient id="paint3_linear_4026_5198" x1="35.5502" y1="295.627" x2="69.5178" y2="295.627" gradientUnits="userSpaceOnUse">
<stop stop-color="#6F7073"/>
<stop offset="1" stop-color="#8C8F91"/>
</linearGradient>
<linearGradient id="paint4_linear_4026_5198" x1="2787.81" y1="4376.57" x2="7779.82" y2="4376.57" gradientUnits="userSpaceOnUse">
<stop stop-color="#6F7073"/>
<stop offset="1" stop-color="#8C8F91"/>
</linearGradient>
<clipPath id="clip0_4026_5198">
<rect width="513" height="342" fill="white" transform="translate(0 0.5)"/>
</clipPath>
</defs>
</svg>
