<svg width="513" height="343" viewBox="0 0 513 343" fill="none" xmlns="http://www.w3.org/2000/svg">
<g clip-path="url(#clip0_4026_5284)">
<path d="M0 0.5H513V342.5H0V0.5Z" fill="#FFDA44"/>
<path d="M222.6 22.7969H489.7V319.597H222.6V22.7969Z" fill="#A2001D"/>
<path d="M22.2998 22.7969H222.6V319.597H22.2998V22.7969Z" fill="#D80027"/>
<path d="M200.3 0.5H222.6V342.5H200.3V0.5Z" fill="#FFDA44"/>
<path d="M22.2998 22.7969H111.3V319.597H22.2998V22.7969Z" fill="#6DA544"/>
<path d="M111.3 22.7969H200.3V319.597H111.3V22.7969Z" fill="#FF9811"/>
<path d="M368.2 157.299C366.8 155.299 368.2 119.399 368.2 119.399C369.1 111.999 368.3 110.999 369.2 107.999C370.1 105.099 374.6 96.3987 374.6 96.3987C374.6 96.3987 368.6 94.0987 364.3 95.7987C360 97.4987 339.6 88.2987 333.1 99.1987C328.7 106.199 309.5 115.399 308.5 113.199C307.5 110.999 302.6 108.199 301.6 110.299C300.6 112.399 300.9 124.199 301.6 126.299C302.4 128.899 311.4 128.299 313.9 129.399C317.6 131.199 326.1 137.599 325.8 140.099C325.5 142.599 303.3 134.099 301.6 135.599C300.2 136.799 299.7 148.799 301.2 150.599C303 152.699 324.6 156.199 326.2 158.099C327.8 159.999 313.1 165.499 313.9 183.099C314.6 197.799 321.9 200.499 321.9 200.499C321.9 200.499 319.5 204.099 314.1 203.599C307.9 202.999 286.7 185.899 286.7 185.899C286.7 185.899 283.2 76.8987 290.3 64.4987C295.2 55.9987 267.6 74.5987 267.6 115.299V151.499C267.6 158.099 266.2 173.899 270.2 185.499C270.2 185.499 269.8 232.399 271.7 235.099C273.6 237.799 284.4 237.299 286.5 235.099C288.6 232.899 286.5 205.099 286.5 205.099C294.2 205.299 304.8 222.599 319 221.499C339.6 219.899 347.7 211.599 353.3 216.499C361.4 223.599 358.8 239.699 353.7 247.999C351.5 251.499 339.4 252.699 338 255.599C336.6 258.499 338.5 260.999 338.5 260.999H368.2C368.2 260.999 369.6 240.499 370.9 234.899C372.2 229.199 370.3 224.199 376.8 224.499C400.3 225.599 416.6 209.199 422.3 216.499C425.5 220.599 427.9 246.399 425.6 249.799C423.4 253.199 411.8 252.599 410.4 256.499C409 260.499 411.2 260.899 411.2 260.899H440.9C440.9 260.899 440.5 239.699 443.4 233.199C446.3 226.699 448.3 222.799 452.7 215.999C457.1 209.199 464 200.299 464 179.799C464 165.599 455.9 156.999 455.9 156.999H417C402.9 157.199 369.6 159.299 368.2 157.299ZM232.2 32.7987C242.9 22.1987 252.4 30.0987 254.4 34.8987C256.3 39.6987 256.5 43.0987 257.2 48.4987C258.1 55.3987 262.1 62.4987 262.1 62.4987C262.1 62.4987 255 58.6987 247.4 58.2987C242.7 57.9987 238.4 57.6987 233.8 55.7987C228.1 53.4987 222.1 42.8987 232.2 32.7987ZM480.6 32.6987C491.3 43.2987 483.4 52.8987 478.6 54.8987C473.8 56.8987 470.4 56.9987 465 57.6987C458.1 58.5987 451 62.6987 451 62.6987C451 62.6987 454.7 55.5987 455.2 47.9987C455.5 43.2987 455.8 38.8987 457.6 34.3987C459.8 28.6987 470.4 22.5987 480.6 32.6987ZM480.7 309.599C470 320.199 460.5 312.199 458.5 307.399C456.6 302.599 456.4 299.199 455.8 293.799C455 286.899 450.9 279.699 450.9 279.699C450.9 279.699 457.9 283.499 465.6 283.999C470.3 284.299 474.6 284.599 479.2 286.499C484.9 288.899 490.9 299.599 480.7 309.599ZM232.5 309.499C221.9 298.799 229.8 289.299 234.6 287.299C239.4 285.399 242.8 285.199 248.2 284.499C255.1 283.599 262.2 279.599 262.2 279.599C262.2 279.599 258.4 286.699 258 294.299C257.7 298.999 257.4 303.299 255.5 307.899C253.2 313.599 242.6 319.699 232.5 309.499Z" fill="#FFDA44"/>
<path d="M446.9 162.903C446.9 162.903 454.4 160.303 455.3 146.803C455.9 138.203 435.5 130.803 416.3 135.303C396.6 139.903 382.3 132.203 382.3 120.703C382.3 97.8034 412 104.503 421.2 109.403C430.3 114.303 450.9 132.903 456.3 118.803" stroke="#FFDA44" stroke-width="6" stroke-miterlimit="10"/>
<g filter="url(#filter0_d_4026_5284)">
<rect x="24.5" y="262" width="56" height="56" rx="28" fill="white"/>
<path d="M41.786 281.788C41.8103 281.808 41.8412 281.818 41.8731 281.818C41.8976 281.819 41.9218 281.812 41.9428 281.8L51.0207 276.838C51.7702 276.427 53.3012 276.427 54.0516 276.838L63.1237 281.8C63.148 281.813 63.1762 281.82 63.2044 281.818C63.2327 281.815 63.2595 281.805 63.2813 281.788L66.5691 279.242C66.5865 279.229 66.6003 279.211 66.6091 279.191C66.618 279.172 66.6217 279.15 66.62 279.129C66.6178 279.108 66.6104 279.087 66.5984 279.069C66.5864 279.051 66.5702 279.036 66.5511 279.025L56.1745 273.355C55.1713 272.805 53.8759 272.5 52.5361 272.5C51.1964 272.5 49.9009 272.802 48.8961 273.355L38.5171 279.032C38.4974 279.042 38.4808 279.057 38.4688 279.075C38.4567 279.093 38.4496 279.114 38.4481 279.135C38.4465 279.156 38.4502 279.178 38.4589 279.197C38.4676 279.217 38.481 279.235 38.4982 279.248L41.786 281.788Z" fill="url(#paint0_linear_4026_5284)"/>
<path d="M57.6406 286.05C57.6719 286.05 57.7022 286.04 57.7268 286.022L60.7987 283.67C60.8159 283.657 60.8295 283.64 60.8382 283.621C60.8469 283.602 60.8506 283.581 60.8488 283.56C60.847 283.54 60.8399 283.519 60.828 283.502C60.8161 283.484 60.7998 283.47 60.7806 283.46L54.3724 279.995C53.3274 279.429 51.7455 279.428 50.693 279.995L44.2857 283.461C44.2668 283.471 44.2509 283.486 44.2392 283.503C44.2275 283.521 44.2203 283.541 44.2183 283.561C44.2163 283.582 44.2198 283.603 44.2286 283.622C44.2373 283.641 44.251 283.658 44.2684 283.671L47.342 286.019C47.3638 286.036 47.3903 286.045 47.4181 286.048C47.4459 286.05 47.4737 286.044 47.498 286.031C47.498 286.031 52.4235 283.371 52.4564 283.351C52.479 283.338 52.505 283.331 52.5315 283.331C52.558 283.331 52.584 283.338 52.6066 283.351C52.6312 283.367 57.5724 286.036 57.5724 286.036C57.5931 286.048 57.6167 286.053 57.6406 286.053" fill="url(#paint1_linear_4026_5284)"/>
<path d="M49.073 291.868L52.4848 293.735C52.5065 293.746 52.5311 293.753 52.5562 293.752C52.581 293.753 52.6055 293.747 52.6268 293.735L55.9926 291.894C56.014 291.882 56.0317 291.865 56.0441 291.844C56.0564 291.824 56.063 291.8 56.0632 291.777V288.099C56.0629 288.075 56.0562 288.052 56.0439 288.032C56.0315 288.012 56.0139 287.995 55.9926 287.983L52.6268 286.142C52.6051 286.131 52.5806 286.125 52.5558 286.125C52.5309 286.125 52.5065 286.131 52.4848 286.142L49.6862 287.675L49.1313 287.926C49.1069 287.937 49.0863 287.954 49.0718 287.976C49.0572 287.997 49.0494 288.022 49.0492 288.047V290.732L49.0016 291.748C49.0006 291.772 49.0067 291.797 49.0191 291.818C49.0316 291.84 49.0499 291.858 49.0722 291.87" fill="url(#paint2_linear_4026_5284)"/>
<path d="M49.5914 306.84C51.0887 307.583 53.4267 307.851 55.4668 306.84C55.9667 306.583 65.877 301.207 65.877 301.207C67.5952 300.179 69.5178 298.206 69.5178 295.244V283.882C69.5177 283.861 69.5119 283.84 69.501 283.821C69.4901 283.802 69.4745 283.786 69.4554 283.774C69.437 283.762 69.4157 283.754 69.3933 283.752C69.3709 283.749 69.3482 283.752 69.3274 283.76L65.359 285.188C65.3326 285.197 65.3099 285.214 65.2938 285.236C65.2777 285.258 65.2689 285.283 65.2687 285.31C65.2687 285.31 65.3212 295.138 65.2605 295.401C65.1702 296.236 64.451 297.345 63.7532 297.725L54.049 303.032C53.2987 303.443 51.7676 303.443 51.0181 303.032L41.3131 297.725C40.6153 297.343 39.897 296.236 39.8075 295.401C39.7468 295.138 39.7985 285.31 39.7985 285.31C39.7984 285.284 39.7898 285.258 39.7738 285.236C39.7579 285.214 39.7352 285.197 39.709 285.188L35.7406 283.76C35.7194 283.752 35.6963 283.749 35.6733 283.751C35.6504 283.753 35.6283 283.76 35.6091 283.772C35.5899 283.784 35.5742 283.801 35.5634 283.82C35.5525 283.839 35.5468 283.861 35.5469 283.882V295.247C35.5469 298.208 37.4695 300.181 39.1869 301.209C39.1869 301.209 49.0101 306.554 49.5881 306.84" fill="url(#paint3_linear_4026_5284)"/>
<path d="M50.7754 299.919C51.3182 300.186 51.9221 300.323 52.5339 300.317C53.1404 300.323 53.7393 300.189 54.28 299.929L60.8162 296.4C62.0969 295.721 62.6559 294.684 62.6559 293.426V286.483C62.656 286.462 62.6507 286.442 62.6404 286.423C62.6301 286.405 62.6151 286.389 62.5968 286.377C62.5785 286.365 62.5573 286.358 62.5351 286.355C62.513 286.352 62.4905 286.355 62.4696 286.362L58.7573 287.684C58.7315 287.693 58.7092 287.71 58.6934 287.731C58.6775 287.752 58.6689 287.778 58.6687 287.804V293.178C58.6696 293.2 58.664 293.222 58.6526 293.241C58.6411 293.26 58.6242 293.275 58.6038 293.286C58.5603 293.305 52.5757 296.498 52.5757 296.498C52.549 296.509 52.5201 296.515 52.4908 296.515C52.4615 296.515 52.4325 296.509 52.4058 296.498L46.4655 293.284C46.4448 293.273 46.4275 293.258 46.4159 293.239C46.4043 293.219 46.3987 293.198 46.3999 293.175V287.802C46.3998 287.776 46.3913 287.75 46.3756 287.729C46.36 287.707 46.3378 287.691 46.312 287.682L42.5989 286.36C42.5782 286.353 42.5558 286.35 42.5338 286.353C42.5117 286.355 42.4907 286.363 42.4725 286.375C42.454 286.386 42.4389 286.402 42.4284 286.421C42.4179 286.439 42.4125 286.46 42.4126 286.481V293.424C42.4126 294.682 42.9725 295.719 44.2523 296.398L50.7754 299.919Z" fill="url(#paint4_linear_4026_5284)"/>
</g>
</g>
<defs>
<filter id="filter0_d_4026_5284" x="20.5" y="262" width="64" height="64" filterUnits="userSpaceOnUse" color-interpolation-filters="sRGB">
<feFlood flood-opacity="0" result="BackgroundImageFix"/>
<feColorMatrix in="SourceAlpha" type="matrix" values="0 0 0 0 0 0 0 0 0 0 0 0 0 0 0 0 0 0 127 0" result="hardAlpha"/>
<feOffset dy="4"/>
<feGaussianBlur stdDeviation="2"/>
<feComposite in2="hardAlpha" operator="out"/>
<feColorMatrix type="matrix" values="0 0 0 0 0 0 0 0 0 0 0 0 0 0 0 0 0 0 0.25 0"/>
<feBlend mode="normal" in2="BackgroundImageFix" result="effect1_dropShadow_4026_5284"/>
<feBlend mode="normal" in="SourceGraphic" in2="effect1_dropShadow_4026_5284" result="shape"/>
</filter>
<linearGradient id="paint0_linear_4026_5284" x1="38.4481" y1="277.16" x2="66.62" y2="277.16" gradientUnits="userSpaceOnUse">
<stop stop-color="#6FBE44"/>
<stop offset="1" stop-color="#30B34A"/>
</linearGradient>
<linearGradient id="paint1_linear_4026_5284" x1="2665.67" y1="1300.35" x2="6035.03" y2="1300.35" gradientUnits="userSpaceOnUse">
<stop stop-color="#6FBE44"/>
<stop offset="1" stop-color="#30B34A"/>
</linearGradient>
<linearGradient id="paint2_linear_4026_5284" x1="1573.7" y1="2186.9" x2="2181.15" y2="2186.9" gradientUnits="userSpaceOnUse">
<stop stop-color="#6FBE44"/>
<stop offset="1" stop-color="#30B34A"/>
</linearGradient>
<linearGradient id="paint3_linear_4026_5284" x1="35.5502" y1="295.627" x2="69.5178" y2="295.627" gradientUnits="userSpaceOnUse">
<stop stop-color="#6F7073"/>
<stop offset="1" stop-color="#8C8F91"/>
</linearGradient>
<linearGradient id="paint4_linear_4026_5284" x1="2787.81" y1="4376.57" x2="7779.82" y2="4376.57" gradientUnits="userSpaceOnUse">
<stop stop-color="#6F7073"/>
<stop offset="1" stop-color="#8C8F91"/>
</linearGradient>
<clipPath id="clip0_4026_5284">
<rect width="513" height="342" fill="white" transform="translate(0 0.5)"/>
</clipPath>
</defs>
</svg>
