<svg width="512" height="342" viewBox="0 0 512 342" fill="none" xmlns="http://www.w3.org/2000/svg">
<g clip-path="url(#clip0_4026_5380)">
<path d="M0 0.179688H512V341.517H0V0.179688Z" fill="#00745A"/>
<path d="M285.682 163.728C281.492 163.728 277.516 164.564 273.821 165.892C275.844 161.383 277.2 156.365 277.2 151.007C277.2 129.806 255.999 113.906 255.999 113.906C255.999 113.906 234.798 129.807 234.798 151.007C234.798 156.364 236.154 161.382 238.177 165.892C234.484 164.564 230.506 163.728 226.316 163.728C205.115 163.728 189.215 184.929 189.215 184.929C189.215 184.929 205.116 206.13 226.316 206.13C238.745 206.13 249.347 198.844 255.998 192.815C262.648 198.845 273.249 206.13 285.68 206.13C306.881 206.13 322.781 184.929 322.781 184.929C322.781 184.929 306.882 163.728 285.682 163.728Z" fill="white"/>
<path d="M256 66.9609L260.38 80.437H274.551L263.087 88.769L267.463 102.245L256 93.9149L244.537 102.245L248.913 88.769L237.449 80.437H251.62L256 66.9609ZM202.112 90.5329L210.537 98.118L220.355 92.4509L215.745 102.806L224.168 110.394L212.894 109.209L208.283 119.564L205.925 108.476L194.65 107.291L204.468 101.622L202.112 90.5329ZM162.662 129.982L173.752 132.34L179.42 122.522L180.606 133.796L191.695 136.154L181.338 140.764L182.524 152.038L174.937 143.615L164.58 148.225L170.249 138.407L162.662 129.982ZM309.889 90.5329L301.464 98.118L291.646 92.4509L296.257 102.806L287.832 110.394L299.107 109.209L303.717 119.564L306.076 108.476L317.351 107.291L307.533 101.622L309.889 90.5329ZM349.338 129.982L338.249 132.34L332.58 122.522L331.394 133.796L320.306 136.154L330.663 140.764L329.478 152.038L337.064 143.615L347.421 148.225L341.752 138.407L349.338 129.982Z" fill="#FFDA44"/>
<path d="M256 265.491C272.84 265.491 288.363 259.872 300.816 250.418H211.186C223.637 259.872 239.16 265.491 256 265.491ZM187.977 220.969C190.322 226.324 193.293 231.384 196.827 236.042H315.172C318.706 231.384 321.677 226.325 324.022 220.969H187.977Z" fill="white"/>
</g>
<defs>
<clipPath id="clip0_4026_5380">
<rect width="512" height="341.333" fill="white" transform="translate(0 0.179688)"/>
</clipPath>
</defs>
</svg>
