<svg width="513" height="343" viewBox="0 0 513 343" fill="none" xmlns="http://www.w3.org/2000/svg">
<g clip-path="url(#clip0_4026_5395)">
<path d="M0 0.515625H513V342.516H0V0.515625Z" fill="#0052B4"/>
<path d="M512 148.916V193.416H278.3V341.816H233.7V193.416H0V148.916H233.7V0.515625H278.3V148.916H512Z" fill="white"/>
<path d="M101 36.6187C105.2 36.4187 109.3 36.5187 113.5 36.8187C119 37.2187 122.9 38.4187 122.6 37.3187C122.1 35.5187 122.5 35.1188 121.8 35.5188C120.5 36.5188 122.5 35.3188 114.4 39.9188C102.6 46.6188 97.4998 51.7188 100.1 60.9188C102.4 69.0188 108.3 71.2188 122.4 73.4188L124.3 73.7187C129.9 74.6187 132.4 75.1188 134.1 75.9188C134.5 76.1188 133.8 74.9187 134 74.2187C133.8 74.8187 130.1 76.3187 120.7 78.1187L116 79.0187C97.8998 82.7187 88.8998 87.5188 87.4998 100.019C85.9998 113.719 100.2 123.319 118.1 125.619C136.3 128.019 152.2 122.019 153.8 107.219C154.8 97.8188 148.3 92.2188 137.9 90.1188C130.9 88.7188 121.6 88.7188 110.5 89.8188C98.0998 91.1188 85.7998 93.2188 73.5998 96.1188C69.9998 96.8188 67.6998 100.319 68.3998 103.919C69.0998 107.519 72.5998 109.819 76.1998 109.119C76.3998 109.119 76.4998 109.019 76.6998 109.019C88.2998 106.319 99.9998 104.319 111.8 103.119C121.7 102.119 129.8 102.119 135.2 103.219C139.6 104.119 140.5 104.919 140.4 105.819C139.9 110.919 131.5 114.019 119.7 112.519C108.1 111.019 100.2 105.719 100.6 101.519C101.1 97.2188 105.9 94.7188 118.5 92.1188L123.1 91.2188C138.6 88.2188 144.2 85.9187 146.6 78.0187C148.5 71.5187 145.3 66.4187 139.4 63.8187C136.2 62.4187 133.1 61.7188 126.2 60.7188L124.4 60.4188C116.4 59.1188 113 57.8188 112.9 57.4188C112.8 57.0188 114.7 55.1188 121 51.5188L125.4 49.0188C126.9 48.2188 128.3 47.2188 129.7 46.3188C134.3 42.9188 136.9 39.2188 135.5 34.0188C133.6 26.7188 126.5 24.5188 114.6 23.6188C109.9 23.3188 105.3 23.2187 100.6 23.3187L98.5998 23.4188C94.8998 23.6188 92.0998 26.8188 92.2998 30.4188C92.4998 34.1188 95.6998 36.9188 99.2998 36.7188L101 36.6187ZM385 36.6187C389.2 36.4187 393.3 36.5187 397.5 36.8187C403 37.2187 406.9 38.4187 406.6 37.3187C406.1 35.5187 406.5 35.1188 405.8 35.5188C404.5 36.5188 406.5 35.3188 398.4 39.9188C386.6 46.6188 381.5 51.7188 384.1 60.9188C386.4 69.0188 392.3 71.2188 406.4 73.4188L408.3 73.7187C413.9 74.6187 416.4 75.1188 418.1 75.9188C418.5 76.1188 417.8 74.9187 418 74.2187C417.8 74.8187 414.1 76.3187 404.7 78.1187L400 79.0187C381.9 82.7187 372.9 87.5188 371.5 100.019C370 113.719 384.2 123.319 402.1 125.619C420.3 128.019 436.2 122.019 437.8 107.219C438.8 97.8188 432.3 92.2188 421.9 90.1188C414.9 88.7188 405.6 88.7188 394.5 89.8188C382.1 91.1188 369.8 93.2188 357.6 96.1188C354 96.8188 351.7 100.319 352.4 103.919C353.1 107.519 356.6 109.819 360.2 109.119C360.4 109.119 360.5 109.019 360.7 109.019C372.3 106.319 384 104.319 395.8 103.119C405.7 102.119 413.8 102.119 419.2 103.219C423.6 104.119 424.5 104.919 424.4 105.819C423.9 110.919 415.5 114.019 403.7 112.519C392.1 111.019 384.2 105.719 384.6 101.519C385.1 97.2188 389.9 94.7188 402.5 92.1188L407.1 91.2188C422.6 88.2188 428.2 85.9187 430.6 78.0187C432.5 71.5187 429.3 66.4187 423.4 63.8187C420.2 62.4187 417.1 61.7188 410.2 60.7188L408.4 60.4188C400.4 59.1188 397 57.8188 396.9 57.4188C396.8 57.0188 398.7 55.1188 405 51.5188L409.4 49.0188C410.9 48.2188 412.3 47.2188 413.7 46.3188C418.3 42.9188 420.9 39.2188 419.5 34.0188C417.6 26.7188 410.5 24.5188 398.6 23.6188C393.9 23.3188 389.3 23.2187 384.6 23.3187L382.6 23.4188C378.9 23.6188 376.1 26.8188 376.3 30.4188C376.5 34.1188 379.7 36.9188 383.3 36.7188L385 36.6187ZM379.6 235.619C383.8 235.419 387.9 235.519 392.1 235.819C397.6 236.219 401.5 237.419 401.2 236.319C400.7 234.519 401.1 234.119 400.4 234.519C399.1 235.519 401.1 234.319 393 238.919C381.2 245.619 376.1 250.719 378.7 259.919C381 268.019 386.9 270.219 401 272.419L402.9 272.719C408.5 273.619 411 274.119 412.7 274.919C413.1 275.119 412.4 273.919 412.6 273.219C412.4 273.819 408.7 275.319 399.3 277.119L394.6 278.019C376.5 281.719 367.5 286.519 366.1 299.019C364.6 312.719 378.8 322.319 396.7 324.619C414.9 327.019 430.8 321.019 432.4 306.219C433.4 296.819 426.9 291.219 416.5 289.119C409.5 287.719 400.2 287.719 389.1 288.819C376.7 290.119 364.4 292.219 352.2 295.119C348.6 295.819 346.3 299.319 347 302.919C347.7 306.519 351.2 308.819 354.8 308.119C355 308.119 355.1 308.019 355.3 308.019C366.9 305.319 378.6 303.319 390.4 302.119C400.3 301.119 408.4 301.119 413.8 302.219C418.2 303.119 419.1 303.919 419 304.819C418.5 309.919 410.1 313.019 398.3 311.519C386.7 310.019 378.8 304.719 379.2 300.519C379.7 296.219 384.5 293.719 397.1 291.119L401.7 290.219C417.2 287.219 422.8 284.919 425.2 277.019C427.1 270.519 423.9 265.419 418 262.819C414.8 261.419 411.7 260.719 404.8 259.719L403 259.419C395 258.119 391.6 256.819 391.5 256.419C391.4 256.019 393.3 254.119 399.6 250.519L404 248.019C405.5 247.219 406.9 246.219 408.3 245.319C412.9 241.919 415.5 238.219 414.1 233.019C412.2 225.719 405.1 223.519 393.2 222.619C388.5 222.319 383.9 222.219 379.2 222.319L377.2 222.419C373.5 222.619 370.7 225.819 370.9 229.419C371.1 233.019 374.3 235.919 377.9 235.719L379.6 235.619ZM101 235.619C105.2 235.419 109.3 235.519 113.5 235.819C119 236.219 122.9 237.419 122.6 236.319C122.1 234.519 122.5 234.119 121.8 234.519C120.5 235.519 122.5 234.319 114.4 238.919C102.6 245.619 97.4998 250.719 100.1 259.919C102.4 268.019 108.3 270.219 122.4 272.419L124.3 272.719C129.9 273.619 132.4 274.119 134.1 274.919C134.5 275.119 133.8 273.919 134 273.219C133.8 273.819 130.1 275.319 120.7 277.119L116 278.019C97.8998 281.719 88.8998 286.519 87.4998 299.019C85.9998 312.719 100.2 322.319 118.1 324.619C136.3 327.019 152.2 321.019 153.8 306.219C154.8 296.819 148.3 291.219 137.9 289.119C130.9 287.719 121.6 287.719 110.5 288.819C98.0998 290.119 85.7998 292.219 73.5998 295.119C69.9998 295.819 67.6998 299.319 68.3998 302.919C69.0998 306.519 72.5998 308.819 76.1998 308.119C76.3998 308.119 76.4998 308.019 76.6998 308.019C88.2998 305.319 99.9998 303.319 111.8 302.119C121.7 301.119 129.8 301.119 135.2 302.219C139.6 303.119 140.5 303.919 140.4 304.819C139.9 309.919 131.5 313.019 119.7 311.519C108.1 310.019 100.2 304.719 100.6 300.519C101.1 296.219 105.9 293.719 118.5 291.119L123.1 290.219C138.6 287.219 144.2 284.919 146.6 277.019C148.5 270.519 145.3 265.419 139.4 262.819C136.2 261.419 133.1 260.719 126.2 259.719L124.4 259.419C116.4 258.119 113 256.819 112.9 256.419C112.8 256.019 114.7 254.119 121 250.519L125.4 248.019C126.9 247.219 128.3 246.219 129.7 245.319C134.3 241.919 136.9 238.219 135.5 233.019C133.6 225.719 126.5 223.519 114.6 222.619C109.9 222.319 105.3 222.219 100.6 222.319L98.5998 222.419C94.8998 222.619 92.0998 225.819 92.2998 229.419C92.4998 233.119 95.6998 235.919 99.2998 235.719L101 235.619Z" fill="white"/>
<g filter="url(#filter0_d_4026_5395)">
<rect x="24.5" y="262" width="56" height="56" rx="28" fill="white"/>
<path d="M41.786 281.788C41.8103 281.808 41.8412 281.818 41.8731 281.818C41.8976 281.819 41.9218 281.812 41.9428 281.8L51.0207 276.838C51.7702 276.427 53.3012 276.427 54.0516 276.838L63.1237 281.8C63.148 281.813 63.1762 281.82 63.2044 281.818C63.2327 281.815 63.2595 281.805 63.2813 281.788L66.5691 279.242C66.5865 279.229 66.6003 279.211 66.6091 279.191C66.618 279.172 66.6217 279.15 66.62 279.129C66.6178 279.108 66.6104 279.087 66.5984 279.069C66.5864 279.051 66.5702 279.036 66.5511 279.025L56.1745 273.355C55.1713 272.805 53.8759 272.5 52.5361 272.5C51.1964 272.5 49.9009 272.802 48.8961 273.355L38.5171 279.032C38.4974 279.042 38.4808 279.057 38.4688 279.075C38.4567 279.093 38.4496 279.114 38.4481 279.135C38.4465 279.156 38.4502 279.178 38.4589 279.197C38.4676 279.217 38.481 279.235 38.4982 279.248L41.786 281.788Z" fill="url(#paint0_linear_4026_5395)"/>
<path d="M57.6406 286.05C57.6719 286.05 57.7022 286.04 57.7268 286.022L60.7987 283.67C60.8159 283.657 60.8295 283.64 60.8382 283.621C60.8469 283.602 60.8506 283.581 60.8488 283.56C60.847 283.54 60.8399 283.519 60.828 283.502C60.8161 283.484 60.7998 283.47 60.7806 283.46L54.3724 279.995C53.3274 279.429 51.7455 279.428 50.693 279.995L44.2857 283.461C44.2668 283.471 44.2509 283.486 44.2392 283.503C44.2275 283.521 44.2203 283.541 44.2183 283.561C44.2163 283.582 44.2198 283.603 44.2286 283.622C44.2373 283.641 44.251 283.658 44.2684 283.671L47.342 286.019C47.3638 286.036 47.3903 286.045 47.4181 286.048C47.4459 286.05 47.4737 286.044 47.498 286.031C47.498 286.031 52.4235 283.371 52.4564 283.351C52.479 283.338 52.505 283.331 52.5315 283.331C52.558 283.331 52.584 283.338 52.6066 283.351C52.6312 283.367 57.5724 286.036 57.5724 286.036C57.5931 286.048 57.6167 286.053 57.6406 286.053" fill="url(#paint1_linear_4026_5395)"/>
<path d="M49.073 291.868L52.4848 293.735C52.5065 293.746 52.5311 293.753 52.5562 293.752C52.581 293.753 52.6055 293.747 52.6268 293.735L55.9926 291.894C56.014 291.882 56.0317 291.865 56.0441 291.844C56.0564 291.824 56.063 291.8 56.0632 291.777V288.099C56.0629 288.075 56.0562 288.052 56.0439 288.032C56.0315 288.012 56.0139 287.995 55.9926 287.983L52.6268 286.142C52.6051 286.131 52.5806 286.125 52.5558 286.125C52.5309 286.125 52.5065 286.131 52.4848 286.142L49.6862 287.675L49.1313 287.926C49.1069 287.937 49.0863 287.954 49.0718 287.976C49.0572 287.997 49.0494 288.022 49.0492 288.047V290.732L49.0016 291.748C49.0006 291.772 49.0067 291.797 49.0191 291.818C49.0316 291.84 49.0499 291.858 49.0722 291.87" fill="url(#paint2_linear_4026_5395)"/>
<path d="M49.5914 306.84C51.0887 307.583 53.4267 307.851 55.4668 306.84C55.9667 306.583 65.877 301.207 65.877 301.207C67.5952 300.179 69.5178 298.206 69.5178 295.244V283.882C69.5177 283.861 69.5119 283.84 69.501 283.821C69.4901 283.802 69.4745 283.786 69.4554 283.774C69.437 283.762 69.4157 283.754 69.3933 283.752C69.3709 283.749 69.3482 283.752 69.3274 283.76L65.359 285.188C65.3326 285.197 65.3099 285.214 65.2938 285.236C65.2777 285.258 65.2689 285.283 65.2687 285.31C65.2687 285.31 65.3212 295.138 65.2605 295.401C65.1702 296.236 64.451 297.345 63.7532 297.725L54.049 303.032C53.2987 303.443 51.7676 303.443 51.0181 303.032L41.3131 297.725C40.6153 297.343 39.897 296.236 39.8075 295.401C39.7468 295.138 39.7985 285.31 39.7985 285.31C39.7984 285.284 39.7898 285.258 39.7738 285.236C39.7579 285.214 39.7352 285.197 39.709 285.188L35.7406 283.76C35.7194 283.752 35.6963 283.749 35.6733 283.751C35.6504 283.753 35.6283 283.76 35.6091 283.772C35.5899 283.784 35.5742 283.801 35.5634 283.82C35.5525 283.839 35.5468 283.861 35.5469 283.882V295.247C35.5469 298.208 37.4695 300.181 39.1869 301.209C39.1869 301.209 49.0101 306.554 49.5881 306.84" fill="url(#paint3_linear_4026_5395)"/>
<path d="M50.7754 299.919C51.3182 300.186 51.9221 300.323 52.5339 300.317C53.1404 300.323 53.7393 300.189 54.28 299.929L60.8162 296.4C62.0969 295.721 62.6559 294.684 62.6559 293.426V286.483C62.656 286.462 62.6507 286.442 62.6404 286.423C62.6301 286.405 62.6151 286.389 62.5968 286.377C62.5785 286.365 62.5573 286.358 62.5351 286.355C62.513 286.352 62.4905 286.355 62.4696 286.362L58.7573 287.684C58.7315 287.693 58.7092 287.71 58.6934 287.731C58.6775 287.752 58.6689 287.778 58.6687 287.804V293.178C58.6696 293.2 58.664 293.222 58.6526 293.241C58.6411 293.26 58.6242 293.275 58.6038 293.286C58.5603 293.305 52.5757 296.498 52.5757 296.498C52.549 296.509 52.5201 296.515 52.4908 296.515C52.4615 296.515 52.4325 296.509 52.4058 296.498L46.4655 293.284C46.4448 293.273 46.4275 293.258 46.4159 293.239C46.4043 293.219 46.3987 293.198 46.3999 293.175V287.802C46.3998 287.776 46.3913 287.75 46.3756 287.729C46.36 287.707 46.3378 287.691 46.312 287.682L42.5989 286.36C42.5782 286.353 42.5558 286.35 42.5338 286.353C42.5117 286.355 42.4907 286.363 42.4725 286.375C42.454 286.386 42.4389 286.402 42.4284 286.421C42.4179 286.439 42.4125 286.46 42.4126 286.481V293.424C42.4126 294.682 42.9725 295.719 44.2523 296.398L50.7754 299.919Z" fill="url(#paint4_linear_4026_5395)"/>
</g>
</g>
<defs>
<filter id="filter0_d_4026_5395" x="20.5" y="262" width="64" height="64" filterUnits="userSpaceOnUse" color-interpolation-filters="sRGB">
<feFlood flood-opacity="0" result="BackgroundImageFix"/>
<feColorMatrix in="SourceAlpha" type="matrix" values="0 0 0 0 0 0 0 0 0 0 0 0 0 0 0 0 0 0 127 0" result="hardAlpha"/>
<feOffset dy="4"/>
<feGaussianBlur stdDeviation="2"/>
<feComposite in2="hardAlpha" operator="out"/>
<feColorMatrix type="matrix" values="0 0 0 0 0 0 0 0 0 0 0 0 0 0 0 0 0 0 0.25 0"/>
<feBlend mode="normal" in2="BackgroundImageFix" result="effect1_dropShadow_4026_5395"/>
<feBlend mode="normal" in="SourceGraphic" in2="effect1_dropShadow_4026_5395" result="shape"/>
</filter>
<linearGradient id="paint0_linear_4026_5395" x1="38.4481" y1="277.16" x2="66.62" y2="277.16" gradientUnits="userSpaceOnUse">
<stop stop-color="#6FBE44"/>
<stop offset="1" stop-color="#30B34A"/>
</linearGradient>
<linearGradient id="paint1_linear_4026_5395" x1="2665.67" y1="1300.35" x2="6035.03" y2="1300.35" gradientUnits="userSpaceOnUse">
<stop stop-color="#6FBE44"/>
<stop offset="1" stop-color="#30B34A"/>
</linearGradient>
<linearGradient id="paint2_linear_4026_5395" x1="1573.7" y1="2186.9" x2="2181.15" y2="2186.9" gradientUnits="userSpaceOnUse">
<stop stop-color="#6FBE44"/>
<stop offset="1" stop-color="#30B34A"/>
</linearGradient>
<linearGradient id="paint3_linear_4026_5395" x1="35.5502" y1="295.627" x2="69.5178" y2="295.627" gradientUnits="userSpaceOnUse">
<stop stop-color="#6F7073"/>
<stop offset="1" stop-color="#8C8F91"/>
</linearGradient>
<linearGradient id="paint4_linear_4026_5395" x1="2787.81" y1="4376.57" x2="7779.82" y2="4376.57" gradientUnits="userSpaceOnUse">
<stop stop-color="#6F7073"/>
<stop offset="1" stop-color="#8C8F91"/>
</linearGradient>
<clipPath id="clip0_4026_5395">
<rect width="513" height="342" fill="white" transform="translate(0 0.515625)"/>
</clipPath>
</defs>
</svg>
