<svg width="513" height="343" viewBox="0 0 513 343" fill="none" xmlns="http://www.w3.org/2000/svg">
<g clip-path="url(#clip0_4026_5448)">
<path d="M0 0.1875H513V342.188H0V0.1875Z" fill="white"/>
<path d="M0 238.188H513V342.188H0V238.188Z" fill="#F4D900"/>
<path d="M0 0.1875H513V104.187H0V0.1875Z" fill="#006D66"/>
<path d="M0 119.188H513V223.188H0V119.188Z" fill="black"/>
<path d="M256 170.863L0 341.525V0.1875L256 170.863Z" fill="#CB0F31"/>
<g filter="url(#filter0_d_4026_5448)">
<rect x="24" y="262.188" width="56" height="56" rx="28" fill="white"/>
<path d="M41.286 281.976C41.3103 281.995 41.3412 282.006 41.3731 282.006C41.3976 282.006 41.4218 282 41.4428 281.988L50.5207 277.026C51.2702 276.615 52.8012 276.615 53.5516 277.026L62.6237 281.987C62.648 282.001 62.6762 282.007 62.7044 282.005C62.7327 282.003 62.7595 281.993 62.7813 281.976L66.0691 279.43C66.0865 279.416 66.1003 279.399 66.1091 279.379C66.118 279.359 66.1217 279.338 66.12 279.316C66.1178 279.295 66.1104 279.275 66.0984 279.257C66.0864 279.239 66.0702 279.224 66.0511 279.213L55.6745 273.543C54.6713 272.992 53.3759 272.688 52.0361 272.688C50.6964 272.688 49.4009 272.99 48.3961 273.543L38.0171 279.219C37.9974 279.229 37.9808 279.244 37.9688 279.262C37.9567 279.281 37.9496 279.301 37.9481 279.322C37.9465 279.344 37.9502 279.365 37.9589 279.385C37.9676 279.405 37.981 279.422 37.9982 279.436L41.286 281.976Z" fill="url(#paint0_linear_4026_5448)"/>
<path d="M57.1406 286.238C57.1719 286.238 57.2022 286.228 57.2268 286.209L60.2987 283.858C60.3159 283.845 60.3295 283.828 60.3382 283.809C60.3469 283.79 60.3506 283.769 60.3488 283.748C60.347 283.727 60.3399 283.707 60.328 283.689C60.3161 283.672 60.2998 283.657 60.2806 283.647L53.8724 280.183C52.8274 279.617 51.2455 279.615 50.193 280.183L43.7857 283.649C43.7668 283.659 43.7509 283.674 43.7392 283.691C43.7275 283.708 43.7203 283.728 43.7183 283.749C43.7163 283.77 43.7198 283.791 43.7286 283.81C43.7373 283.829 43.751 283.846 43.7684 283.859L46.842 286.207C46.8638 286.223 46.8903 286.233 46.9181 286.235C46.9459 286.237 46.9737 286.231 46.998 286.218C46.998 286.218 51.9235 283.558 51.9564 283.539C51.979 283.526 52.005 283.519 52.0315 283.519C52.058 283.519 52.084 283.526 52.1066 283.539C52.1312 283.554 57.0724 286.224 57.0724 286.224C57.0931 286.235 57.1167 286.241 57.1406 286.24" fill="url(#paint1_linear_4026_5448)"/>
<path d="M48.573 292.056L51.9848 293.922C52.0065 293.934 52.0311 293.94 52.0562 293.94C52.081 293.94 52.1055 293.934 52.1268 293.922L55.4926 292.082C55.514 292.069 55.5317 292.052 55.5441 292.032C55.5564 292.011 55.563 291.988 55.5632 291.964V288.286C55.5629 288.263 55.5562 288.24 55.5439 288.22C55.5315 288.199 55.5139 288.182 55.4926 288.17L52.1268 286.33C52.1051 286.319 52.0806 286.312 52.0558 286.312C52.0309 286.312 52.0065 286.319 51.9848 286.33L49.1862 287.863L48.6313 288.114C48.6069 288.125 48.5863 288.142 48.5718 288.163C48.5572 288.185 48.5494 288.209 48.5492 288.235V290.919L48.5016 291.935C48.5006 291.96 48.5067 291.984 48.5191 292.006C48.5316 292.027 48.5499 292.045 48.5722 292.057" fill="url(#paint2_linear_4026_5448)"/>
<path d="M49.0914 307.028C50.5887 307.771 52.9267 308.038 54.9668 307.028C55.4667 306.771 65.377 301.394 65.377 301.394C67.0952 300.366 69.0178 298.393 69.0178 295.432V284.07C69.0177 284.048 69.0119 284.027 69.001 284.008C68.9901 283.99 68.9745 283.974 68.9554 283.962C68.937 283.95 68.9157 283.942 68.8933 283.939C68.8709 283.937 68.8482 283.94 68.8274 283.948L64.859 285.375C64.8326 285.385 64.8099 285.401 64.7938 285.423C64.7777 285.445 64.7689 285.471 64.7687 285.498C64.7687 285.498 64.8212 295.326 64.7605 295.589C64.6702 296.423 63.951 297.533 63.2532 297.912L53.549 303.219C52.7987 303.63 51.2676 303.63 50.5181 303.219L40.8131 297.912C40.1153 297.53 39.397 296.423 39.3075 295.589C39.2468 295.326 39.2985 285.498 39.2985 285.498C39.2984 285.471 39.2898 285.445 39.2738 285.423C39.2579 285.401 39.2352 285.385 39.209 285.375L35.2406 283.948C35.2194 283.939 35.1963 283.936 35.1733 283.938C35.1504 283.94 35.1283 283.948 35.1091 283.96C35.0899 283.972 35.0742 283.988 35.0634 284.007C35.0525 284.027 35.0468 284.048 35.0469 284.07V295.434C35.0469 298.396 36.9695 300.369 38.6869 301.396C38.6869 301.396 48.5101 306.741 49.0881 307.028" fill="url(#paint3_linear_4026_5448)"/>
<path d="M50.2754 300.106C50.8182 300.373 51.4221 300.51 52.0339 300.505C52.6404 300.51 53.2393 300.377 53.78 300.116L60.3162 296.588C61.5969 295.909 62.1559 294.871 62.1559 293.613V286.67C62.156 286.65 62.1507 286.629 62.1404 286.611C62.1301 286.592 62.1151 286.576 62.0968 286.565C62.0785 286.553 62.0573 286.545 62.0351 286.542C62.013 286.54 61.9905 286.542 61.9696 286.55L58.2573 287.872C58.2315 287.881 58.2092 287.897 58.1934 287.919C58.1775 287.94 58.1689 287.965 58.1687 287.992V293.365C58.1696 293.387 58.164 293.409 58.1526 293.428C58.1411 293.447 58.1242 293.463 58.1038 293.473C58.0603 293.493 52.0757 296.686 52.0757 296.686C52.049 296.697 52.0201 296.703 51.9908 296.703C51.9615 296.703 51.9325 296.697 51.9058 296.686L45.9655 293.471C45.9448 293.461 45.9275 293.445 45.9159 293.426C45.9043 293.407 45.8987 293.385 45.8999 293.363V287.989C45.8998 287.963 45.8913 287.938 45.8756 287.916C45.86 287.895 45.8378 287.879 45.812 287.869L42.0989 286.548C42.0782 286.54 42.0558 286.537 42.0338 286.54C42.0117 286.543 41.9907 286.55 41.9725 286.562C41.954 286.574 41.9389 286.59 41.9284 286.608C41.9179 286.627 41.9125 286.647 41.9126 286.668V293.611C41.9126 294.869 42.4725 295.906 43.7523 296.585L50.2754 300.106Z" fill="url(#paint4_linear_4026_5448)"/>
</g>
<path d="M83.477 109.984L98.584 156.482H147.478L107.924 185.221L123.031 231.72L83.477 202.982L43.922 231.72L59.032 185.221L19.478 156.482H68.37L83.477 109.984Z" fill="#F4D900"/>
</g>
<defs>
<filter id="filter0_d_4026_5448" x="20" y="262.188" width="64" height="64" filterUnits="userSpaceOnUse" color-interpolation-filters="sRGB">
<feFlood flood-opacity="0" result="BackgroundImageFix"/>
<feColorMatrix in="SourceAlpha" type="matrix" values="0 0 0 0 0 0 0 0 0 0 0 0 0 0 0 0 0 0 127 0" result="hardAlpha"/>
<feOffset dy="4"/>
<feGaussianBlur stdDeviation="2"/>
<feComposite in2="hardAlpha" operator="out"/>
<feColorMatrix type="matrix" values="0 0 0 0 0 0 0 0 0 0 0 0 0 0 0 0 0 0 0.25 0"/>
<feBlend mode="normal" in2="BackgroundImageFix" result="effect1_dropShadow_4026_5448"/>
<feBlend mode="normal" in="SourceGraphic" in2="effect1_dropShadow_4026_5448" result="shape"/>
</filter>
<linearGradient id="paint0_linear_4026_5448" x1="37.9481" y1="277.347" x2="66.12" y2="277.347" gradientUnits="userSpaceOnUse">
<stop stop-color="#6FBE44"/>
<stop offset="1" stop-color="#30B34A"/>
</linearGradient>
<linearGradient id="paint1_linear_4026_5448" x1="2665.17" y1="1300.54" x2="6034.53" y2="1300.54" gradientUnits="userSpaceOnUse">
<stop stop-color="#6FBE44"/>
<stop offset="1" stop-color="#30B34A"/>
</linearGradient>
<linearGradient id="paint2_linear_4026_5448" x1="1573.2" y1="2187.09" x2="2180.65" y2="2187.09" gradientUnits="userSpaceOnUse">
<stop stop-color="#6FBE44"/>
<stop offset="1" stop-color="#30B34A"/>
</linearGradient>
<linearGradient id="paint3_linear_4026_5448" x1="35.0502" y1="295.814" x2="69.0178" y2="295.814" gradientUnits="userSpaceOnUse">
<stop stop-color="#6F7073"/>
<stop offset="1" stop-color="#8C8F91"/>
</linearGradient>
<linearGradient id="paint4_linear_4026_5448" x1="2787.31" y1="4376.76" x2="7779.32" y2="4376.76" gradientUnits="userSpaceOnUse">
<stop stop-color="#6F7073"/>
<stop offset="1" stop-color="#8C8F91"/>
</linearGradient>
<clipPath id="clip0_4026_5448">
<rect width="513" height="342" fill="white" transform="translate(0 0.1875)"/>
</clipPath>
</defs>
</svg>
