<svg width="512" height="343" viewBox="0 0 512 343" fill="none" xmlns="http://www.w3.org/2000/svg">
<g clip-path="url(#clip0_4026_5485)">
<path d="M0 0.867188H512V342.86H0V0.867188Z" fill="white"/>
<path d="M0 0.867188H512V114.865H0V0.867188ZM0 228.863H512V342.86H0V228.863Z" fill="#338AF3"/>
<g filter="url(#filter0_d_4026_5485)">
<rect x="24" y="263.188" width="56" height="56" rx="28" fill="white"/>
<path d="M41.286 282.976C41.3103 282.995 41.3412 283.006 41.3731 283.006C41.3976 283.006 41.4218 283 41.4428 282.988L50.5207 278.026C51.2702 277.615 52.8012 277.615 53.5516 278.026L62.6237 282.987C62.648 283.001 62.6762 283.007 62.7044 283.005C62.7327 283.003 62.7595 282.993 62.7813 282.976L66.0691 280.43C66.0865 280.416 66.1003 280.399 66.1091 280.379C66.118 280.359 66.1217 280.338 66.12 280.316C66.1178 280.295 66.1104 280.275 66.0984 280.257C66.0864 280.239 66.0702 280.224 66.0511 280.213L55.6745 274.543C54.6713 273.992 53.3759 273.688 52.0361 273.688C50.6964 273.688 49.4009 273.99 48.3961 274.543L38.0171 280.219C37.9974 280.229 37.9808 280.244 37.9688 280.262C37.9567 280.281 37.9496 280.301 37.9481 280.322C37.9465 280.344 37.9502 280.365 37.9589 280.385C37.9676 280.405 37.981 280.422 37.9982 280.436L41.286 282.976Z" fill="url(#paint0_linear_4026_5485)"/>
<path d="M57.1406 287.238C57.1719 287.238 57.2022 287.228 57.2268 287.209L60.2987 284.858C60.3159 284.845 60.3295 284.828 60.3382 284.809C60.3469 284.79 60.3506 284.769 60.3488 284.748C60.347 284.727 60.3399 284.707 60.328 284.689C60.3161 284.672 60.2998 284.657 60.2806 284.647L53.8724 281.183C52.8274 280.617 51.2455 280.615 50.193 281.183L43.7857 284.649C43.7668 284.659 43.7509 284.674 43.7392 284.691C43.7275 284.708 43.7203 284.728 43.7183 284.749C43.7163 284.77 43.7198 284.791 43.7286 284.81C43.7373 284.829 43.751 284.846 43.7684 284.859L46.842 287.207C46.8638 287.223 46.8903 287.233 46.9181 287.235C46.9459 287.237 46.9737 287.231 46.998 287.218C46.998 287.218 51.9235 284.558 51.9564 284.539C51.979 284.526 52.005 284.519 52.0315 284.519C52.058 284.519 52.084 284.526 52.1066 284.539C52.1312 284.554 57.0724 287.224 57.0724 287.224C57.0931 287.235 57.1167 287.241 57.1406 287.24" fill="url(#paint1_linear_4026_5485)"/>
<path d="M48.573 293.056L51.9848 294.922C52.0065 294.934 52.0311 294.94 52.0562 294.94C52.081 294.94 52.1055 294.934 52.1268 294.922L55.4926 293.082C55.514 293.069 55.5317 293.052 55.5441 293.032C55.5564 293.011 55.563 292.988 55.5632 292.964V289.286C55.5629 289.263 55.5562 289.24 55.5439 289.22C55.5315 289.199 55.5139 289.182 55.4926 289.17L52.1268 287.33C52.1051 287.319 52.0806 287.312 52.0558 287.312C52.0309 287.312 52.0065 287.319 51.9848 287.33L49.1862 288.863L48.6313 289.114C48.6069 289.125 48.5863 289.142 48.5718 289.163C48.5572 289.185 48.5494 289.209 48.5492 289.235V291.919L48.5016 292.935C48.5006 292.96 48.5067 292.984 48.5191 293.006C48.5316 293.027 48.5499 293.045 48.5722 293.057" fill="url(#paint2_linear_4026_5485)"/>
<path d="M49.0914 308.028C50.5887 308.771 52.9267 309.038 54.9668 308.028C55.4667 307.771 65.377 302.394 65.377 302.394C67.0952 301.366 69.0178 299.393 69.0178 296.432V285.07C69.0177 285.048 69.0119 285.027 69.001 285.008C68.9901 284.99 68.9745 284.974 68.9554 284.962C68.937 284.95 68.9157 284.942 68.8933 284.939C68.8709 284.937 68.8482 284.94 68.8274 284.948L64.859 286.375C64.8326 286.385 64.8099 286.401 64.7938 286.423C64.7777 286.445 64.7689 286.471 64.7687 286.498C64.7687 286.498 64.8212 296.326 64.7605 296.589C64.6702 297.423 63.951 298.533 63.2532 298.912L53.549 304.219C52.7987 304.63 51.2676 304.63 50.5181 304.219L40.8131 298.912C40.1153 298.53 39.397 297.423 39.3075 296.589C39.2468 296.326 39.2985 286.498 39.2985 286.498C39.2984 286.471 39.2898 286.445 39.2738 286.423C39.2579 286.401 39.2352 286.385 39.209 286.375L35.2406 284.948C35.2194 284.939 35.1963 284.936 35.1733 284.938C35.1504 284.94 35.1283 284.948 35.1091 284.96C35.0899 284.972 35.0742 284.988 35.0634 285.007C35.0525 285.027 35.0468 285.048 35.0469 285.07V296.434C35.0469 299.396 36.9695 301.369 38.6869 302.396C38.6869 302.396 48.5101 307.741 49.0881 308.028" fill="url(#paint3_linear_4026_5485)"/>
<path d="M50.2754 301.106C50.8182 301.373 51.4221 301.51 52.0339 301.505C52.6404 301.51 53.2393 301.377 53.78 301.116L60.3162 297.588C61.5969 296.909 62.1559 295.871 62.1559 294.613V287.67C62.156 287.65 62.1507 287.629 62.1404 287.611C62.1301 287.592 62.1151 287.576 62.0968 287.565C62.0785 287.553 62.0573 287.545 62.0351 287.542C62.013 287.54 61.9905 287.542 61.9696 287.55L58.2573 288.872C58.2315 288.881 58.2092 288.897 58.1934 288.919C58.1775 288.94 58.1689 288.965 58.1687 288.992V294.365C58.1696 294.387 58.164 294.409 58.1526 294.428C58.1411 294.447 58.1242 294.463 58.1038 294.473C58.0603 294.493 52.0757 297.686 52.0757 297.686C52.049 297.697 52.0201 297.703 51.9908 297.703C51.9615 297.703 51.9325 297.697 51.9058 297.686L45.9655 294.471C45.9448 294.461 45.9275 294.445 45.9159 294.426C45.9043 294.407 45.8987 294.385 45.8999 294.363V288.989C45.8998 288.963 45.8913 288.938 45.8756 288.916C45.86 288.895 45.8378 288.879 45.812 288.869L42.0989 287.548C42.0782 287.54 42.0558 287.537 42.0338 287.54C42.0117 287.543 41.9907 287.55 41.9725 287.562C41.954 287.574 41.9389 287.59 41.9284 287.608C41.9179 287.627 41.9125 287.647 41.9126 287.668V294.611C41.9126 295.869 42.4725 296.906 43.7523 297.585L50.2754 301.106Z" fill="url(#paint4_linear_4026_5485)"/>
</g>
<path d="M256 130.227C233.051 130.227 214.447 148.866 214.447 171.861C214.447 194.856 233.05 213.495 256 213.495C278.949 213.495 297.553 194.856 297.553 171.861C297.553 148.866 278.949 130.227 256 130.227ZM256 195.652C242.886 195.652 232.255 185 232.255 171.861C232.255 158.721 242.886 148.069 256 148.069C269.114 148.069 279.745 158.721 279.745 171.861C279.745 185 269.114 195.652 256 195.652Z" fill="#FFDA44"/>
<path d="M276.563 177.807L256 171.859L235.437 177.807L228.582 189.703H283.418L276.563 177.807Z" fill="#0052B4"/>
<path d="M256 142.125L242.291 165.915L256 171.863L269.709 165.915L256 142.125Z" fill="#338AF3"/>
<path d="M235.437 177.809H276.563L269.709 165.914H242.291L235.437 177.809Z" fill="#6DA544"/>
</g>
<defs>
<filter id="filter0_d_4026_5485" x="20" y="263.188" width="64" height="64" filterUnits="userSpaceOnUse" color-interpolation-filters="sRGB">
<feFlood flood-opacity="0" result="BackgroundImageFix"/>
<feColorMatrix in="SourceAlpha" type="matrix" values="0 0 0 0 0 0 0 0 0 0 0 0 0 0 0 0 0 0 127 0" result="hardAlpha"/>
<feOffset dy="4"/>
<feGaussianBlur stdDeviation="2"/>
<feComposite in2="hardAlpha" operator="out"/>
<feColorMatrix type="matrix" values="0 0 0 0 0 0 0 0 0 0 0 0 0 0 0 0 0 0 0.25 0"/>
<feBlend mode="normal" in2="BackgroundImageFix" result="effect1_dropShadow_4026_5485"/>
<feBlend mode="normal" in="SourceGraphic" in2="effect1_dropShadow_4026_5485" result="shape"/>
</filter>
<linearGradient id="paint0_linear_4026_5485" x1="37.9481" y1="278.347" x2="66.12" y2="278.347" gradientUnits="userSpaceOnUse">
<stop stop-color="#6FBE44"/>
<stop offset="1" stop-color="#30B34A"/>
</linearGradient>
<linearGradient id="paint1_linear_4026_5485" x1="2665.17" y1="1301.54" x2="6034.53" y2="1301.54" gradientUnits="userSpaceOnUse">
<stop stop-color="#6FBE44"/>
<stop offset="1" stop-color="#30B34A"/>
</linearGradient>
<linearGradient id="paint2_linear_4026_5485" x1="1573.2" y1="2188.09" x2="2180.65" y2="2188.09" gradientUnits="userSpaceOnUse">
<stop stop-color="#6FBE44"/>
<stop offset="1" stop-color="#30B34A"/>
</linearGradient>
<linearGradient id="paint3_linear_4026_5485" x1="35.0502" y1="296.814" x2="69.0178" y2="296.814" gradientUnits="userSpaceOnUse">
<stop stop-color="#6F7073"/>
<stop offset="1" stop-color="#8C8F91"/>
</linearGradient>
<linearGradient id="paint4_linear_4026_5485" x1="2787.31" y1="4377.76" x2="7779.32" y2="4377.76" gradientUnits="userSpaceOnUse">
<stop stop-color="#6F7073"/>
<stop offset="1" stop-color="#8C8F91"/>
</linearGradient>
<clipPath id="clip0_4026_5485">
<rect width="512" height="342" fill="white" transform="translate(0 0.859375)"/>
</clipPath>
</defs>
</svg>
