<svg width="512" height="343" viewBox="0 0 512 343" fill="none" xmlns="http://www.w3.org/2000/svg">
<g clip-path="url(#clip0_4026_5512)">
<path d="M0 0.859375H512V342.863H0V0.859375Z" fill="#FFDA44"/>
<path d="M0 0.859375H256V171.856H0V0.859375Z" fill="white"/>
<path d="M144 0.851562H112V70.32H0V102.383H112V171.852H144V102.383H256V70.32H144V0.851562Z" fill="#D80027"/>
<path d="M0 0.851562V15.964L57.377 54.2898H80L0 0.851562Z" fill="#D80027"/>
<path d="M0 23.5236V54.2956H46.069L0 23.5236ZM96 0.859375V49.868L22.628 0.859375H96Z" fill="#2E52B2"/>
<path d="M256 0.851562V15.964L198.623 54.2898H176L256 0.851562Z" fill="#D80027"/>
<path d="M256 23.5236V54.2956H209.931L256 23.5236ZM160 0.859375V49.868L233.372 0.859375H160Z" fill="#2E52B2"/>
<path d="M0 0.851562V15.964L57.377 54.2898H80L0 0.851562Z" fill="#D80027"/>
<path d="M0 23.5236V54.2956H46.069L0 23.5236ZM96 0.859375V49.868L22.628 0.859375H96Z" fill="#2E52B2"/>
<path d="M256 0.851562V15.964L198.623 54.2898H176L256 0.851562Z" fill="#D80027"/>
<path d="M256 23.5236V54.2956H209.931L256 23.5236ZM160 0.859375V49.868L233.372 0.859375H160Z" fill="#2E52B2"/>
<path d="M0 171.86V156.749L57.377 118.422H80L0 171.86Z" fill="#D80027"/>
<path d="M0 149.195V118.422H46.069L0 149.195ZM96 171.857V122.85L22.628 171.857H96Z" fill="#2E52B2"/>
<path d="M256 171.86V156.749L198.623 118.422H176L256 171.86Z" fill="#D80027"/>
<path d="M256 149.187V118.414H209.931L256 149.187ZM160 171.849V122.842L233.372 171.849H160Z" fill="#2E52B2"/>
<path d="M128 109.022C140.497 109.022 150.627 98.8719 150.627 86.3509C150.627 73.8299 140.497 63.6797 128 63.6797C115.503 63.6797 105.373 73.8299 105.373 86.3509C105.373 98.8719 115.503 109.022 128 109.022Z" fill="#2E52B2"/>
<path d="M128 70.3272L131.97 82.5731H144.824L134.426 90.1439L138.397 102.39L128 94.821L117.602 102.39L121.574 90.1439L111.176 82.5731H124.029L128 70.3272ZM128 135.595L130.364 142.887H138.017L131.827 147.394L134.191 154.686L128 150.179L121.809 154.686L124.173 147.394L117.983 142.887H125.635L128 135.595ZM128 18.0312L130.364 25.3235H138.017L131.827 29.8303L134.191 37.1225L128 32.6157L121.809 37.1225L124.173 29.8303L117.983 25.3235H125.635L128 18.0312ZM197.931 76.8129L200.296 84.1041H207.949L201.757 88.6119L204.122 95.9051L197.931 91.3983L191.74 95.9051L194.105 88.6119L187.914 84.1041H195.566L197.931 76.8129ZM58.0688 76.8129L60.4328 84.1041H68.0858L61.8948 88.6119L64.2588 95.9051L58.0688 91.3983L51.8778 95.9051L54.2428 88.6119L48.0508 84.1041H55.7038L58.0688 76.8129Z" fill="#FFDA44"/>
<g filter="url(#filter0_d_4026_5512)">
<rect x="24" y="262.859" width="56" height="56" rx="28" fill="white"/>
<path d="M41.286 282.647C41.3103 282.667 41.3412 282.678 41.3731 282.678C41.3976 282.678 41.4218 282.672 41.4428 282.66L50.5207 277.697C51.2702 277.287 52.8012 277.287 53.5516 277.697L62.6237 282.659C62.648 282.673 62.6762 282.679 62.7044 282.677C62.7327 282.675 62.7595 282.665 62.7813 282.647L66.0691 280.102C66.0865 280.088 66.1003 280.07 66.1091 280.051C66.118 280.031 66.1217 280.01 66.12 279.988C66.1178 279.967 66.1104 279.947 66.0984 279.929C66.0864 279.911 66.0702 279.896 66.0511 279.885L55.6745 274.215C54.6713 273.664 53.3759 273.359 52.0361 273.359C50.6964 273.359 49.4009 273.662 48.3961 274.215L38.0171 279.891C37.9974 279.901 37.9808 279.916 37.9688 279.934C37.9567 279.952 37.9496 279.973 37.9481 279.994C37.9465 280.016 37.9502 280.037 37.9589 280.057C37.9676 280.076 37.981 280.094 37.9982 280.108L41.286 282.647Z" fill="url(#paint0_linear_4026_5512)"/>
<path d="M57.1406 286.91C57.1719 286.91 57.2022 286.899 57.2268 286.881L60.2987 284.53C60.3159 284.517 60.3295 284.5 60.3382 284.481C60.3469 284.461 60.3506 284.44 60.3488 284.42C60.347 284.399 60.3399 284.379 60.328 284.361C60.3161 284.344 60.2998 284.329 60.2806 284.319L53.8724 280.855C52.8274 280.289 51.2455 280.287 50.193 280.855L43.7857 284.32C43.7668 284.331 43.7509 284.345 43.7392 284.363C43.7275 284.38 43.7203 284.4 43.7183 284.421C43.7163 284.442 43.7198 284.462 43.7286 284.482C43.7373 284.501 43.751 284.518 43.7684 284.53L46.842 286.879C46.8638 286.895 46.8903 286.905 46.9181 286.907C46.9459 286.909 46.9737 286.903 46.998 286.89C46.998 286.89 51.9235 284.23 51.9564 284.211C51.979 284.198 52.005 284.191 52.0315 284.191C52.058 284.191 52.084 284.198 52.1066 284.211C52.1312 284.226 57.0724 286.896 57.0724 286.896C57.0931 286.907 57.1167 286.913 57.1406 286.912" fill="url(#paint1_linear_4026_5512)"/>
<path d="M48.573 292.728L51.9848 294.594C52.0065 294.606 52.0311 294.612 52.0562 294.612C52.081 294.612 52.1055 294.606 52.1268 294.594L55.4926 292.753C55.514 292.741 55.5317 292.724 55.5441 292.703C55.5564 292.683 55.563 292.66 55.5632 292.636V288.958C55.5629 288.935 55.5562 288.912 55.5439 288.892C55.5315 288.871 55.5139 288.854 55.4926 288.842L52.1268 287.002C52.1051 286.99 52.0806 286.984 52.0558 286.984C52.0309 286.984 52.0065 286.99 51.9848 287.002L49.1862 288.534L48.6313 288.786C48.6069 288.796 48.5863 288.814 48.5718 288.835C48.5572 288.856 48.5494 288.881 48.5492 288.907V291.591L48.5016 292.607C48.5006 292.632 48.5067 292.656 48.5191 292.678C48.5316 292.699 48.5499 292.717 48.5722 292.729" fill="url(#paint2_linear_4026_5512)"/>
<path d="M49.0914 307.699C50.5887 308.443 52.9267 308.71 54.9668 307.699C55.4667 307.443 65.377 302.066 65.377 302.066C67.0952 301.038 69.0178 299.065 69.0178 296.104V284.742C69.0177 284.72 69.0119 284.699 69.001 284.68C68.9901 284.661 68.9745 284.645 68.9554 284.634C68.937 284.621 68.9157 284.614 68.8933 284.611C68.8709 284.609 68.8482 284.612 68.8274 284.62L64.859 286.047C64.8326 286.057 64.8099 286.073 64.7938 286.095C64.7777 286.117 64.7689 286.143 64.7687 286.169C64.7687 286.169 64.8212 295.998 64.7605 296.261C64.6702 297.095 63.951 298.205 63.2532 298.584L53.549 303.891C52.7987 304.302 51.2676 304.302 50.5181 303.891L40.8131 298.584C40.1153 298.202 39.397 297.095 39.3075 296.261C39.2468 295.998 39.2985 286.169 39.2985 286.169C39.2984 286.143 39.2898 286.117 39.2738 286.095C39.2579 286.073 39.2352 286.057 39.209 286.047L35.2406 284.62C35.2194 284.611 35.1963 284.608 35.1733 284.61C35.1504 284.612 35.1283 284.619 35.1091 284.632C35.0899 284.644 35.0742 284.66 35.0634 284.679C35.0525 284.698 35.0468 284.72 35.0469 284.742V296.106C35.0469 299.068 36.9695 301.04 38.6869 302.068C38.6869 302.068 48.5101 307.413 49.0881 307.699" fill="url(#paint3_linear_4026_5512)"/>
<path d="M50.2754 300.778C50.8182 301.045 51.4221 301.182 52.0339 301.177C52.6404 301.182 53.2393 301.049 53.78 300.788L60.3162 297.259C61.5969 296.581 62.1559 295.543 62.1559 294.285V287.342C62.156 287.321 62.1507 287.301 62.1404 287.282C62.1301 287.264 62.1151 287.248 62.0968 287.237C62.0785 287.225 62.0573 287.217 62.0351 287.214C62.013 287.212 61.9905 287.214 61.9696 287.222L58.2573 288.544C58.2315 288.553 58.2092 288.569 58.1934 288.59C58.1775 288.612 58.1689 288.637 58.1687 288.663V294.037C58.1696 294.059 58.164 294.081 58.1526 294.1C58.1411 294.119 58.1242 294.135 58.1038 294.145C58.0603 294.165 52.0757 297.357 52.0757 297.357C52.049 297.369 52.0201 297.375 51.9908 297.375C51.9615 297.375 51.9325 297.369 51.9058 297.357L45.9655 294.143C45.9448 294.133 45.9275 294.117 45.9159 294.098C45.9043 294.079 45.8987 294.057 45.8999 294.035V288.661C45.8998 288.635 45.8913 288.61 45.8756 288.588C45.86 288.567 45.8378 288.55 45.812 288.541L42.0989 287.219C42.0782 287.212 42.0558 287.209 42.0338 287.212C42.0117 287.214 41.9907 287.222 41.9725 287.234C41.954 287.246 41.9389 287.261 41.9284 287.28C41.9179 287.298 41.9125 287.319 41.9126 287.34V294.283C41.9126 295.541 42.4725 296.578 43.7523 297.257L50.2754 300.778Z" fill="url(#paint4_linear_4026_5512)"/>
</g>
</g>
<defs>
<filter id="filter0_d_4026_5512" x="20" y="262.859" width="64" height="64" filterUnits="userSpaceOnUse" color-interpolation-filters="sRGB">
<feFlood flood-opacity="0" result="BackgroundImageFix"/>
<feColorMatrix in="SourceAlpha" type="matrix" values="0 0 0 0 0 0 0 0 0 0 0 0 0 0 0 0 0 0 127 0" result="hardAlpha"/>
<feOffset dy="4"/>
<feGaussianBlur stdDeviation="2"/>
<feComposite in2="hardAlpha" operator="out"/>
<feColorMatrix type="matrix" values="0 0 0 0 0 0 0 0 0 0 0 0 0 0 0 0 0 0 0.25 0"/>
<feBlend mode="normal" in2="BackgroundImageFix" result="effect1_dropShadow_4026_5512"/>
<feBlend mode="normal" in="SourceGraphic" in2="effect1_dropShadow_4026_5512" result="shape"/>
</filter>
<linearGradient id="paint0_linear_4026_5512" x1="37.9481" y1="278.019" x2="66.12" y2="278.019" gradientUnits="userSpaceOnUse">
<stop stop-color="#6FBE44"/>
<stop offset="1" stop-color="#30B34A"/>
</linearGradient>
<linearGradient id="paint1_linear_4026_5512" x1="2665.17" y1="1301.21" x2="6034.53" y2="1301.21" gradientUnits="userSpaceOnUse">
<stop stop-color="#6FBE44"/>
<stop offset="1" stop-color="#30B34A"/>
</linearGradient>
<linearGradient id="paint2_linear_4026_5512" x1="1573.2" y1="2187.76" x2="2180.65" y2="2187.76" gradientUnits="userSpaceOnUse">
<stop stop-color="#6FBE44"/>
<stop offset="1" stop-color="#30B34A"/>
</linearGradient>
<linearGradient id="paint3_linear_4026_5512" x1="35.0502" y1="296.486" x2="69.0178" y2="296.486" gradientUnits="userSpaceOnUse">
<stop stop-color="#6F7073"/>
<stop offset="1" stop-color="#8C8F91"/>
</linearGradient>
<linearGradient id="paint4_linear_4026_5512" x1="2787.31" y1="4377.43" x2="7779.32" y2="4377.43" gradientUnits="userSpaceOnUse">
<stop stop-color="#6F7073"/>
<stop offset="1" stop-color="#8C8F91"/>
</linearGradient>
<clipPath id="clip0_4026_5512">
<rect width="512" height="342" fill="white" transform="translate(0 0.859375)"/>
</clipPath>
</defs>
</svg>
