<svg width="513" height="343" viewBox="0 0 513 343" fill="none" xmlns="http://www.w3.org/2000/svg">
<g clip-path="url(#clip0_4026_5552)">
<path d="M0 0.859375H513V342.859H0V0.859375Z" fill="#D80027"/>
<g filter="url(#filter0_d_4026_5552)">
<rect x="24.5" y="262.859" width="56" height="56" rx="28" fill="white"/>
<path d="M41.786 282.647C41.8103 282.667 41.8412 282.678 41.8731 282.678C41.8976 282.678 41.9218 282.672 41.9428 282.66L51.0207 277.697C51.7702 277.287 53.3012 277.287 54.0516 277.697L63.1237 282.659C63.148 282.673 63.1762 282.679 63.2044 282.677C63.2327 282.675 63.2595 282.665 63.2813 282.647L66.5691 280.102C66.5865 280.088 66.6003 280.07 66.6091 280.051C66.618 280.031 66.6217 280.01 66.62 279.988C66.6178 279.967 66.6104 279.947 66.5984 279.929C66.5864 279.911 66.5702 279.896 66.5511 279.885L56.1745 274.215C55.1713 273.664 53.8759 273.359 52.5361 273.359C51.1964 273.359 49.9009 273.662 48.8961 274.215L38.5171 279.891C38.4974 279.901 38.4808 279.916 38.4688 279.934C38.4567 279.952 38.4496 279.973 38.4481 279.994C38.4465 280.016 38.4502 280.037 38.4589 280.057C38.4676 280.076 38.481 280.094 38.4982 280.108L41.786 282.647Z" fill="url(#paint0_linear_4026_5552)"/>
<path d="M57.6406 286.91C57.6719 286.91 57.7022 286.899 57.7268 286.881L60.7987 284.53C60.8159 284.517 60.8295 284.5 60.8382 284.481C60.8469 284.461 60.8506 284.44 60.8488 284.42C60.847 284.399 60.8399 284.379 60.828 284.361C60.8161 284.344 60.7998 284.329 60.7806 284.319L54.3724 280.855C53.3274 280.289 51.7455 280.287 50.693 280.855L44.2857 284.32C44.2668 284.331 44.2509 284.345 44.2392 284.363C44.2275 284.38 44.2203 284.4 44.2183 284.421C44.2163 284.442 44.2198 284.462 44.2286 284.482C44.2373 284.501 44.251 284.518 44.2684 284.53L47.342 286.879C47.3638 286.895 47.3903 286.905 47.4181 286.907C47.4459 286.909 47.4737 286.903 47.498 286.89C47.498 286.89 52.4235 284.23 52.4564 284.211C52.479 284.198 52.505 284.191 52.5315 284.191C52.558 284.191 52.584 284.198 52.6066 284.211C52.6312 284.226 57.5724 286.896 57.5724 286.896C57.5931 286.907 57.6167 286.913 57.6406 286.912" fill="url(#paint1_linear_4026_5552)"/>
<path d="M49.073 292.728L52.4848 294.594C52.5065 294.606 52.5311 294.612 52.5562 294.612C52.581 294.612 52.6055 294.606 52.6268 294.594L55.9926 292.753C56.014 292.741 56.0317 292.724 56.0441 292.703C56.0564 292.683 56.063 292.66 56.0632 292.636V288.958C56.0629 288.935 56.0562 288.912 56.0439 288.892C56.0315 288.871 56.0139 288.854 55.9926 288.842L52.6268 287.002C52.6051 286.99 52.5806 286.984 52.5558 286.984C52.5309 286.984 52.5065 286.99 52.4848 287.002L49.6862 288.534L49.1313 288.786C49.1069 288.796 49.0863 288.814 49.0718 288.835C49.0572 288.856 49.0494 288.881 49.0492 288.907V291.591L49.0016 292.607C49.0006 292.632 49.0067 292.656 49.0191 292.678C49.0316 292.699 49.0499 292.717 49.0722 292.729" fill="url(#paint2_linear_4026_5552)"/>
<path d="M49.5914 307.699C51.0887 308.443 53.4267 308.71 55.4668 307.699C55.9667 307.443 65.877 302.066 65.877 302.066C67.5952 301.038 69.5178 299.065 69.5178 296.104V284.742C69.5177 284.72 69.5119 284.699 69.501 284.68C69.4901 284.661 69.4745 284.645 69.4554 284.634C69.437 284.621 69.4157 284.614 69.3933 284.611C69.3709 284.609 69.3482 284.612 69.3274 284.62L65.359 286.047C65.3326 286.057 65.3099 286.073 65.2938 286.095C65.2777 286.117 65.2689 286.143 65.2687 286.169C65.2687 286.169 65.3212 295.998 65.2605 296.261C65.1702 297.095 64.451 298.205 63.7532 298.584L54.049 303.891C53.2987 304.302 51.7676 304.302 51.0181 303.891L41.3131 298.584C40.6153 298.202 39.897 297.095 39.8075 296.261C39.7468 295.998 39.7985 286.169 39.7985 286.169C39.7984 286.143 39.7898 286.117 39.7738 286.095C39.7579 286.073 39.7352 286.057 39.709 286.047L35.7406 284.62C35.7194 284.611 35.6963 284.608 35.6733 284.61C35.6504 284.612 35.6283 284.619 35.6091 284.632C35.5899 284.644 35.5742 284.66 35.5634 284.679C35.5525 284.698 35.5468 284.72 35.5469 284.742V296.106C35.5469 299.068 37.4695 301.04 39.1869 302.068C39.1869 302.068 49.0101 307.413 49.5881 307.699" fill="url(#paint3_linear_4026_5552)"/>
<path d="M50.7754 300.778C51.3182 301.045 51.9221 301.182 52.5339 301.177C53.1404 301.182 53.7393 301.049 54.28 300.788L60.8162 297.259C62.0969 296.581 62.6559 295.543 62.6559 294.285V287.342C62.656 287.321 62.6507 287.301 62.6404 287.282C62.6301 287.264 62.6151 287.248 62.5968 287.237C62.5785 287.225 62.5573 287.217 62.5351 287.214C62.513 287.212 62.4905 287.214 62.4696 287.222L58.7573 288.544C58.7315 288.553 58.7092 288.569 58.6934 288.59C58.6775 288.612 58.6689 288.637 58.6687 288.663V294.037C58.6696 294.059 58.664 294.081 58.6526 294.1C58.6411 294.119 58.6242 294.135 58.6038 294.145C58.5603 294.165 52.5757 297.357 52.5757 297.357C52.549 297.369 52.5201 297.375 52.4908 297.375C52.4615 297.375 52.4325 297.369 52.4058 297.357L46.4655 294.143C46.4448 294.133 46.4275 294.117 46.4159 294.098C46.4043 294.079 46.3987 294.057 46.3999 294.035V288.661C46.3998 288.635 46.3913 288.61 46.3756 288.588C46.36 288.567 46.3378 288.55 46.312 288.541L42.5989 287.219C42.5782 287.212 42.5558 287.209 42.5338 287.212C42.5117 287.214 42.4907 287.222 42.4725 287.234C42.454 287.246 42.4389 287.261 42.4284 287.28C42.4179 287.298 42.4125 287.319 42.4126 287.34V294.283C42.4126 295.541 42.9725 296.578 44.2523 297.257L50.7754 300.778Z" fill="url(#paint4_linear_4026_5552)"/>
</g>
<path d="M138 0.859375H515V114.859H138V0.859375Z" fill="white"/>
<path d="M138 230.859H515V344.859H138V230.859Z" fill="#4A7C3A"/>
<path d="M40.3003 36.0625C40.3003 36.0625 77.4003 84.0625 91.1003 90.5625C104.8 97.0625 108.2 96.2625 108.2 96.2625" stroke="white" stroke-width="10" stroke-miterlimit="2"/>
<path d="M100 36.0625C100 36.0625 62.9001 81.4625 53.3001 88.4625C43.7001 95.4625 34.6001 96.2625 34.6001 96.2625M51.7001 66.1625H89.6001M70.7001 36.0625V66.1625" stroke="white" stroke-width="10" stroke-miterlimit="2"/>
</g>
<defs>
<filter id="filter0_d_4026_5552" x="20.5" y="262.859" width="64" height="64" filterUnits="userSpaceOnUse" color-interpolation-filters="sRGB">
<feFlood flood-opacity="0" result="BackgroundImageFix"/>
<feColorMatrix in="SourceAlpha" type="matrix" values="0 0 0 0 0 0 0 0 0 0 0 0 0 0 0 0 0 0 127 0" result="hardAlpha"/>
<feOffset dy="4"/>
<feGaussianBlur stdDeviation="2"/>
<feComposite in2="hardAlpha" operator="out"/>
<feColorMatrix type="matrix" values="0 0 0 0 0 0 0 0 0 0 0 0 0 0 0 0 0 0 0.25 0"/>
<feBlend mode="normal" in2="BackgroundImageFix" result="effect1_dropShadow_4026_5552"/>
<feBlend mode="normal" in="SourceGraphic" in2="effect1_dropShadow_4026_5552" result="shape"/>
</filter>
<linearGradient id="paint0_linear_4026_5552" x1="38.4481" y1="278.019" x2="66.62" y2="278.019" gradientUnits="userSpaceOnUse">
<stop stop-color="#6FBE44"/>
<stop offset="1" stop-color="#30B34A"/>
</linearGradient>
<linearGradient id="paint1_linear_4026_5552" x1="2665.67" y1="1301.21" x2="6035.03" y2="1301.21" gradientUnits="userSpaceOnUse">
<stop stop-color="#6FBE44"/>
<stop offset="1" stop-color="#30B34A"/>
</linearGradient>
<linearGradient id="paint2_linear_4026_5552" x1="1573.7" y1="2187.76" x2="2181.15" y2="2187.76" gradientUnits="userSpaceOnUse">
<stop stop-color="#6FBE44"/>
<stop offset="1" stop-color="#30B34A"/>
</linearGradient>
<linearGradient id="paint3_linear_4026_5552" x1="35.5502" y1="296.486" x2="69.5178" y2="296.486" gradientUnits="userSpaceOnUse">
<stop stop-color="#6F7073"/>
<stop offset="1" stop-color="#8C8F91"/>
</linearGradient>
<linearGradient id="paint4_linear_4026_5552" x1="2787.81" y1="4377.43" x2="7779.82" y2="4377.43" gradientUnits="userSpaceOnUse">
<stop stop-color="#6F7073"/>
<stop offset="1" stop-color="#8C8F91"/>
</linearGradient>
<clipPath id="clip0_4026_5552">
<rect width="513" height="342" fill="white" transform="translate(0 0.859375)"/>
</clipPath>
</defs>
</svg>
