<svg width="512" height="343" viewBox="0 0 512 343" fill="none" xmlns="http://www.w3.org/2000/svg">
<g clip-path="url(#clip0_4026_5815)">
<path d="M0 0.195312H512V342.195H0V0.195312Z" fill="#0052B4"/>
<path d="M256 0.195312V117.836H209.9L256 148.599V171.245H233.4L160 122.245V171.245H96V122.245L22.6 171.245H0V148.599L46.1 117.836H0V53.7048H46.1L0 22.9419V0.195312H22.6L96 49.1956V0.195312H160V49.1956L233.4 0.195312H256Z" fill="white"/>
<path d="M144 0.195312H112V69.7377H0V101.803H112V171.245H144V101.803H256V69.7377H144V0.195312Z" fill="#D80027"/>
<path d="M0 0.195312V15.3263L57.4 53.7048H80L0 0.195312ZM256 0.195312V15.3263L198.6 53.7048H176L256 0.195312Z" fill="#D80027"/>
<path d="M256 22.9453V53.7083H209.9L256 22.9453Z" fill="#2E52B2"/>
<path d="M0 0.195312V15.3263L57.4 53.7048H80L0 0.195312ZM256 0.195312V15.3263L198.6 53.7048H176L256 0.195312Z" fill="#D80027"/>
<path d="M256 22.9453V53.7083H209.9L256 22.9453Z" fill="#2E52B2"/>
<path d="M0 171.245V156.114L57.4 117.836H80L0 171.245ZM256 171.245V156.114L198.6 117.836H176L256 171.245Z" fill="#D80027"/>
<path d="M448.9 170.046C448.9 179.666 448.6 199.707 447.5 209.326C443.4 244.298 424 278.268 385.4 295.403C340.1 277.466 324.6 244.298 320.5 209.326C319.4 199.707 319 189.887 319 180.267L319.3 133.07H448.5L448.9 170.046Z" fill="#29DBFF"/>
<path d="M447.5 209.32C447.3 210.924 447.1 212.627 446.9 214.23C442.1 247.398 424 279.765 385.4 295.397C342.2 278.362 326 247.398 321.2 214.23C321 212.627 320.8 211.024 320.6 209.32" fill="white"/>
<path d="M385.4 252.409L362.5 209.32H408.3L385.4 252.409Z" fill="#29DBFF"/>
<path d="M385.4 166.336L362.5 209.324H408.3L385.4 166.336Z" fill="white"/>
<path d="M474.8 280.871C484.078 280.871 491.6 261.446 491.6 237.483C491.6 213.52 484.078 194.094 474.8 194.094C465.522 194.094 458 213.52 458 237.483C458 261.446 465.522 280.871 474.8 280.871Z" fill="#FFBE57"/>
<path d="M295.3 280.871C304.578 280.871 312.1 261.446 312.1 237.483C312.1 213.52 304.578 194.094 295.3 194.094C286.022 194.094 278.5 213.52 278.5 237.483C278.5 261.446 286.022 280.871 295.3 280.871Z" fill="#FFBE57"/>
<path d="M385.4 31.7578L352 75.8481H420.5L385.4 31.7578ZM315.5 280.767C315.5 280.767 349.3 310.328 385.4 310.328C421.5 310.328 452.5 280.767 452.5 280.767L461 295.397C461 295.397 439.2 326.862 385.4 326.862C331.6 326.862 307 295.397 307 295.397L315.5 280.767Z" fill="white"/>
<path d="M386.3 128.055C405.243 128.055 420.6 117.602 420.6 104.707C420.6 91.8125 405.243 81.3594 386.3 81.3594C367.357 81.3594 352 91.8125 352 104.707C352 117.602 367.357 128.055 386.3 128.055Z" fill="#A5A5A5"/>
<g filter="url(#filter0_d_4026_5815)">
<rect x="24" y="262.195" width="56" height="56" rx="28" fill="white"/>
<path d="M41.286 281.983C41.3103 282.003 41.3412 282.014 41.3731 282.014C41.3976 282.014 41.4218 282.008 41.4428 281.996L50.5207 277.033C51.2702 276.623 52.8012 276.623 53.5516 277.033L62.6237 281.995C62.648 282.009 62.6762 282.015 62.7044 282.013C62.7327 282.011 62.7595 282 62.7813 281.983L66.0691 279.438C66.0865 279.424 66.1003 279.406 66.1091 279.387C66.118 279.367 66.1217 279.345 66.12 279.324C66.1178 279.303 66.1104 279.283 66.0984 279.265C66.0864 279.247 66.0702 279.232 66.0511 279.221L55.6745 273.551C54.6713 273 53.3759 272.695 52.0361 272.695C50.6964 272.695 49.4009 272.998 48.3961 273.551L38.0171 279.227C37.9974 279.237 37.9808 279.252 37.9688 279.27C37.9567 279.288 37.9496 279.309 37.9481 279.33C37.9465 279.352 37.9502 279.373 37.9589 279.393C37.9676 279.412 37.981 279.43 37.9982 279.444L41.286 281.983Z" fill="url(#paint0_linear_4026_5815)"/>
<path d="M57.1406 286.246C57.1719 286.246 57.2022 286.235 57.2268 286.217L60.2987 283.866C60.3159 283.852 60.3295 283.836 60.3382 283.816C60.3469 283.797 60.3506 283.776 60.3488 283.756C60.347 283.735 60.3399 283.715 60.328 283.697C60.3161 283.68 60.2998 283.665 60.2806 283.655L53.8724 280.191C52.8274 279.625 51.2455 279.623 50.193 280.191L43.7857 283.656C43.7668 283.667 43.7509 283.681 43.7392 283.699C43.7275 283.716 43.7203 283.736 43.7183 283.757C43.7163 283.777 43.7198 283.798 43.7286 283.818C43.7373 283.837 43.751 283.853 43.7684 283.866L46.842 286.215C46.8638 286.231 46.8903 286.241 46.9181 286.243C46.9459 286.245 46.9737 286.239 46.998 286.226C46.998 286.226 51.9235 283.566 51.9564 283.547C51.979 283.534 52.005 283.527 52.0315 283.527C52.058 283.527 52.084 283.534 52.1066 283.547C52.1312 283.562 57.0724 286.232 57.0724 286.232C57.0931 286.243 57.1167 286.249 57.1406 286.248" fill="url(#paint1_linear_4026_5815)"/>
<path d="M48.573 292.064L51.9848 293.93C52.0065 293.942 52.0311 293.948 52.0562 293.948C52.081 293.948 52.1055 293.942 52.1268 293.93L55.4926 292.089C55.514 292.077 55.5317 292.06 55.5441 292.039C55.5564 292.019 55.563 291.996 55.5632 291.972V288.294C55.5629 288.271 55.5562 288.248 55.5439 288.227C55.5315 288.207 55.5139 288.19 55.4926 288.178L52.1268 286.338C52.1051 286.326 52.0806 286.32 52.0558 286.32C52.0309 286.32 52.0065 286.326 51.9848 286.338L49.1862 287.87L48.6313 288.121C48.6069 288.132 48.5863 288.149 48.5718 288.171C48.5572 288.192 48.5494 288.217 48.5492 288.243V290.927L48.5016 291.943C48.5006 291.968 48.5067 291.992 48.5191 292.013C48.5316 292.035 48.5499 292.053 48.5722 292.065" fill="url(#paint2_linear_4026_5815)"/>
<path d="M49.0914 307.035C50.5887 307.779 52.9267 308.046 54.9668 307.035C55.4667 306.779 65.377 301.402 65.377 301.402C67.0952 300.374 69.0178 298.401 69.0178 295.44V284.078C69.0177 284.056 69.0119 284.035 69.001 284.016C68.9901 283.997 68.9745 283.981 68.9554 283.97C68.937 283.957 68.9157 283.95 68.8933 283.947C68.8709 283.945 68.8482 283.948 68.8274 283.956L64.859 285.383C64.8326 285.393 64.8099 285.409 64.7938 285.431C64.7777 285.453 64.7689 285.479 64.7687 285.505C64.7687 285.505 64.8212 295.334 64.7605 295.597C64.6702 296.431 63.951 297.541 63.2532 297.92L53.549 303.227C52.7987 303.638 51.2676 303.638 50.5181 303.227L40.8131 297.92C40.1153 297.538 39.397 296.431 39.3075 295.597C39.2468 295.334 39.2985 285.505 39.2985 285.505C39.2984 285.479 39.2898 285.453 39.2738 285.431C39.2579 285.409 39.2352 285.393 39.209 285.383L35.2406 283.956C35.2194 283.947 35.1963 283.944 35.1733 283.946C35.1504 283.948 35.1283 283.955 35.1091 283.967C35.0899 283.98 35.0742 283.996 35.0634 284.015C35.0525 284.034 35.0468 284.056 35.0469 284.078V295.442C35.0469 298.404 36.9695 300.376 38.6869 301.404C38.6869 301.404 48.5101 306.749 49.0881 307.035" fill="url(#paint3_linear_4026_5815)"/>
<path d="M50.2754 300.114C50.8182 300.381 51.4221 300.518 52.0339 300.513C52.6404 300.518 53.2393 300.384 53.78 300.124L60.3162 296.595C61.5969 295.917 62.1559 294.879 62.1559 293.621V286.678C62.156 286.657 62.1507 286.637 62.1404 286.618C62.1301 286.6 62.1151 286.584 62.0968 286.573C62.0785 286.56 62.0573 286.553 62.0351 286.55C62.013 286.548 61.9905 286.55 61.9696 286.558L58.2573 287.88C58.2315 287.889 58.2092 287.905 58.1934 287.926C58.1775 287.948 58.1689 287.973 58.1687 287.999V293.373C58.1696 293.395 58.164 293.417 58.1526 293.436C58.1411 293.455 58.1242 293.471 58.1038 293.481C58.0603 293.501 52.0757 296.693 52.0757 296.693C52.049 296.705 52.0201 296.711 51.9908 296.711C51.9615 296.711 51.9325 296.705 51.9058 296.693L45.9655 293.479C45.9448 293.469 45.9275 293.453 45.9159 293.434C45.9043 293.415 45.8987 293.393 45.8999 293.371V287.997C45.8998 287.971 45.8913 287.946 45.8756 287.924C45.86 287.903 45.8378 287.886 45.812 287.877L42.0989 286.555C42.0782 286.548 42.0558 286.545 42.0338 286.548C42.0117 286.55 41.9907 286.558 41.9725 286.57C41.954 286.582 41.9389 286.597 41.9284 286.616C41.9179 286.634 41.9125 286.655 41.9126 286.676V293.619C41.9126 294.877 42.4725 295.914 43.7523 296.593L50.2754 300.114Z" fill="url(#paint4_linear_4026_5815)"/>
</g>
</g>
<defs>
<filter id="filter0_d_4026_5815" x="20" y="262.195" width="64" height="64" filterUnits="userSpaceOnUse" color-interpolation-filters="sRGB">
<feFlood flood-opacity="0" result="BackgroundImageFix"/>
<feColorMatrix in="SourceAlpha" type="matrix" values="0 0 0 0 0 0 0 0 0 0 0 0 0 0 0 0 0 0 127 0" result="hardAlpha"/>
<feOffset dy="4"/>
<feGaussianBlur stdDeviation="2"/>
<feComposite in2="hardAlpha" operator="out"/>
<feColorMatrix type="matrix" values="0 0 0 0 0 0 0 0 0 0 0 0 0 0 0 0 0 0 0.25 0"/>
<feBlend mode="normal" in2="BackgroundImageFix" result="effect1_dropShadow_4026_5815"/>
<feBlend mode="normal" in="SourceGraphic" in2="effect1_dropShadow_4026_5815" result="shape"/>
</filter>
<linearGradient id="paint0_linear_4026_5815" x1="37.9481" y1="277.355" x2="66.12" y2="277.355" gradientUnits="userSpaceOnUse">
<stop stop-color="#6FBE44"/>
<stop offset="1" stop-color="#30B34A"/>
</linearGradient>
<linearGradient id="paint1_linear_4026_5815" x1="2665.17" y1="1300.55" x2="6034.53" y2="1300.55" gradientUnits="userSpaceOnUse">
<stop stop-color="#6FBE44"/>
<stop offset="1" stop-color="#30B34A"/>
</linearGradient>
<linearGradient id="paint2_linear_4026_5815" x1="1573.2" y1="2187.09" x2="2180.65" y2="2187.09" gradientUnits="userSpaceOnUse">
<stop stop-color="#6FBE44"/>
<stop offset="1" stop-color="#30B34A"/>
</linearGradient>
<linearGradient id="paint3_linear_4026_5815" x1="35.0502" y1="295.822" x2="69.0178" y2="295.822" gradientUnits="userSpaceOnUse">
<stop stop-color="#6F7073"/>
<stop offset="1" stop-color="#8C8F91"/>
</linearGradient>
<linearGradient id="paint4_linear_4026_5815" x1="2787.31" y1="4376.77" x2="7779.32" y2="4376.77" gradientUnits="userSpaceOnUse">
<stop stop-color="#6F7073"/>
<stop offset="1" stop-color="#8C8F91"/>
</linearGradient>
<clipPath id="clip0_4026_5815">
<rect width="512" height="342" fill="white" transform="translate(0 0.195312)"/>
</clipPath>
</defs>
</svg>
