<svg width="513" height="343" viewBox="0 0 513 343" fill="none" xmlns="http://www.w3.org/2000/svg">
<g clip-path="url(#clip0_4026_5919)">
<path d="M0 0.195312H513V342.195H0V0.195312Z" fill="#E30A17"/>
<path d="M259.7 118.794C246.6 109.294 230.7 104.194 214.4 104.294C173.6 104.294 140.6 135.094 140.6 173.194C140.6 211.294 173.7 242.094 214.4 242.094C231.5 242.094 247.3 236.694 259.7 227.594C229.7 266.194 174 273.194 135.4 243.094C96.8001 212.994 89.8001 157.394 119.9 118.794C150 80.1941 205.6 73.1941 244.2 103.294C250 107.794 255.2 113.094 259.7 118.794ZM299.6 184.594L281.5 206.494L282.7 178.094L256.3 167.694L283.6 160.094L285.4 131.794L301 155.494L328.5 148.394L311 170.394L326.3 194.294L299.6 184.594Z" fill="white"/>
</g>
<defs>
<clipPath id="clip0_4026_5919">
<rect width="513" height="342" fill="white" transform="translate(0 0.195312)"/>
</clipPath>
</defs>
</svg>
