<svg width="23" height="16" viewBox="0 0 23 16" fill="none" xmlns="http://www.w3.org/2000/svg">
<g clip-path="url(#clip0_4026_5995)">
<path d="M0 0.1875H22.5V5.1875H0V0.1875Z" fill="#FFCE00"/>
<path d="M0 5.1875H22.5V10.1875H0V5.1875Z" fill="#203899"/>
<path d="M0 10.1875H22.5V15.1875H0V10.1875Z" fill="#D82B2B"/>
<path d="M12.1298 5.57031L12.2698 6.03031L12.7198 6.17031L12.3298 6.44031L12.3398 6.92031L11.9598 6.63031L11.5098 6.78031L11.6598 6.34031L11.3798 5.96031H11.8498L12.1298 5.57031ZM10.3598 5.57031L10.6298 5.96031H11.0998L10.8198 6.34031L10.9698 6.79031L10.5198 6.63031L10.1398 6.91031L10.1498 6.44031L9.75982 6.16031L10.2098 6.03031L10.3598 5.57031ZM13.7998 6.13031L13.7898 6.61031L14.1798 6.88031L13.7198 7.02031L13.5798 7.47031L13.3098 7.09031H12.8298L13.1198 6.71031L12.9698 6.26031L13.4198 6.42031L13.7998 6.13031ZM8.68982 6.15031L9.08982 6.42031L9.52982 6.24031L9.39982 6.70031L9.69982 7.06031L9.22982 7.08031L8.96982 7.48031L8.80982 7.04031L8.34982 6.92031L8.71982 6.62031L8.68982 6.15031ZM15.2398 7.32031L15.0398 7.76031L15.2898 8.16031L14.8198 8.11031L14.5098 8.47031L14.4098 8.01031L13.9798 7.83031L14.3898 7.59031L14.4198 7.12031L14.7698 7.43031L15.2398 7.32031ZM15.4298 8.44031L15.6398 8.87031L16.1098 8.94031L15.7698 9.27031L15.8498 9.73031L15.4298 9.51031L15.0098 9.73031L15.0898 9.27031L14.7498 8.94031L15.2198 8.87031L15.4298 8.44031ZM6.99982 8.39031L7.20982 8.82031L7.67982 8.88031L7.33982 9.21031L7.41982 9.68031L6.99982 9.46031L6.57982 9.68031L6.65982 9.21031L6.31982 8.88031L6.78982 8.82031L6.99982 8.39031ZM7.30982 7.24031L7.75982 7.38031L8.13982 7.09031V7.57031L8.52982 7.83031L8.07982 7.98031L7.94982 8.44031L7.66982 8.06031L7.19982 8.07031L7.46982 7.69031L7.30982 7.24031Z" fill="white"/>
</g>
<defs>
<clipPath id="clip0_4026_5995">
<rect width="22.5" height="15" fill="white" transform="translate(0 0.1875)"/>
</clipPath>
</defs>
</svg>
