<svg width="512" height="342" viewBox="0 0 512 342" fill="none" xmlns="http://www.w3.org/2000/svg">
<g clip-path="url(#clip0_4026_6054)">
<path d="M0 0H512V342.01H0V0Z" fill="#0052B4"/>
<path d="M220.72 42.7164L228.67 58.858L246.44 61.4431L233.58 74.0077L236.62 91.7424L220.72 83.366L204.82 91.7424L207.85 74.0077L194.99 61.4431L212.77 58.858L220.72 42.7164ZM291.28 42.6562L299.23 58.7879L317.01 61.3829L304.15 73.9375L307.18 91.6823L291.28 83.3059L275.38 91.6823L278.42 73.9375L265.56 61.3829L283.33 58.7879L291.28 42.6562ZM353.36 54.0386L361.31 70.1802L379.08 72.7652L366.22 85.3299L369.26 103.065L353.36 94.6982L337.46 103.065L340.5 85.3299L327.63 72.7652L345.41 70.1802L353.36 54.0386ZM416.37 72.3745L424.32 88.5161L442.09 91.1112L429.23 103.666L432.27 121.411L416.37 113.034L400.47 121.411L403.5 103.666L390.64 91.1112L408.42 88.5161L416.37 72.3745ZM158.64 54.0386L166.59 70.1802L184.37 72.7652L171.5 85.3299L174.54 103.065L158.64 94.6982L142.74 103.065L145.78 85.3299L132.92 72.7652L150.69 70.1802L158.64 54.0386ZM95.6299 72.3745L103.58 88.5161L121.36 91.1112L108.5 103.666L111.53 121.411L95.6299 113.034L79.7299 121.411L82.7699 103.666L69.9099 91.1112L87.6799 88.5161L95.6299 72.3745Z" fill="white"/>
<path d="M217.53 259.842L190.31 246.205L163.09 191.668H190.31L217.53 164.395L231.14 137.121L258.36 123.484L271.97 137.121L299.19 150.758V164.395L312.8 178.031L353.63 205.305L340 246.215L299.17 287.125L285.56 259.852L244.73 287.125V314.398L231.12 300.762L217.53 259.842Z" fill="#FFDA44"/>
<g filter="url(#filter0_d_4026_6054)">
<rect x="24" y="262.195" width="56" height="56" rx="28" fill="white"/>
<path d="M41.2858 281.983C41.3101 282.003 41.3409 282.014 41.3728 282.014C41.3974 282.014 41.4216 282.008 41.4426 281.996L50.5204 277.033C51.27 276.623 52.801 276.623 53.5513 277.033L62.6234 281.995C62.6478 282.009 62.676 282.015 62.7042 282.013C62.7324 282.011 62.7593 282 62.781 281.983L66.0689 279.438C66.0863 279.424 66.1 279.406 66.1089 279.387C66.1177 279.367 66.1215 279.345 66.1198 279.324C66.1175 279.303 66.1101 279.283 66.0982 279.265C66.0862 279.247 66.07 279.232 66.0508 279.221L55.6742 273.551C54.6711 273 53.3756 272.695 52.0359 272.695C50.6961 272.695 49.4007 272.998 48.3959 273.551L38.0169 279.227C37.9972 279.237 37.9806 279.252 37.9685 279.27C37.9565 279.288 37.9494 279.309 37.9479 279.33C37.9462 279.352 37.9499 279.373 37.9586 279.393C37.9673 279.412 37.9808 279.43 37.998 279.444L41.2858 281.983Z" fill="url(#paint0_linear_4026_6054)"/>
<path d="M57.1406 286.246C57.1719 286.246 57.2022 286.235 57.2268 286.217L60.2987 283.866C60.3159 283.852 60.3295 283.836 60.3382 283.816C60.3469 283.797 60.3506 283.776 60.3488 283.756C60.347 283.735 60.3399 283.715 60.328 283.697C60.3161 283.68 60.2998 283.665 60.2806 283.655L53.8724 280.191C52.8274 279.625 51.2455 279.623 50.193 280.191L43.7857 283.656C43.7668 283.667 43.7509 283.681 43.7392 283.699C43.7275 283.716 43.7203 283.736 43.7183 283.757C43.7163 283.777 43.7198 283.798 43.7286 283.818C43.7373 283.837 43.751 283.853 43.7684 283.866L46.842 286.215C46.8638 286.231 46.8903 286.241 46.9181 286.243C46.9459 286.245 46.9737 286.239 46.998 286.226C46.998 286.226 51.9235 283.566 51.9564 283.547C51.979 283.534 52.005 283.527 52.0315 283.527C52.058 283.527 52.084 283.534 52.1066 283.547C52.1312 283.562 57.0724 286.232 57.0724 286.232C57.0931 286.243 57.1167 286.249 57.1406 286.248" fill="url(#paint1_linear_4026_6054)"/>
<path d="M48.5727 292.064L51.9845 293.93C52.0062 293.942 52.0309 293.948 52.0559 293.948C52.0808 293.948 52.1053 293.942 52.1265 293.93L55.4924 292.089C55.5137 292.077 55.5315 292.06 55.5438 292.039C55.5562 292.019 55.5628 291.996 55.563 291.972V288.294C55.5626 288.271 55.556 288.248 55.5436 288.227C55.5313 288.207 55.5136 288.19 55.4924 288.178L52.1265 286.338C52.1048 286.326 52.0804 286.32 52.0555 286.32C52.0307 286.32 52.0062 286.326 51.9845 286.338L49.186 287.87L48.631 288.121C48.6067 288.132 48.586 288.149 48.5715 288.171C48.557 288.192 48.5492 288.217 48.5489 288.243V290.927L48.5013 291.943C48.5004 291.968 48.5065 291.992 48.5189 292.013C48.5313 292.035 48.5496 292.053 48.5719 292.065" fill="url(#paint2_linear_4026_6054)"/>
<path d="M49.0914 307.035C50.5887 307.779 52.9267 308.046 54.9668 307.035C55.4667 306.779 65.377 301.402 65.377 301.402C67.0952 300.374 69.0178 298.401 69.0178 295.44V284.078C69.0177 284.056 69.0119 284.035 69.001 284.016C68.9901 283.997 68.9745 283.981 68.9554 283.97C68.937 283.957 68.9157 283.95 68.8933 283.947C68.8709 283.945 68.8482 283.948 68.8274 283.956L64.859 285.383C64.8326 285.393 64.8099 285.409 64.7938 285.431C64.7777 285.453 64.7689 285.479 64.7687 285.505C64.7687 285.505 64.8212 295.334 64.7605 295.597C64.6702 296.431 63.951 297.541 63.2532 297.92L53.549 303.227C52.7987 303.638 51.2676 303.638 50.5181 303.227L40.8131 297.92C40.1153 297.538 39.397 296.431 39.3075 295.597C39.2468 295.334 39.2985 285.505 39.2985 285.505C39.2984 285.479 39.2898 285.453 39.2738 285.431C39.2579 285.409 39.2352 285.393 39.209 285.383L35.2406 283.956C35.2194 283.947 35.1963 283.944 35.1733 283.946C35.1504 283.948 35.1283 283.955 35.1091 283.967C35.0899 283.98 35.0742 283.996 35.0634 284.015C35.0525 284.034 35.0468 284.056 35.0469 284.078V295.442C35.0469 298.404 36.9695 300.376 38.6869 301.404C38.6869 301.404 48.5101 306.749 49.0881 307.035" fill="url(#paint3_linear_4026_6054)"/>
<path d="M50.2754 300.114C50.8182 300.381 51.4221 300.518 52.0339 300.513C52.6404 300.518 53.2393 300.384 53.78 300.124L60.3162 296.595C61.5969 295.917 62.1559 294.879 62.1559 293.621V286.678C62.156 286.657 62.1507 286.637 62.1404 286.618C62.1301 286.6 62.1151 286.584 62.0968 286.573C62.0785 286.56 62.0573 286.553 62.0351 286.55C62.013 286.548 61.9905 286.55 61.9696 286.558L58.2573 287.88C58.2315 287.889 58.2092 287.905 58.1934 287.926C58.1775 287.948 58.1689 287.973 58.1687 287.999V293.373C58.1696 293.395 58.164 293.417 58.1526 293.436C58.1411 293.455 58.1242 293.471 58.1038 293.481C58.0603 293.501 52.0757 296.693 52.0757 296.693C52.049 296.705 52.0201 296.711 51.9908 296.711C51.9615 296.711 51.9325 296.705 51.9058 296.693L45.9655 293.479C45.9448 293.469 45.9275 293.453 45.9159 293.434C45.9043 293.415 45.8987 293.393 45.8999 293.371V287.997C45.8998 287.971 45.8913 287.946 45.8756 287.924C45.86 287.903 45.8378 287.886 45.812 287.877L42.0989 286.555C42.0782 286.548 42.0558 286.545 42.0338 286.548C42.0117 286.55 41.9907 286.558 41.9725 286.57C41.954 286.582 41.9389 286.597 41.9284 286.616C41.9179 286.634 41.9125 286.655 41.9126 286.676V293.619C41.9126 294.877 42.4725 295.914 43.7523 296.593L50.2754 300.114Z" fill="url(#paint4_linear_4026_6054)"/>
</g>
</g>
<defs>
<filter id="filter0_d_4026_6054" x="20" y="262.195" width="64" height="64" filterUnits="userSpaceOnUse" color-interpolation-filters="sRGB">
<feFlood flood-opacity="0" result="BackgroundImageFix"/>
<feColorMatrix in="SourceAlpha" type="matrix" values="0 0 0 0 0 0 0 0 0 0 0 0 0 0 0 0 0 0 127 0" result="hardAlpha"/>
<feOffset dy="4"/>
<feGaussianBlur stdDeviation="2"/>
<feComposite in2="hardAlpha" operator="out"/>
<feColorMatrix type="matrix" values="0 0 0 0 0 0 0 0 0 0 0 0 0 0 0 0 0 0 0.25 0"/>
<feBlend mode="normal" in2="BackgroundImageFix" result="effect1_dropShadow_4026_6054"/>
<feBlend mode="normal" in="SourceGraphic" in2="effect1_dropShadow_4026_6054" result="shape"/>
</filter>
<linearGradient id="paint0_linear_4026_6054" x1="37.9479" y1="277.355" x2="66.1198" y2="277.355" gradientUnits="userSpaceOnUse">
<stop stop-color="#6FBE44"/>
<stop offset="1" stop-color="#30B34A"/>
</linearGradient>
<linearGradient id="paint1_linear_4026_6054" x1="2665.17" y1="1300.55" x2="6034.53" y2="1300.55" gradientUnits="userSpaceOnUse">
<stop stop-color="#6FBE44"/>
<stop offset="1" stop-color="#30B34A"/>
</linearGradient>
<linearGradient id="paint2_linear_4026_6054" x1="1573.2" y1="2187.09" x2="2180.65" y2="2187.09" gradientUnits="userSpaceOnUse">
<stop stop-color="#6FBE44"/>
<stop offset="1" stop-color="#30B34A"/>
</linearGradient>
<linearGradient id="paint3_linear_4026_6054" x1="35.0502" y1="295.822" x2="69.0178" y2="295.822" gradientUnits="userSpaceOnUse">
<stop stop-color="#6F7073"/>
<stop offset="1" stop-color="#8C8F91"/>
</linearGradient>
<linearGradient id="paint4_linear_4026_6054" x1="2787.31" y1="4376.77" x2="7779.32" y2="4376.77" gradientUnits="userSpaceOnUse">
<stop stop-color="#6F7073"/>
<stop offset="1" stop-color="#8C8F91"/>
</linearGradient>
<clipPath id="clip0_4026_6054">
<rect width="512" height="342" fill="white"/>
</clipPath>
</defs>
</svg>
