<svg width="90" height="61" viewBox="0 0 90 61" fill="none" xmlns="http://www.w3.org/2000/svg">
<g clip-path="url(#clip0_4026_6063)">
<path d="M0 0.84375H90V60.8438H0V0.84375Z" fill="white"/>
<path d="M75.6002 40.4406C74.5002 41.1406 75.6002 42.2406 75.0002 42.3406C74.4002 42.4406 73.5002 40.9406 74.8002 39.8406C76.4002 38.3406 80.6002 39.8406 80.7002 44.1406C80.7002 46.3406 79.8002 50.9406 73.5002 50.9406C65.9002 50.9406 62.1002 45.2406 62.1002 39.5406C62.1002 34.7406 65.8002 26.0406 68.6002 24.9406C71.7002 23.7406 75.3002 21.4406 75.4002 19.9406C75.4002 19.4406 74.0002 19.8406 72.1002 20.8406C69.0002 22.5406 65.5002 23.3406 65.5002 22.2406C65.5002 21.1406 68.4002 19.1406 69.5002 17.6406C70.7002 16.0406 70.4002 12.1406 72.5002 12.1406C80.1002 12.1406 82.4002 19.8406 79.5002 23.8406C77.6002 26.4406 83.8002 24.8406 83.8002 24.8406C83.8002 24.8406 83.8002 30.1406 80.6002 32.1406C77.6002 33.9406 75.8002 36.0406 75.8002 36.0406C75.8002 36.0406 76.0002 31.4406 75.3002 32.1406C74.7002 32.8406 64.2002 36.6406 65.0002 44.1406C65.3002 47.1406 69.5002 49.5406 73.5002 49.3406C77.5002 49.1406 79.2002 46.9406 79.3002 44.4406C79.4002 40.5406 76.3002 40.0406 75.6002 40.4406ZM10.7002 44.4406C10.8002 46.9406 12.5002 49.1406 16.5002 49.3406C20.5002 49.5406 24.7002 47.1406 25.0002 44.1406C25.8002 36.6406 15.3002 32.8406 14.7002 32.1406C14.0002 31.4406 14.2002 36.0406 14.2002 36.0406C14.2002 36.0406 12.4002 33.9406 9.4002 32.1406C6.2002 30.1406 6.2002 24.8406 6.2002 24.8406C6.2002 24.8406 12.4002 26.4406 10.5002 23.8406C7.6002 19.8406 9.9002 12.1406 17.5002 12.1406C19.6002 12.1406 19.3002 16.0406 20.5002 17.6406C21.6002 19.1406 24.5002 21.1406 24.5002 22.2406C24.5002 23.3406 21.0002 22.5406 17.9002 20.8406C16.0002 19.8406 14.6002 19.4406 14.6002 19.9406C14.7002 21.4406 18.3002 23.7406 21.4002 24.9406C24.2002 26.0406 27.9002 34.7406 27.9002 39.5406C27.9002 45.2406 24.1002 50.9406 16.5002 50.9406C10.2002 50.9406 9.3002 46.3406 9.3002 44.1406C9.4002 39.8406 13.6002 38.3406 15.2002 39.8406C16.4002 40.9406 15.6002 42.5406 15.0002 42.3406C14.4002 42.2406 15.6002 41.1406 14.4002 40.4406C13.8002 40.0406 10.7002 40.5406 10.7002 44.4406Z" fill="#ABABAB" stroke="#7F7F7F" stroke-width="0.25"/>
<path d="M31 29.6469V43.6469C31 45.5469 33.1 45.2469 33.1 45.2469H42.4C43.6 45.2469 45 47.5469 45 47.5469C45 47.5469 46.4 45.2469 47.5 45.2469H57.1C57.1 45.2469 59.1 45.4469 59.1 43.4469V29.5469H31V29.6469Z" fill="#DE393A"/>
<path d="M31 13.9375H59V29.6375H31V13.9375Z" fill="#3951A3"/>
<path d="M50.1001 17.3438C49.7001 19.7438 47.6001 21.5438 45.0001 21.5438C42.5001 21.5438 40.4001 19.7438 39.9001 17.3438C39.4001 18.2437 39.1001 19.2437 39.1001 20.3438C39.1001 23.6437 41.7001 26.2437 45.0001 26.2437C48.3001 26.2437 50.9001 23.6437 50.9001 20.3438C50.9001 19.2437 50.6001 18.2437 50.1001 17.3438Z" fill="white"/>
<path d="M39.1001 40.3438C40.757 40.3438 42.1001 39.0006 42.1001 37.3438C42.1001 35.6869 40.757 34.3438 39.1001 34.3438C37.4432 34.3438 36.1001 35.6869 36.1001 37.3438C36.1001 39.0006 37.4432 40.3438 39.1001 40.3438Z" fill="#FEE05F"/>
<path d="M50.8999 40.3438C52.5568 40.3438 53.8999 39.0006 53.8999 37.3438C53.8999 35.6869 52.5568 34.3438 50.8999 34.3438C49.243 34.3438 47.8999 35.6869 47.8999 37.3438C47.8999 39.0006 49.243 40.3438 50.8999 40.3438Z" fill="#FEE05F"/>
</g>
<defs>
<clipPath id="clip0_4026_6063">
<rect width="90" height="60" fill="white" transform="translate(0 0.84375)"/>
</clipPath>
</defs>
</svg>
