<svg width="512" height="343" viewBox="0 0 512 343" fill="none" xmlns="http://www.w3.org/2000/svg">
<g clip-path="url(#clip0_4026_6071)">
<path d="M0 0.84375H512V342.17H0V0.84375Z" fill="white"/>
<path d="M114.024 171.513L0 57.4375V285.608L114.024 171.513Z" fill="black"/>
<path d="M161.192 171.503L0 10.2031V57.4291L114.024 171.504L0 285.599V332.737L161.192 171.503Z" fill="#FFB915"/>
<path d="M509.833 204.898C509.891 204.458 510.637 204.02 512 203.58V138.116H222.602L85.33 0.84375H0V10.2067L161.192 171.507L0 332.741V342.17H85.33L222.602 204.898H509.833Z" fill="#007847"/>
<path d="M503.181 238.297H236.433L132.552 342.177H512V238.297H503.181Z" fill="#000C8A"/>
<path d="M503.181 104.724H512V0.84375H132.552L236.433 104.724H503.181Z" fill="#E1392D"/>
</g>
<defs>
<clipPath id="clip0_4026_6071">
<rect width="512" height="341.333" fill="white" transform="translate(0 0.84375)"/>
</clipPath>
</defs>
</svg>
