<svg width="512" height="342" viewBox="0 0 512 342" fill="none" xmlns="http://www.w3.org/2000/svg">
<g clip-path="url(#clip0_4026_6078)">
<path d="M0 0.171875H512V341.509H0V0.171875Z" fill="#496E2D"/>
<path d="M490.668 110.312H442.668C442.668 101.476 435.504 94.3125 426.668 94.3125C417.832 94.3125 410.668 101.476 410.668 110.312H362.668C362.668 119.149 370.365 126.312 379.201 126.312H378.668C378.668 135.149 385.83 142.312 394.668 142.312C394.668 151.149 401.83 158.312 410.668 158.312H442.668C451.504 158.312 458.668 151.149 458.668 142.312C467.504 142.312 474.668 135.149 474.668 126.312H474.135C482.972 126.312 490.668 119.149 490.668 110.312Z" fill="#FF9811"/>
<path d="M341.337 170.828H398.225V341.491H341.337V170.828Z" fill="#D80027"/>
<path d="M455.112 170.828H512V341.491H455.112V170.828Z" fill="#FF9811"/>
<path d="M398.225 170.828H455.113V341.491H398.225V170.828Z" fill="black"/>
</g>
<defs>
<clipPath id="clip0_4026_6078">
<rect width="512" height="341.333" fill="white" transform="translate(0 0.171875)"/>
</clipPath>
</defs>
</svg>
