<svg width="512" height="342" viewBox="0 0 512 342" fill="none" xmlns="http://www.w3.org/2000/svg">
<g clip-path="url(#clip0_4026_6084)">
<path d="M0 0.5H512V341.837H0V0.5Z" fill="black"/>
<path d="M0 49.3594H512V98.2274H0V49.3594ZM0 244.831H512V293.699H0V244.831Z" fill="#FFDA44"/>
<path d="M0 0.5H512V49.368H0V0.5Z" fill="#057F44"/>
<path d="M0 98.2344H512V147.102H0V98.2344ZM0 195.971H512V244.839H0V195.971Z" fill="#D80027"/>
<path d="M0 293.703H512V341.831H0V293.703Z" fill="#057F44"/>
<path d="M276.992 171.163L106.329 341.826H0V0.5H106.329L276.992 171.163Z" fill="white"/>
<path d="M256 171.166L85.334 341.832H106.321L276.988 171.166L106.321 0.5H85.334L256 171.166Z" fill="black"/>
<path d="M102.465 117.734L115.724 158.546H158.641L123.923 183.772L137.183 224.586L102.465 199.362L67.7451 224.586L81.0071 183.772L46.2891 158.546H89.2041L102.465 117.734Z" fill="#D80027"/>
<path d="M138.94 174.501L104.381 162.258C104.381 162.258 101.828 138.303 101.673 137.492C100.5 131.312 95.0702 126.641 88.5502 126.641C81.1742 126.641 75.1932 132.621 75.1932 139.998C75.1932 141.221 75.3712 142.4 75.6792 143.526L65.9902 153.281H83.2192C83.2192 171.163 69.8752 171.163 69.8752 188.972L77.2772 206.781H121.799L129.221 188.972H129.217C129.942 187.309 130.407 185.545 130.598 183.741C136.995 181.152 138.94 174.501 138.94 174.501Z" fill="#FFDA44"/>
</g>
<defs>
<clipPath id="clip0_4026_6084">
<rect width="512" height="341.333" fill="white" transform="translate(0 0.5)"/>
</clipPath>
</defs>
</svg>
