<svg width="514" height="361" viewBox="0 0 514 361" fill="none" xmlns="http://www.w3.org/2000/svg">
<g clip-path="url(#clip0_53_93)">
<path d="M0.222656 0H513.223V342H0.222656V0Z" fill="white"/>
<path d="M0.222656 0H513.223V114H0.222656V0ZM0.222656 228H513.223V342H0.222656V228ZM203.723 117.9L210.423 134.5L228.023 135.5L214.023 146.4L218.723 164.1L203.723 154.2L188.723 164.1L193.423 146.4L179.423 135.5L197.023 134.5L203.723 117.9ZM308.723 117.9L315.423 134.5L333.023 135.5L319.023 146.4L323.723 164.1L308.723 154.2L293.723 164.1L298.423 146.4L284.423 135.5L302.023 134.5L308.723 117.9ZM256.223 147.6L262.923 164.2L280.523 165.2L266.523 176.1L271.223 193.8L256.223 183.9L241.223 193.8L245.923 176.1L231.923 165.2L249.523 164.2L256.223 147.6ZM203.723 177.3L210.423 193.9L228.023 194.9L214.023 205.8L218.723 223.4L203.723 213.5L188.723 223.4L193.423 205.8L179.423 194.9L197.023 193.9L203.723 177.3ZM308.723 177.3L315.423 193.9L333.023 194.9L319.023 205.8L323.723 223.4L308.723 213.5L293.723 223.4L298.423 205.8L284.423 194.9L302.023 193.9L308.723 177.3Z" fill="#338AF3"/>
</g>
<path d="M443.836 355.184C443.49 355.384 443.057 355.495 442.517 355.495C441.998 355.495 441.544 355.295 441.155 354.895C440.766 354.494 440.593 353.96 440.593 353.315C440.593 352.648 440.788 352.136 441.177 351.713C441.566 351.313 442.063 351.113 442.625 351.113C442.928 351.113 443.209 351.157 443.446 351.268C443.706 351.38 443.987 351.558 444.29 351.825L445.068 350.645C444.354 349.978 443.511 349.667 442.539 349.667C441.566 349.667 440.744 350.022 440.053 350.712C439.361 351.402 439.015 352.269 439.015 353.293C439.015 354.338 439.361 355.184 440.031 355.874C440.701 356.563 441.544 356.897 442.539 356.897C443.727 356.897 444.657 356.519 445.327 355.74V353.271H443.814V355.184H443.836ZM446.711 356.808H448.224V349.844H446.711V356.808ZM451.942 349.844L449.002 356.83H450.601L451.228 355.317H454.06L454.687 356.83H456.286L453.347 349.844H451.942ZM451.834 353.938L452.677 351.914L453.52 353.938H451.834ZM461.864 354.339L458.534 349.844H457.108V356.83H458.621V352.447L461.842 356.83H463.355V349.844H461.842V354.339H461.864ZM464.479 349.844V351.202H466.403V356.83H467.916V351.179H469.84V349.822H464.479V349.844Z" fill="url(#paint0_linear_53_93)"/>
<path d="M477.141 352.252C477.141 353.791 476.022 354.75 474.236 354.75H472.902V356.646H471.353V349.731H474.236C476.022 349.754 477.141 350.691 477.141 352.252ZM475.57 352.252C475.57 351.493 475.097 351.047 474.15 351.047H472.902V353.456H474.15C475.097 353.456 475.57 353.01 475.57 352.252Z" fill="#6F6F73"/>
<path d="M481.487 351.27V352.698C481.358 352.698 481.272 352.675 481.164 352.675C480.347 352.675 479.809 353.144 479.809 354.147V356.645H478.324V351.337H479.744V352.028C480.088 351.538 480.712 351.27 481.487 351.27Z" fill="#6F6F73"/>
<path d="M482.132 353.991C482.132 352.385 483.316 351.248 484.951 351.248C486.586 351.248 487.77 352.385 487.77 353.991C487.77 355.597 486.586 356.734 484.951 356.734C483.316 356.734 482.132 355.597 482.132 353.991ZM486.264 353.991C486.264 353.077 485.704 352.519 484.951 352.519C484.198 352.519 483.639 353.077 483.639 353.991C483.639 354.905 484.219 355.463 484.951 355.463C485.683 355.463 486.264 354.905 486.264 353.991Z" fill="#6F6F73"/>
<path d="M492.245 356.4C491.944 356.623 491.492 356.735 491.04 356.735C489.835 356.735 489.125 356.088 489.125 354.839V352.653H488.329V351.471H489.125V350.177H490.61V351.471H491.879V352.653H490.61V354.817C490.61 355.263 490.847 355.508 491.255 355.508C491.47 355.508 491.686 355.441 491.858 355.307L492.245 356.4Z" fill="#6F6F73"/>
<path d="M492.673 353.932C492.673 352.326 493.856 351.188 495.491 351.188C497.127 351.188 498.31 352.326 498.31 353.932C498.31 355.538 497.127 356.675 495.491 356.675C493.856 356.675 492.673 355.538 492.673 353.932ZM496.804 353.932C496.804 353.017 496.245 352.46 495.491 352.46C494.738 352.46 494.179 353.017 494.179 353.932C494.179 354.846 494.76 355.404 495.491 355.404C496.223 355.404 496.804 354.846 496.804 353.932Z" fill="#6F6F73"/>
<path d="M499.172 353.991C499.172 352.385 500.356 351.248 502.034 351.248C503.11 351.248 503.949 351.738 504.336 352.608L503.174 353.255C502.895 352.742 502.486 352.519 502.013 352.519C501.259 352.519 500.678 353.054 500.678 353.991C500.678 354.928 501.259 355.463 502.013 355.463C502.486 355.463 502.895 355.24 503.174 354.727L504.336 355.374C503.97 356.221 503.11 356.712 502.034 356.712C500.356 356.734 499.172 355.597 499.172 353.991Z" fill="#6F6F73"/>
<path d="M504.917 353.991C504.917 352.385 506.1 351.248 507.735 351.248C509.371 351.248 510.554 352.385 510.554 353.991C510.554 355.597 509.371 356.734 507.735 356.734C506.1 356.734 504.917 355.597 504.917 353.991ZM509.048 353.991C509.048 353.077 508.489 352.519 507.735 352.519C506.983 352.519 506.423 353.077 506.423 353.991C506.423 354.905 507.004 355.463 507.735 355.463C508.467 355.463 509.048 354.905 509.048 353.991Z" fill="#6F6F73"/>
<path d="M511.737 349.33H513.222V356.645H511.737V349.33Z" fill="#6F6F73"/>
<path d="M421.431 349.388C421.442 349.396 421.455 349.401 421.47 349.401C421.481 349.401 421.491 349.398 421.501 349.393L425.547 347.181C425.881 346.998 426.564 346.998 426.898 347.181L430.942 349.393C430.953 349.399 430.965 349.402 430.978 349.401C430.99 349.4 431.002 349.395 431.012 349.388L432.478 348.253C432.485 348.247 432.491 348.239 432.495 348.23C432.499 348.221 432.501 348.212 432.5 348.202C432.499 348.193 432.496 348.184 432.491 348.176C432.485 348.168 432.478 348.161 432.47 348.156L427.844 345.629C427.397 345.383 426.82 345.248 426.223 345.248C425.625 345.248 425.048 345.382 424.6 345.629L419.974 348.159C419.965 348.164 419.958 348.17 419.952 348.178C419.947 348.186 419.944 348.196 419.943 348.205C419.942 348.215 419.944 348.224 419.948 348.233C419.952 348.242 419.958 348.249 419.965 348.256L421.431 349.388Z" fill="url(#paint1_linear_53_93)"/>
<path d="M428.497 351.286C428.511 351.286 428.525 351.281 428.536 351.273L429.905 350.225C429.913 350.219 429.919 350.212 429.923 350.203C429.926 350.195 429.928 350.185 429.927 350.176C429.926 350.167 429.923 350.158 429.918 350.15C429.913 350.142 429.905 350.136 429.897 350.131L427.04 348.587C426.575 348.335 425.87 348.334 425.4 348.587L422.544 350.132C422.536 350.136 422.529 350.143 422.524 350.151C422.518 350.158 422.515 350.167 422.514 350.176C422.513 350.186 422.515 350.195 422.519 350.204C422.523 350.212 422.529 350.22 422.537 350.225L423.907 351.272C423.916 351.279 423.928 351.284 423.941 351.285C423.953 351.286 423.965 351.283 423.976 351.277C423.976 351.277 426.172 350.092 426.186 350.083C426.196 350.077 426.208 350.074 426.22 350.074C426.232 350.074 426.243 350.077 426.253 350.083C426.264 350.09 428.467 351.28 428.467 351.28C428.476 351.285 428.487 351.287 428.497 351.287" fill="url(#paint2_linear_53_93)"/>
<path d="M424.678 353.88L426.199 354.712C426.209 354.717 426.22 354.72 426.231 354.72C426.242 354.72 426.253 354.718 426.262 354.712L427.763 353.892C427.772 353.886 427.78 353.879 427.786 353.87C427.791 353.86 427.794 353.85 427.794 353.839V352.2C427.794 352.19 427.791 352.179 427.786 352.17C427.78 352.161 427.772 352.154 427.763 352.148L426.262 351.328C426.253 351.323 426.242 351.32 426.231 351.32C426.22 351.32 426.209 351.323 426.199 351.328L424.952 352.011L424.704 352.123C424.694 352.128 424.684 352.136 424.678 352.145C424.671 352.155 424.668 352.166 424.668 352.177V353.374L424.647 353.827C424.646 353.838 424.649 353.848 424.654 353.858C424.66 353.868 424.668 353.876 424.678 353.881" fill="url(#paint3_linear_53_93)"/>
<path d="M424.91 360.553C425.577 360.885 426.62 361.004 427.529 360.553C427.752 360.439 432.169 358.042 432.169 358.042C432.935 357.584 433.792 356.705 433.792 355.385V350.32C433.792 350.311 433.789 350.301 433.785 350.293C433.78 350.284 433.773 350.277 433.764 350.272C433.756 350.267 433.747 350.263 433.737 350.262C433.727 350.261 433.716 350.262 433.707 350.266L431.938 350.902C431.927 350.906 431.916 350.914 431.909 350.923C431.902 350.933 431.898 350.945 431.898 350.957C431.898 350.957 431.921 355.337 431.894 355.455C431.854 355.827 431.534 356.321 431.223 356.49L426.897 358.856C426.563 359.039 425.88 359.039 425.546 358.856L421.22 356.49C420.909 356.32 420.589 355.827 420.549 355.455C420.522 355.337 420.545 350.957 420.545 350.957C420.545 350.945 420.541 350.933 420.534 350.924C420.527 350.914 420.517 350.906 420.505 350.902L418.736 350.266C418.727 350.262 418.716 350.261 418.706 350.261C418.696 350.262 418.686 350.266 418.678 350.271C418.669 350.276 418.662 350.284 418.657 350.292C418.652 350.301 418.65 350.311 418.65 350.32V355.386C418.65 356.706 419.507 357.585 420.272 358.043C420.272 358.043 424.651 360.426 424.909 360.553" fill="url(#paint4_linear_53_93)"/>
<path d="M425.438 357.468C425.68 357.587 425.949 357.648 426.222 357.646C426.492 357.648 426.759 357.589 427 357.473L429.914 355.9C430.484 355.597 430.734 355.135 430.734 354.574V351.479C430.734 351.47 430.731 351.461 430.727 351.453C430.722 351.445 430.715 351.438 430.707 351.432C430.699 351.427 430.69 351.424 430.68 351.422C430.67 351.421 430.66 351.422 430.651 351.426L428.996 352.015C428.984 352.019 428.974 352.026 428.967 352.036C428.96 352.045 428.956 352.057 428.956 352.068V354.464C428.957 354.473 428.954 354.483 428.949 354.492C428.944 354.5 428.937 354.507 428.927 354.512C428.908 354.52 426.241 355.944 426.241 355.944C426.229 355.949 426.216 355.951 426.203 355.951C426.19 355.951 426.177 355.949 426.165 355.944L423.517 354.511C423.508 354.506 423.5 354.499 423.495 354.491C423.49 354.482 423.487 354.472 423.488 354.463V352.067C423.488 352.056 423.484 352.044 423.477 352.035C423.47 352.025 423.46 352.018 423.449 352.014L421.794 351.425C421.784 351.421 421.774 351.42 421.764 351.421C421.755 351.422 421.745 351.426 421.737 351.431C421.729 351.436 421.722 351.443 421.717 351.452C421.713 351.46 421.71 351.469 421.71 351.478V354.573C421.71 355.134 421.96 355.596 422.53 355.899L425.438 357.468Z" fill="url(#paint5_linear_53_93)"/>
<defs>
<linearGradient id="paint0_linear_53_93" x1="454.446" y1="350.162" x2="454.446" y2="356.606" gradientUnits="userSpaceOnUse">
<stop stop-color="#4EB946"/>
<stop offset="1" stop-color="#70BF45"/>
</linearGradient>
<linearGradient id="paint1_linear_53_93" x1="419.943" y1="347.325" x2="432.5" y2="347.325" gradientUnits="userSpaceOnUse">
<stop stop-color="#6FBE44"/>
<stop offset="1" stop-color="#30B34A"/>
</linearGradient>
<linearGradient id="paint2_linear_53_93" x1="1590.99" y1="803.398" x2="3092.84" y2="803.398" gradientUnits="userSpaceOnUse">
<stop stop-color="#6FBE44"/>
<stop offset="1" stop-color="#30B34A"/>
</linearGradient>
<linearGradient id="paint3_linear_53_93" x1="1104.26" y1="1198.57" x2="1375.03" y2="1198.57" gradientUnits="userSpaceOnUse">
<stop stop-color="#6FBE44"/>
<stop offset="1" stop-color="#30B34A"/>
</linearGradient>
<linearGradient id="paint4_linear_53_93" x1="418.651" y1="355.555" x2="433.792" y2="355.555" gradientUnits="userSpaceOnUse">
<stop stop-color="#6F7073"/>
<stop offset="1" stop-color="#8C8F91"/>
</linearGradient>
<linearGradient id="paint5_linear_53_93" x1="1645.44" y1="2174.59" x2="3870.56" y2="2174.59" gradientUnits="userSpaceOnUse">
<stop stop-color="#6F7073"/>
<stop offset="1" stop-color="#8C8F91"/>
</linearGradient>
<clipPath id="clip0_53_93">
<rect width="513" height="342" fill="white" transform="translate(0.222656)"/>
</clipPath>
</defs>
</svg>
